solid raspberry_pi
facet normal 1.06933318747763e-016 1.0 9.64881727723898e-015
outer loop
vertex 243.689320214053 19.8741311841833 2.50000000000006
vertex 244.465777349361 19.7719086630505 5.78093128922319e-014
vertex 243.689320214053 19.8741311841833 5.78093128922319e-014
endloop
endfacet
facet normal 0.258819045102513 0.96592582628907 9.62483297524596e-015
outer loop
vertex 244.465777349361 19.7719086630505 5.78093128922319e-014
vertex 243.689320214053 19.8741311841833 2.50000000000006
vertex 244.465777349361 19.7719086630505 2.50000000000006
endloop
endfacet
facet normal -1.17762266643058e-015 -9.64881727723898e-015 1.0
outer loop
vertex 242.189320214053 14.27605497283 2.5
vertex 242.240431474619 16.4859026165295 2.50000000000002
vertex 242.189320214053 16.8741311841833 2.50000000000003
endloop
endfacet
facet normal -1.17762266643058e-015 -9.64881727723898e-015 1.0
outer loop
vertex 242.240431474619 16.4859026165295 2.50000000000002
vertex 242.189320214053 14.27605497283 2.5
vertex 242.912863078745 13.9763537053161 2.5
endloop
endfacet
facet normal -1.17762266643058e-015 -9.64881727723898e-015 1.0
outer loop
vertex 242.240431474619 16.4859026165295 2.50000000000002
vertex 242.912863078745 13.9763537053161 2.5
vertex 242.390282108376 16.1241311841833 2.50000000000002
endloop
endfacet
facet normal -1.17762266643058e-015 -9.64881727723898e-015 1.0
outer loop
vertex 242.390282108376 16.1241311841833 2.50000000000002
vertex 242.912863078745 13.9763537053161 2.5
vertex 242.628660042273 15.8134710124035 2.50000000000002
endloop
endfacet
facet normal -1.17762266643058e-015 -9.64881727723898e-015 1.0
outer loop
vertex 242.628660042273 15.8134710124035 2.50000000000002
vertex 242.912863078745 13.9763537053161 2.5
vertex 242.939320214053 15.5750930785066 2.50000000000002
endloop
endfacet
facet normal -1.17762266643058e-015 -9.64881727723898e-015 1.0
outer loop
vertex 242.939320214053 15.5750930785066 2.50000000000002
vertex 242.912863078745 13.9763537053161 2.5
vertex 243.689320214053 13.8741311841833 2.5
endloop
endfacet
facet normal -1.17762266643058e-015 -9.64881727723898e-015 1.0
outer loop
vertex 242.939320214053 15.5750930785066 2.50000000000002
vertex 243.689320214053 13.8741311841833 2.5
vertex 243.301091646399 15.4252424447497 2.50000000000001
endloop
endfacet
facet normal -1.17762266643058e-015 -9.64881727723898e-015 1.0
outer loop
vertex 243.301091646399 15.4252424447497 2.50000000000001
vertex 243.689320214053 13.8741311841833 2.5
vertex 243.689320214053 15.3741311841833 2.50000000000001
endloop
endfacet
facet normal -1.17762266643058e-015 -9.64881727723898e-015 1.0
outer loop
vertex 243.689320214053 15.3741311841833 2.50000000000001
vertex 243.689320214053 13.8741311841833 2.5
vertex 244.465777349361 13.9763537053161 2.5
endloop
endfacet
facet normal -1.17762266643058e-015 -9.64881727723898e-015 1.0
outer loop
vertex 243.689320214053 15.3741311841833 2.50000000000001
vertex 244.465777349361 13.9763537053161 2.5
vertex 244.077548781707 15.4252424447497 2.50000000000002
endloop
endfacet
facet normal -1.17762266643058e-015 -9.64881727723898e-015 1.0
outer loop
vertex 244.077548781707 15.4252424447497 2.50000000000002
vertex 244.465777349361 13.9763537053161 2.5
vertex 244.439320214053 15.5750930785066 2.50000000000002
endloop
endfacet
facet normal -1.17762266643058e-015 -9.64881727723898e-015 1.0
outer loop
vertex 244.439320214053 15.5750930785066 2.50000000000002
vertex 244.465777349361 13.9763537053161 2.5
vertex 244.749980385833 15.8134710124035 2.50000000000002
endloop
endfacet
facet normal -1.17762266643058e-015 -9.64881727723898e-015 1.0
outer loop
vertex 244.749980385833 15.8134710124035 2.50000000000002
vertex 244.465777349361 13.9763537053161 2.5
vertex 245.189320214053 14.27605497283 2.50000000000001
endloop
endfacet
facet normal -1.17762266643058e-015 -9.64881727723898e-015 1.0
outer loop
vertex 244.749980385833 15.8134710124035 2.50000000000002
vertex 245.189320214053 14.27605497283 2.50000000000001
vertex 244.98835831973 16.1241311841833 2.50000000000002
endloop
endfacet
facet normal -1.17762266643058e-015 -9.64881727723898e-015 1.0
outer loop
vertex 244.98835831973 16.1241311841833 2.50000000000002
vertex 245.189320214053 14.27605497283 2.50000000000001
vertex 245.138208953487 16.4859026165295 2.50000000000003
endloop
endfacet
facet normal -1.17762266643058e-015 -9.64881727723898e-015 1.0
outer loop
vertex 245.138208953487 16.4859026165295 2.50000000000003
vertex 245.189320214053 14.27605497283 2.50000000000001
vertex 245.189320214053 16.8741311841833 2.50000000000003
endloop
endfacet
facet normal -1.17762266643058e-015 -9.64881727723898e-015 1.0
outer loop
vertex 245.189320214053 16.8741311841833 2.50000000000003
vertex 245.189320214053 14.27605497283 2.50000000000001
vertex 245.810640557613 14.7528108406236 2.50000000000001
endloop
endfacet
facet normal -1.17762266643058e-015 -9.64881727723898e-015 1.0
outer loop
vertex 245.189320214053 16.8741311841833 2.50000000000003
vertex 245.810640557613 14.7528108406236 2.50000000000001
vertex 245.189320214053 19.4722073955366 2.50000000000006
endloop
endfacet
facet normal -1.17762266643058e-015 -9.64881727723898e-015 1.0
outer loop
vertex 245.189320214053 19.4722073955366 2.50000000000006
vertex 245.810640557613 14.7528108406236 2.50000000000001
vertex 245.810640557613 18.9954515277429 2.50000000000005
endloop
endfacet
facet normal -1.17762266643058e-015 -9.64881727723898e-015 1.0
outer loop
vertex 245.810640557613 18.9954515277429 2.50000000000005
vertex 245.810640557613 14.7528108406236 2.50000000000001
vertex 246.287396425406 15.3741311841833 2.50000000000002
endloop
endfacet
facet normal -1.17762266643058e-015 -9.64881727723898e-015 1.0
outer loop
vertex 245.810640557613 18.9954515277429 2.50000000000005
vertex 246.287396425406 15.3741311841833 2.50000000000002
vertex 246.287396425406 18.3741311841833 2.50000000000005
endloop
endfacet
facet normal -1.17762266643058e-015 -9.64881727723898e-015 1.0
outer loop
vertex 246.287396425406 18.3741311841833 2.50000000000005
vertex 246.287396425406 15.3741311841833 2.50000000000002
vertex 246.58709769292 16.0976740488757 2.50000000000002
endloop
endfacet
facet normal -1.17762266643058e-015 -9.64881727723898e-015 1.0
outer loop
vertex 246.287396425406 18.3741311841833 2.50000000000005
vertex 246.58709769292 16.0976740488757 2.50000000000002
vertex 246.58709769292 17.6505883194908 2.50000000000004
endloop
endfacet
facet normal -1.17762266643058e-015 -9.64881727723898e-015 1.0
outer loop
vertex 246.58709769292 17.6505883194908 2.50000000000004
vertex 246.58709769292 16.0976740488757 2.50000000000002
vertex 246.689320214053 16.8741311841833 2.50000000000003
endloop
endfacet
facet normal -1.17762266643058e-015 -9.64881727723898e-015 1.0
outer loop
vertex 240.791542735186 16.0976740488757 2.50000000000002
vertex 240.791542735186 17.6505883194908 2.50000000000003
vertex 240.689320214053 16.8741311841833 2.50000000000003
endloop
endfacet
facet normal -1.17762266643058e-015 -9.64881727723898e-015 1.0
outer loop
vertex 240.791542735186 17.6505883194908 2.50000000000003
vertex 240.791542735186 16.0976740488757 2.50000000000002
vertex 241.0912440027 15.3741311841833 2.50000000000001
endloop
endfacet
facet normal -1.17762266643058e-015 -9.64881727723898e-015 1.0
outer loop
vertex 240.791542735186 17.6505883194908 2.50000000000003
vertex 241.0912440027 15.3741311841833 2.50000000000001
vertex 241.0912440027 18.3741311841833 2.50000000000004
endloop
endfacet
facet normal -1.17762266643058e-015 -9.64881727723898e-015 1.0
outer loop
vertex 241.0912440027 18.3741311841833 2.50000000000004
vertex 241.0912440027 15.3741311841833 2.50000000000001
vertex 241.567999870493 14.7528108406236 2.50000000000001
endloop
endfacet
facet normal -1.17762266643058e-015 -9.64881727723898e-015 1.0
outer loop
vertex 241.0912440027 18.3741311841833 2.50000000000004
vertex 241.567999870493 14.7528108406236 2.50000000000001
vertex 241.567999870493 18.9954515277429 2.50000000000005
endloop
endfacet
facet normal -1.17762266643058e-015 -9.64881727723898e-015 1.0
outer loop
vertex 241.567999870493 18.9954515277429 2.50000000000005
vertex 241.567999870493 14.7528108406236 2.50000000000001
vertex 242.189320214053 14.27605497283 2.5
endloop
endfacet
facet normal -1.17762266643058e-015 -9.64881727723898e-015 1.0
outer loop
vertex 241.567999870493 18.9954515277429 2.50000000000005
vertex 242.189320214053 14.27605497283 2.5
vertex 242.189320214053 19.4722073955366 2.50000000000005
endloop
endfacet
facet normal -1.17762266643058e-015 -9.64881727723898e-015 1.0
outer loop
vertex 242.189320214053 19.4722073955366 2.50000000000005
vertex 242.189320214053 14.27605497283 2.5
vertex 242.189320214053 16.8741311841833 2.50000000000003
endloop
endfacet
facet normal -1.17762266643058e-015 -9.64881727723898e-015 1.0
outer loop
vertex 242.189320214053 19.4722073955366 2.50000000000005
vertex 242.189320214053 16.8741311841833 2.50000000000003
vertex 242.240431474619 17.2623597518371 2.50000000000003
endloop
endfacet
facet normal -1.17762266643058e-015 -9.64881727723898e-015 1.0
outer loop
vertex 242.189320214053 19.4722073955366 2.50000000000005
vertex 242.240431474619 17.2623597518371 2.50000000000003
vertex 242.912863078745 19.7719086630505 2.50000000000006
endloop
endfacet
facet normal -1.17762266643058e-015 -9.64881727723898e-015 1.0
outer loop
vertex 242.912863078745 19.7719086630505 2.50000000000006
vertex 242.240431474619 17.2623597518371 2.50000000000003
vertex 242.390282108376 17.6241311841833 2.50000000000003
endloop
endfacet
facet normal -1.17762266643058e-015 -9.64881727723898e-015 1.0
outer loop
vertex 242.912863078745 19.7719086630505 2.50000000000006
vertex 242.390282108376 17.6241311841833 2.50000000000003
vertex 242.628660042273 17.9347913559631 2.50000000000004
endloop
endfacet
facet normal -1.17762266643058e-015 -9.64881727723898e-015 1.0
outer loop
vertex 242.912863078745 19.7719086630505 2.50000000000006
vertex 242.628660042273 17.9347913559631 2.50000000000004
vertex 242.939320214053 18.1731692898599 2.50000000000004
endloop
endfacet
facet normal -1.17762266643058e-015 -9.64881727723898e-015 1.0
outer loop
vertex 242.912863078745 19.7719086630505 2.50000000000006
vertex 242.939320214053 18.1731692898599 2.50000000000004
vertex 243.689320214053 19.8741311841833 2.50000000000006
endloop
endfacet
facet normal -1.17762266643058e-015 -9.64881727723898e-015 1.0
outer loop
vertex 243.689320214053 19.8741311841833 2.50000000000006
vertex 242.939320214053 18.1731692898599 2.50000000000004
vertex 243.301091646399 18.3230199236169 2.50000000000004
endloop
endfacet
facet normal -1.17762266643058e-015 -9.64881727723898e-015 1.0
outer loop
vertex 243.689320214053 19.8741311841833 2.50000000000006
vertex 243.301091646399 18.3230199236169 2.50000000000004
vertex 243.689320214053 18.3741311841833 2.50000000000004
endloop
endfacet
facet normal -1.17762266643058e-015 -9.64881727723898e-015 1.0
outer loop
vertex 243.689320214053 19.8741311841833 2.50000000000006
vertex 243.689320214053 18.3741311841833 2.50000000000004
vertex 244.077548781707 18.3230199236169 2.50000000000004
endloop
endfacet
facet normal -1.17762266643058e-015 -9.64881727723898e-015 1.0
outer loop
vertex 243.689320214053 19.8741311841833 2.50000000000006
vertex 244.077548781707 18.3230199236169 2.50000000000004
vertex 244.465777349361 19.7719086630505 2.50000000000006
endloop
endfacet
facet normal -1.17762266643058e-015 -9.64881727723898e-015 1.0
outer loop
vertex 244.465777349361 19.7719086630505 2.50000000000006
vertex 244.077548781707 18.3230199236169 2.50000000000004
vertex 244.439320214053 18.1731692898599 2.50000000000004
endloop
endfacet
facet normal -1.17762266643058e-015 -9.64881727723898e-015 1.0
outer loop
vertex 244.465777349361 19.7719086630505 2.50000000000006
vertex 244.439320214053 18.1731692898599 2.50000000000004
vertex 244.749980385833 17.9347913559631 2.50000000000004
endloop
endfacet
facet normal -1.17762266643058e-015 -9.64881727723898e-015 1.0
outer loop
vertex 244.465777349361 19.7719086630505 2.50000000000006
vertex 244.749980385833 17.9347913559631 2.50000000000004
vertex 245.189320214053 19.4722073955366 2.50000000000006
endloop
endfacet
facet normal -1.17762266643058e-015 -9.64881727723898e-015 1.0
outer loop
vertex 245.189320214053 19.4722073955366 2.50000000000006
vertex 244.749980385833 17.9347913559631 2.50000000000004
vertex 244.98835831973 17.6241311841833 2.50000000000004
endloop
endfacet
facet normal -1.17762266643058e-015 -9.64881727723898e-015 1.0
outer loop
vertex 245.189320214053 19.4722073955366 2.50000000000006
vertex 244.98835831973 17.6241311841833 2.50000000000004
vertex 245.138208953487 17.2623597518371 2.50000000000003
endloop
endfacet
facet normal -1.17762266643058e-015 -9.64881727723898e-015 1.0
outer loop
vertex 245.189320214053 19.4722073955366 2.50000000000006
vertex 245.138208953487 17.2623597518371 2.50000000000003
vertex 245.189320214053 16.8741311841833 2.50000000000003
endloop
endfacet
facet normal -0.258819045102526 0.965925826289067 9.01525062721264e-015
outer loop
vertex 242.912863078745 19.7719086630505 2.50000000000006
vertex 243.689320214053 19.8741311841833 5.78093128922319e-014
vertex 242.912863078745 19.7719086630505 5.60468338406395e-014
endloop
endfacet
facet normal -9.80222088521159e-017 1.0 9.64881727723898e-015
outer loop
vertex 243.689320214053 19.8741311841833 5.78093128922319e-014
vertex 242.912863078745 19.7719086630505 2.50000000000006
vertex 243.689320214053 19.8741311841833 2.50000000000006
endloop
endfacet
facet normal 1.17762266643058e-015 9.64881727723898e-015 -1.0
outer loop
vertex 242.189320214053 19.4722073955366 5.21693799271361e-014
vertex 242.240431474619 17.2623597518371 2.92571522564344e-014
vertex 242.189320214053 16.8741311841833 2.57321941532496e-014
endloop
endfacet
facet normal 1.17762266643058e-015 9.64881727723898e-015 -1.0
outer loop
vertex 242.240431474619 17.2623597518371 2.92571522564344e-014
vertex 242.189320214053 19.4722073955366 5.21693799271361e-014
vertex 242.912863078745 19.7719086630505 5.60468338406395e-014
endloop
endfacet
facet normal 1.17762266643058e-015 9.64881727723898e-015 -1.0
outer loop
vertex 242.240431474619 17.2623597518371 2.92571522564344e-014
vertex 242.912863078745 19.7719086630505 5.60468338406395e-014
vertex 242.390282108376 17.6241311841833 3.34871019802563e-014
endloop
endfacet
facet normal 1.17762266643058e-015 9.64881727723898e-015 -1.0
outer loop
vertex 242.390282108376 17.6241311841833 3.34871019802563e-014
vertex 242.912863078745 19.7719086630505 5.60468338406395e-014
vertex 242.628660042273 17.9347913559631 3.63070684628042e-014
endloop
endfacet
facet normal 1.17762266643058e-015 9.64881727723898e-015 -1.0
outer loop
vertex 242.628660042273 17.9347913559631 3.63070684628042e-014
vertex 242.912863078745 19.7719086630505 5.60468338406395e-014
vertex 242.939320214053 18.1731692898599 3.91270349453521e-014
endloop
endfacet
facet normal 1.17762266643058e-015 9.64881727723898e-015 -1.0
outer loop
vertex 242.939320214053 18.1731692898599 3.91270349453521e-014
vertex 242.912863078745 19.7719086630505 5.60468338406395e-014
vertex 243.689320214053 19.8741311841833 5.78093128922319e-014
endloop
endfacet
facet normal 1.17762266643058e-015 9.64881727723898e-015 -1.0
outer loop
vertex 242.939320214053 18.1731692898599 3.91270349453521e-014
vertex 243.689320214053 19.8741311841833 5.78093128922319e-014
vertex 243.301091646399 18.3230199236169 4.1242009807263e-014
endloop
endfacet
facet normal 1.17762266643058e-015 9.64881727723898e-015 -1.0
outer loop
vertex 243.301091646399 18.3230199236169 4.1242009807263e-014
vertex 243.689320214053 19.8741311841833 5.78093128922319e-014
vertex 243.689320214053 18.3741311841833 4.19470014279e-014
endloop
endfacet
facet normal 1.17762266643058e-015 9.64881727723898e-015 -1.0
outer loop
vertex 243.689320214053 18.3741311841833 4.19470014279e-014
vertex 243.689320214053 19.8741311841833 5.78093128922319e-014
vertex 244.465777349361 19.7719086630505 5.78093128922319e-014
endloop
endfacet
facet normal 1.17762266643058e-015 9.64881727723898e-015 -1.0
outer loop
vertex 243.689320214053 18.3741311841833 4.19470014279e-014
vertex 244.465777349361 19.7719086630505 5.78093128922319e-014
vertex 244.077548781707 18.3230199236169 4.19470014279e-014
endloop
endfacet
facet normal 1.17762266643058e-015 9.64881727723898e-015 -1.0
outer loop
vertex 244.077548781707 18.3230199236169 4.19470014279e-014
vertex 244.465777349361 19.7719086630505 5.78093128922319e-014
vertex 244.439320214053 18.1731692898599 4.1242009807263e-014
endloop
endfacet
facet normal 1.17762266643058e-015 9.64881727723898e-015 -1.0
outer loop
vertex 244.439320214053 18.1731692898599 4.1242009807263e-014
vertex 244.465777349361 19.7719086630505 5.78093128922319e-014
vertex 244.749980385833 17.9347913559631 3.91270349453521e-014
endloop
endfacet
facet normal 1.17762266643058e-015 9.64881727723898e-015 -1.0
outer loop
vertex 244.749980385833 17.9347913559631 3.91270349453521e-014
vertex 244.465777349361 19.7719086630505 5.78093128922319e-014
vertex 245.189320214053 19.4722073955366 5.5694338030321e-014
endloop
endfacet
facet normal 1.17762266643058e-015 9.64881727723898e-015 -1.0
outer loop
vertex 244.749980385833 17.9347913559631 3.91270349453521e-014
vertex 245.189320214053 19.4722073955366 5.5694338030321e-014
vertex 244.98835831973 17.6241311841833 3.63070684628042e-014
endloop
endfacet
facet normal 1.17762266643058e-015 9.64881727723898e-015 -1.0
outer loop
vertex 244.98835831973 17.6241311841833 3.63070684628042e-014
vertex 245.189320214053 19.4722073955366 5.5694338030321e-014
vertex 245.138208953487 17.2623597518371 3.27821103596193e-014
endloop
endfacet
facet normal 1.17762266643058e-015 9.64881727723898e-015 -1.0
outer loop
vertex 245.138208953487 17.2623597518371 3.27821103596193e-014
vertex 245.189320214053 19.4722073955366 5.5694338030321e-014
vertex 245.189320214053 16.8741311841833 2.92571522564344e-014
endloop
endfacet
facet normal 1.17762266643058e-015 9.64881727723898e-015 -1.0
outer loop
vertex 245.189320214053 16.8741311841833 2.92571522564344e-014
vertex 245.189320214053 19.4722073955366 5.5694338030321e-014
vertex 245.810640557613 18.995451527743 5.18168841168176e-014
endloop
endfacet
facet normal 1.17762266643058e-015 9.64881727723898e-015 -1.0
outer loop
vertex 245.189320214053 16.8741311841833 2.92571522564344e-014
vertex 245.810640557613 18.995451527743 5.18168841168176e-014
vertex 245.189320214053 14.27605497283 5.63993296509579e-015
endloop
endfacet
facet normal 1.17762266643058e-015 9.64881727723898e-015 -1.0
outer loop
vertex 245.189320214053 14.27605497283 5.63993296509579e-015
vertex 245.810640557613 18.995451527743 5.18168841168176e-014
vertex 245.810640557613 14.7528108406237 1.09273701198731e-014
endloop
endfacet
facet normal 1.17762266643058e-015 9.64881727723898e-015 -1.0
outer loop
vertex 245.810640557613 14.7528108406237 1.09273701198731e-014
vertex 245.810640557613 18.995451527743 5.18168841168176e-014
vertex 246.287396425406 18.3741311841833 4.65294469620403e-014
endloop
endfacet
facet normal 1.17762266643058e-015 9.64881727723898e-015 -1.0
outer loop
vertex 245.810640557613 14.7528108406237 1.09273701198731e-014
vertex 246.287396425406 18.3741311841833 4.65294469620403e-014
vertex 246.287396425406 15.3741311841833 1.76247905159244e-014
endloop
endfacet
facet normal 1.17762266643058e-015 9.64881727723898e-015 -1.0
outer loop
vertex 246.287396425406 15.3741311841833 1.76247905159244e-014
vertex 246.287396425406 18.3741311841833 4.65294469620403e-014
vertex 246.58709769292 17.6505883194909 3.98320265659891e-014
endloop
endfacet
facet normal 1.17762266643058e-015 9.64881727723898e-015 -1.0
outer loop
vertex 246.287396425406 15.3741311841833 1.76247905159244e-014
vertex 246.58709769292 17.6505883194909 3.98320265659891e-014
vertex 246.58709769292 16.0976740488757 2.46747067222941e-014
endloop
endfacet
facet normal 1.17762266643058e-015 9.64881727723898e-015 -1.0
outer loop
vertex 246.58709769292 16.0976740488757 2.46747067222941e-014
vertex 246.58709769292 17.6505883194909 3.98320265659891e-014
vertex 246.689320214053 16.8741311841833 3.24296145493008e-014
endloop
endfacet
facet normal 1.17762266643058e-015 9.64881727723898e-015 -1.0
outer loop
vertex 240.791542735186 17.6505883194909 3.31346061699378e-014
vertex 240.791542735186 16.0976740488757 1.79772863262428e-014
vertex 240.689320214053 16.8741311841833 2.53796983429311e-014
endloop
endfacet
facet normal 1.17762266643058e-015 9.64881727723898e-015 -1.0
outer loop
vertex 240.791542735186 16.0976740488757 1.79772863262428e-014
vertex 240.791542735186 17.6505883194909 3.31346061699378e-014
vertex 241.0912440027 18.3741311841833 4.01845223763075e-014
endloop
endfacet
facet normal 1.17762266643058e-015 9.64881727723898e-015 -1.0
outer loop
vertex 240.791542735186 16.0976740488757 1.79772863262428e-014
vertex 241.0912440027 18.3741311841833 4.01845223763075e-014
vertex 241.0912440027 15.3741311841833 1.12798659301916e-014
endloop
endfacet
facet normal 1.17762266643058e-015 9.64881727723898e-015 -1.0
outer loop
vertex 241.0912440027 15.3741311841833 1.12798659301916e-014
vertex 241.0912440027 18.3741311841833 4.01845223763075e-014
vertex 241.567999870493 18.995451527743 4.68819427723588e-014
endloop
endfacet
facet normal 1.17762266643058e-015 9.64881727723898e-015 -1.0
outer loop
vertex 241.0912440027 15.3741311841833 1.12798659301916e-014
vertex 241.567999870493 18.995451527743 4.68819427723588e-014
vertex 241.567999870493 14.7528108406237 5.99242877541428e-015
endloop
endfacet
facet normal 1.17762266643058e-015 9.64881727723898e-015 -1.0
outer loop
vertex 241.567999870493 14.7528108406237 5.99242877541428e-015
vertex 241.567999870493 18.995451527743 4.68819427723588e-014
vertex 242.189320214053 19.4722073955366 5.21693799271361e-014
endloop
endfacet
facet normal 1.17762266643058e-015 9.64881727723898e-015 -1.0
outer loop
vertex 241.567999870493 14.7528108406237 5.99242877541428e-015
vertex 242.189320214053 19.4722073955366 5.21693799271361e-014
vertex 242.189320214053 14.27605497283 2.11497486191092e-015
endloop
endfacet
facet normal 1.17762266643058e-015 9.64881727723898e-015 -1.0
outer loop
vertex 242.189320214053 14.27605497283 2.11497486191092e-015
vertex 242.189320214053 19.4722073955366 5.21693799271361e-014
vertex 242.189320214053 16.8741311841833 2.57321941532496e-014
endloop
endfacet
facet normal 1.17762266643058e-015 9.64881727723898e-015 -1.0
outer loop
vertex 242.189320214053 14.27605497283 2.11497486191092e-015
vertex 242.189320214053 16.8741311841833 2.57321941532496e-014
vertex 242.240431474619 16.4859026165295 2.22072360500647e-014
endloop
endfacet
facet normal 1.17762266643058e-015 9.64881727723898e-015 -1.0
outer loop
vertex 242.189320214053 14.27605497283 2.11497486191092e-015
vertex 242.240431474619 16.4859026165295 2.22072360500647e-014
vertex 242.912863078745 13.9763537053161 0.0
endloop
endfacet
facet normal 1.17762266643058e-015 9.64881727723898e-015 -1.0
outer loop
vertex 242.912863078745 13.9763537053161 0.0
vertex 242.240431474619 16.4859026165295 2.22072360500647e-014
vertex 242.390282108376 16.1241311841833 1.86822779468798e-014
endloop
endfacet
facet normal 1.17762266643058e-015 9.64881727723898e-015 -1.0
outer loop
vertex 242.912863078745 13.9763537053161 0.0
vertex 242.390282108376 16.1241311841833 1.86822779468798e-014
vertex 242.628660042273 15.8134710124035 1.58623114643319e-014
endloop
endfacet
facet normal 1.17762266643058e-015 9.64881727723898e-015 -1.0
outer loop
vertex 242.912863078745 13.9763537053161 0.0
vertex 242.628660042273 15.8134710124035 1.58623114643319e-014
vertex 242.939320214053 15.5750930785066 1.4452328223058e-014
endloop
endfacet
facet normal 1.17762266643058e-015 9.64881727723898e-015 -1.0
outer loop
vertex 242.912863078745 13.9763537053161 0.0
vertex 242.939320214053 15.5750930785066 1.4452328223058e-014
vertex 243.689320214053 13.8741311841833 0.0
endloop
endfacet
facet normal 1.17762266643058e-015 9.64881727723898e-015 -1.0
outer loop
vertex 243.689320214053 13.8741311841833 0.0
vertex 242.939320214053 15.5750930785066 1.4452328223058e-014
vertex 243.301091646399 15.4252424447497 1.3042344981784e-014
endloop
endfacet
facet normal 1.17762266643058e-015 9.64881727723898e-015 -1.0
outer loop
vertex 243.689320214053 13.8741311841833 0.0
vertex 243.301091646399 15.4252424447497 1.3042344981784e-014
vertex 243.689320214053 15.3741311841833 1.3042344981784e-014
endloop
endfacet
facet normal 1.17762266643058e-015 9.64881727723898e-015 -1.0
outer loop
vertex 243.689320214053 13.8741311841833 0.0
vertex 243.689320214053 15.3741311841833 1.3042344981784e-014
vertex 244.077548781707 15.4252424447497 1.3747336602421e-014
endloop
endfacet
facet normal 1.17762266643058e-015 9.64881727723898e-015 -1.0
outer loop
vertex 243.689320214053 13.8741311841833 0.0
vertex 244.077548781707 15.4252424447497 1.3747336602421e-014
vertex 244.465777349361 13.9763537053161 1.76247905159244e-015
endloop
endfacet
facet normal 1.17762266643058e-015 9.64881727723898e-015 -1.0
outer loop
vertex 244.465777349361 13.9763537053161 1.76247905159244e-015
vertex 244.077548781707 15.4252424447497 1.3747336602421e-014
vertex 244.439320214053 15.5750930785066 1.58623114643319e-014
endloop
endfacet
facet normal 1.17762266643058e-015 9.64881727723898e-015 -1.0
outer loop
vertex 244.465777349361 13.9763537053161 1.76247905159244e-015
vertex 244.439320214053 15.5750930785066 1.58623114643319e-014
vertex 244.749980385833 15.8134710124035 1.86822779468798e-014
endloop
endfacet
facet normal 1.17762266643058e-015 9.64881727723898e-015 -1.0
outer loop
vertex 244.465777349361 13.9763537053161 1.76247905159244e-015
vertex 244.749980385833 15.8134710124035 1.86822779468798e-014
vertex 245.189320214053 14.27605497283 5.63993296509579e-015
endloop
endfacet
facet normal 1.17762266643058e-015 9.64881727723898e-015 -1.0
outer loop
vertex 245.189320214053 14.27605497283 5.63993296509579e-015
vertex 244.749980385833 15.8134710124035 1.86822779468798e-014
vertex 244.98835831973 16.1241311841833 2.15022444294277e-014
endloop
endfacet
facet normal 1.17762266643058e-015 9.64881727723898e-015 -1.0
outer loop
vertex 245.189320214053 14.27605497283 5.63993296509579e-015
vertex 244.98835831973 16.1241311841833 2.15022444294277e-014
vertex 245.138208953487 16.4859026165295 2.57321941532496e-014
endloop
endfacet
facet normal 1.17762266643058e-015 9.64881727723898e-015 -1.0
outer loop
vertex 245.189320214053 14.27605497283 5.63993296509579e-015
vertex 245.138208953487 16.4859026165295 2.57321941532496e-014
vertex 245.189320214053 16.8741311841833 2.92571522564344e-014
endloop
endfacet
facet normal -0.499999999999996 0.866025403784441 7.7673095453479e-015
outer loop
vertex 242.189320214053 19.4722073955366 2.50000000000005
vertex 242.912863078745 19.7719086630505 5.60468338406395e-014
vertex 242.189320214053 19.4722073955366 5.21693799271361e-014
endloop
endfacet
facet normal -0.258819045102526 0.965925826289067 9.01525062721264e-015
outer loop
vertex 242.912863078745 19.7719086630505 5.60468338406395e-014
vertex 242.189320214053 19.4722073955366 2.50000000000005
vertex 242.912863078745 19.7719086630505 2.50000000000006
endloop
endfacet
facet normal -0.707106781186547 0.707106781186548 5.99003915405356e-015
outer loop
vertex 241.567999870493 18.9954515277429 2.50000000000005
vertex 242.189320214053 19.4722073955366 5.21693799271361e-014
vertex 241.567999870493 18.995451527743 4.68819427723588e-014
endloop
endfacet
facet normal -0.499999999999996 0.866025403784441 7.7673095453479e-015
outer loop
vertex 242.189320214053 19.4722073955366 5.21693799271361e-014
vertex 241.567999870493 18.9954515277429 2.50000000000005
vertex 242.189320214053 19.4722073955366 2.50000000000005
endloop
endfacet
facet normal -0.707106781186547 0.707106781186548 5.99003915405356e-015
outer loop
vertex 241.567999870493 18.9954515277429 2.50000000000005
vertex 241.0912440027 18.3741311841833 4.01845223763075e-014
vertex 241.0912440027 18.3741311841833 2.50000000000004
endloop
endfacet
facet normal -0.866025403784441 0.499999999999996 3.8045574934182e-015
outer loop
vertex 241.0912440027 18.3741311841833 4.01845223763075e-014
vertex 241.567999870493 18.9954515277429 2.50000000000005
vertex 241.567999870493 18.995451527743 4.68819427723588e-014
endloop
endfacet
facet normal 0.258819045102513 0.96592582628907 9.62483297524596e-015
outer loop
vertex 244.465777349361 19.7719086630505 5.78093128922319e-014
vertex 245.189320214053 19.4722073955366 2.50000000000006
vertex 245.189320214053 19.4722073955366 5.5694338030321e-014
endloop
endfacet
facet normal 0.499999999999994 0.866025403784442 8.94493221177848e-015
outer loop
vertex 245.189320214053 19.4722073955366 2.50000000000006
vertex 244.465777349361 19.7719086630505 5.78093128922319e-014
vertex 244.465777349361 19.7719086630505 2.50000000000006
endloop
endfacet
facet normal 0.499999999999994 0.866025403784442 8.94493221177848e-015
outer loop
vertex 245.189320214053 19.4722073955366 5.5694338030321e-014
vertex 245.810640557613 18.9954515277429 2.50000000000005
vertex 245.810640557613 18.995451527743 5.18168841168176e-014
endloop
endfacet
facet normal 0.707106781186556 0.707106781186539 7.65544910027758e-015
outer loop
vertex 245.810640557613 18.9954515277429 2.50000000000005
vertex 245.189320214053 19.4722073955366 5.5694338030321e-014
vertex 245.189320214053 19.4722073955366 2.50000000000006
endloop
endfacet
facet normal 0.866025403784441 0.499999999999996 5.8442597838207e-015
outer loop
vertex 246.287396425406 18.3741311841833 4.65294469620403e-014
vertex 245.810640557613 18.9954515277429 2.50000000000005
vertex 246.287396425406 18.3741311841833 2.50000000000005
endloop
endfacet
facet normal 0.707106781186556 0.707106781186539 7.65544910027758e-015
outer loop
vertex 245.810640557613 18.9954515277429 2.50000000000005
vertex 246.287396425406 18.3741311841833 4.65294469620403e-014
vertex 245.810640557613 18.995451527743 5.18168841168176e-014
endloop
endfacet
facet normal 0.965925826289067 0.258819045102526 3.63479382119244e-015
outer loop
vertex 246.58709769292 17.6505883194909 3.98320265659891e-014
vertex 246.287396425406 18.3741311841833 2.50000000000005
vertex 246.58709769292 17.6505883194908 2.50000000000004
endloop
endfacet
facet normal 0.866025403784441 0.499999999999996 5.8442597838207e-015
outer loop
vertex 246.287396425406 18.3741311841833 2.50000000000005
vertex 246.58709769292 17.6505883194909 3.98320265659891e-014
vertex 246.287396425406 18.3741311841833 4.65294469620403e-014
endloop
endfacet
facet normal -0.866025403784441 0.499999999999996 3.8045574934182e-015
outer loop
vertex 241.0912440027 18.3741311841833 2.50000000000004
vertex 240.791542735186 17.6505883194909 3.31346061699378e-014
vertex 240.791542735186 17.6505883194908 2.50000000000003
endloop
endfacet
facet normal -0.965925826289067 0.258819045102526 1.35980152693506e-015
outer loop
vertex 240.791542735186 17.6505883194909 3.31346061699378e-014
vertex 241.0912440027 18.3741311841833 2.50000000000004
vertex 241.0912440027 18.3741311841833 4.01845223763075e-014
endloop
endfacet
facet normal 0.258819045102526 -0.965925826289067 -9.01525062721264e-015
outer loop
vertex 244.465777349361 13.9763537053161 1.76247905159244e-015
vertex 243.689320214053 13.8741311841833 2.5
vertex 243.689320214053 13.8741311841833 0.0
endloop
endfacet
facet normal 9.80222088521159e-017 -1.0 -9.64881727723898e-015
outer loop
vertex 243.689320214053 13.8741311841833 2.5
vertex 244.465777349361 13.9763537053161 1.76247905159244e-015
vertex 244.465777349361 13.9763537053161 2.5
endloop
endfacet
facet normal -1.0 6.23777692695283e-017 -1.17762266643058e-015
outer loop
vertex 240.689320214053 16.8741311841833 2.50000000000003
vertex 240.791542735186 16.0976740488757 1.79772863262428e-014
vertex 240.791542735186 16.0976740488757 2.50000000000002
endloop
endfacet
facet normal -0.965925826289067 -0.258819045102526 -3.63479382119244e-015
outer loop
vertex 240.791542735186 16.0976740488757 1.79772863262428e-014
vertex 240.689320214053 16.8741311841833 2.50000000000003
vertex 240.689320214053 16.8741311841833 2.53796983429311e-014
endloop
endfacet
facet normal -0.965925826289067 -0.258819045102526 -3.63479382119244e-015
outer loop
vertex 240.791542735186 16.0976740488757 2.50000000000002
vertex 241.0912440027 15.3741311841833 1.12798659301916e-014
vertex 241.0912440027 15.3741311841833 2.50000000000001
endloop
endfacet
facet normal -0.866025403784441 -0.499999999999996 -5.8442597838207e-015
outer loop
vertex 241.0912440027 15.3741311841833 1.12798659301916e-014
vertex 240.791542735186 16.0976740488757 2.50000000000002
vertex 240.791542735186 16.0976740488757 1.79772863262428e-014
endloop
endfacet
facet normal -0.866025403784441 -0.499999999999996 -5.8442597838207e-015
outer loop
vertex 241.0912440027 15.3741311841833 2.50000000000001
vertex 241.567999870493 14.7528108406237 5.99242877541428e-015
vertex 241.567999870493 14.7528108406236 2.50000000000001
endloop
endfacet
facet normal -0.707106781186548 -0.707106781186547 -7.65544910027765e-015
outer loop
vertex 241.567999870493 14.7528108406237 5.99242877541428e-015
vertex 241.0912440027 15.3741311841833 2.50000000000001
vertex 241.0912440027 15.3741311841833 1.12798659301916e-014
endloop
endfacet
facet normal -0.499999999999996 -0.866025403784441 -8.94493221177847e-015
outer loop
vertex 242.189320214053 14.27605497283 2.5
vertex 241.567999870493 14.7528108406237 5.99242877541428e-015
vertex 242.189320214053 14.27605497283 2.11497486191092e-015
endloop
endfacet
facet normal -0.707106781186548 -0.707106781186547 -7.65544910027765e-015
outer loop
vertex 241.567999870493 14.7528108406237 5.99242877541428e-015
vertex 242.189320214053 14.27605497283 2.5
vertex 241.567999870493 14.7528108406236 2.50000000000001
endloop
endfacet
facet normal -0.258819045102526 -0.965925826289067 -9.62483297524594e-015
outer loop
vertex 242.912863078745 13.9763537053161 2.5
vertex 242.189320214053 14.27605497283 2.11497486191092e-015
vertex 242.912863078745 13.9763537053161 0.0
endloop
endfacet
facet normal -0.499999999999996 -0.866025403784441 -8.94493221177847e-015
outer loop
vertex 242.189320214053 14.27605497283 2.11497486191092e-015
vertex 242.912863078745 13.9763537053161 2.5
vertex 242.189320214053 14.27605497283 2.5
endloop
endfacet
facet normal 9.80222088521159e-017 -1.0 -9.64881727723898e-015
outer loop
vertex 243.689320214053 13.8741311841833 2.5
vertex 242.912863078745 13.9763537053161 0.0
vertex 243.689320214053 13.8741311841833 0.0
endloop
endfacet
facet normal -0.258819045102526 -0.965925826289067 -9.62483297524594e-015
outer loop
vertex 242.912863078745 13.9763537053161 0.0
vertex 243.689320214053 13.8741311841833 2.5
vertex 242.912863078745 13.9763537053161 2.5
endloop
endfacet
facet normal -0.965925826289067 0.258819045102526 1.35980152693506e-015
outer loop
vertex 240.791542735186 17.6505883194908 2.50000000000003
vertex 240.689320214053 16.8741311841833 2.53796983429311e-014
vertex 240.689320214053 16.8741311841833 2.50000000000003
endloop
endfacet
facet normal -1.0 -6.23777692695283e-017 -1.17762266643058e-015
outer loop
vertex 240.689320214053 16.8741311841833 2.53796983429311e-014
vertex 240.791542735186 17.6505883194908 2.50000000000003
vertex 240.791542735186 17.6505883194909 3.31346061699378e-014
endloop
endfacet
facet normal 0.707106781186547 -0.707106781186548 -5.99003915405356e-015
outer loop
vertex 245.810640557613 14.7528108406237 1.09273701198731e-014
vertex 245.189320214053 14.27605497283 2.50000000000001
vertex 245.189320214053 14.27605497283 5.63993296509579e-015
endloop
endfacet
facet normal 0.499999999999996 -0.866025403784441 -7.7673095453479e-015
outer loop
vertex 245.189320214053 14.27605497283 2.50000000000001
vertex 245.810640557613 14.7528108406237 1.09273701198731e-014
vertex 245.810640557613 14.7528108406236 2.50000000000001
endloop
endfacet
facet normal 0.499999999999996 -0.866025403784441 -7.7673095453479e-015
outer loop
vertex 245.189320214053 14.27605497283 5.63993296509579e-015
vertex 244.465777349361 13.9763537053161 2.5
vertex 244.465777349361 13.9763537053161 1.76247905159244e-015
endloop
endfacet
facet normal 0.258819045102526 -0.965925826289067 -9.01525062721264e-015
outer loop
vertex 244.465777349361 13.9763537053161 2.5
vertex 245.189320214053 14.27605497283 5.63993296509579e-015
vertex 245.189320214053 14.27605497283 2.50000000000001
endloop
endfacet
facet normal 1.0 -6.23777692695283e-017 1.17762266643058e-015
outer loop
vertex 246.689320214053 16.8741311841833 3.24296145493008e-014
vertex 246.58709769292 17.6505883194908 2.50000000000004
vertex 246.689320214053 16.8741311841833 2.50000000000003
endloop
endfacet
facet normal 0.965925826289067 0.258819045102526 3.63479382119244e-015
outer loop
vertex 246.58709769292 17.6505883194908 2.50000000000004
vertex 246.689320214053 16.8741311841833 3.24296145493008e-014
vertex 246.58709769292 17.6505883194909 3.98320265659891e-014
endloop
endfacet
facet normal 0.965925826289067 -0.258819045102526 -1.35980152693506e-015
outer loop
vertex 246.58709769292 16.0976740488757 2.46747067222941e-014
vertex 246.689320214053 16.8741311841833 2.50000000000003
vertex 246.58709769292 16.0976740488757 2.50000000000002
endloop
endfacet
facet normal 1.0 6.23777692695283e-017 1.17762266643058e-015
outer loop
vertex 246.689320214053 16.8741311841833 2.50000000000003
vertex 246.58709769292 16.0976740488757 2.46747067222941e-014
vertex 246.689320214053 16.8741311841833 3.24296145493008e-014
endloop
endfacet
facet normal 0.866025403784441 -0.499999999999996 -3.8045574934182e-015
outer loop
vertex 246.287396425406 15.3741311841833 1.76247905159244e-014
vertex 246.58709769292 16.0976740488757 2.50000000000002
vertex 246.287396425406 15.3741311841833 2.50000000000002
endloop
endfacet
facet normal 0.965925826289067 -0.258819045102526 -1.35980152693506e-015
outer loop
vertex 246.58709769292 16.0976740488757 2.50000000000002
vertex 246.287396425406 15.3741311841833 1.76247905159244e-014
vertex 246.58709769292 16.0976740488757 2.46747067222941e-014
endloop
endfacet
facet normal 0.707106781186547 -0.707106781186548 -5.99003915405356e-015
outer loop
vertex 245.810640557613 14.7528108406237 1.09273701198731e-014
vertex 246.287396425406 15.3741311841833 2.50000000000002
vertex 245.810640557613 14.7528108406236 2.50000000000001
endloop
endfacet
facet normal 0.866025403784441 -0.499999999999996 -3.8045574934182e-015
outer loop
vertex 246.287396425406 15.3741311841833 2.50000000000002
vertex 245.810640557613 14.7528108406237 1.09273701198731e-014
vertex 246.287396425406 15.3741311841833 1.76247905159244e-014
endloop
endfacet
facet normal 1.0 7.57444341129986e-016 1.17265535484579e-015
outer loop
vertex 242.189320214053 16.8741311841833 2.57321941532496e-014
vertex 242.240431474619 16.4859026165295 2.50000000000002
vertex 242.240431474619 16.4859026165295 2.22072360500647e-014
endloop
endfacet
facet normal 0.965925826289069 0.25881904510252 3.62689196957576e-015
outer loop
vertex 242.240431474619 16.4859026165295 2.50000000000002
vertex 242.189320214053 16.8741311841833 2.57321941532496e-014
vertex 242.189320214053 16.8741311841833 2.50000000000003
endloop
endfacet
facet normal 0.965925826289068 0.258819045102521 3.62689196957577e-015
outer loop
vertex 242.240431474619 16.4859026165295 2.22072360500647e-014
vertex 242.390282108376 16.1241311841833 2.50000000000002
vertex 242.390282108376 16.1241311841833 1.86822779468798e-014
endloop
endfacet
facet normal 0.86602540378444 0.499999999999998 5.83396189030152e-015
outer loop
vertex 242.390282108376 16.1241311841833 2.50000000000002
vertex 242.240431474619 16.4859026165295 2.22072360500647e-014
vertex 242.240431474619 16.4859026165295 2.50000000000002
endloop
endfacet
facet normal 0.866025403784439 0.499999999999999 5.83396189030153e-015
outer loop
vertex 242.390282108376 16.1241311841833 1.86822779468798e-014
vertex 242.628660042273 15.8134710124035 2.50000000000002
vertex 242.628660042273 15.8134710124035 1.58623114643319e-014
endloop
endfacet
facet normal 0.707106781186535 0.70710678118656 7.64345694928123e-015
outer loop
vertex 242.628660042273 15.8134710124035 2.50000000000002
vertex 242.390282108376 16.1241311841833 1.86822779468798e-014
vertex 242.390282108376 16.1241311841833 2.50000000000002
endloop
endfacet
facet normal 0.707106781186535 0.70710678118656 7.64345694928124e-015
outer loop
vertex 242.628660042273 15.8134710124035 1.58623114643319e-014
vertex 242.939320214053 15.5750930785066 2.50000000000002
vertex 242.939320214053 15.5750930785066 1.4452328223058e-014
endloop
endfacet
facet normal 0.499999999999993 0.866025403784443 8.93206304857709e-015
outer loop
vertex 242.939320214053 15.5750930785066 2.50000000000002
vertex 242.628660042273 15.8134710124035 1.58623114643319e-014
vertex 242.628660042273 15.8134710124035 2.50000000000002
endloop
endfacet
facet normal 0.499999999999993 0.866025403784443 8.93206304857709e-015
outer loop
vertex 242.939320214053 15.5750930785066 1.4452328223058e-014
vertex 243.301091646399 15.4252424447497 2.50000000000001
vertex 243.301091646399 15.4252424447497 1.3042344981784e-014
endloop
endfacet
facet normal 0.258819045102531 0.965925826289066 9.61196381204455e-015
outer loop
vertex 243.301091646399 15.4252424447497 2.50000000000001
vertex 242.939320214053 15.5750930785066 1.4452328223058e-014
vertex 242.939320214053 15.5750930785066 2.50000000000002
endloop
endfacet
facet normal 0.258819045102531 0.965925826289066 9.61196381204455e-015
outer loop
vertex 243.301091646399 15.4252424447497 2.50000000000001
vertex 243.689320214053 15.3741311841833 1.3042344981784e-014
vertex 243.301091646399 15.4252424447497 1.3042344981784e-014
endloop
endfacet
facet normal 8.01999890608221e-017 1.0 9.63682512624248e-015
outer loop
vertex 243.689320214053 15.3741311841833 1.3042344981784e-014
vertex 243.301091646399 15.4252424447497 2.50000000000001
vertex 243.689320214053 15.3741311841833 2.50000000000001
endloop
endfacet
facet normal 0.965925826289066 -0.258819045102531 -1.36149578441244e-015
outer loop
vertex 242.240431474619 17.2623597518371 2.92571522564344e-014
vertex 242.189320214053 16.8741311841833 2.50000000000003
vertex 242.189320214053 16.8741311841833 2.57321941532496e-014
endloop
endfacet
facet normal 1.0 -7.93088780712574e-016 1.17265535484577e-015
outer loop
vertex 242.189320214053 16.8741311841833 2.50000000000003
vertex 242.240431474619 17.2623597518371 2.92571522564344e-014
vertex 242.240431474619 17.2623597518371 2.50000000000003
endloop
endfacet
facet normal -1.06933318747763e-016 1.0 9.63682512624248e-015
outer loop
vertex 243.689320214053 15.3741311841833 2.50000000000001
vertex 244.077548781707 15.4252424447497 1.3747336602421e-014
vertex 243.689320214053 15.3741311841833 1.3042344981784e-014
endloop
endfacet
facet normal -0.25881904510252 0.965925826289068 9.00495273369348e-015
outer loop
vertex 244.077548781707 15.4252424447497 1.3747336602421e-014
vertex 243.689320214053 15.3741311841833 2.50000000000001
vertex 244.077548781707 15.4252424447497 2.50000000000002
endloop
endfacet
facet normal -0.258819045102521 0.965925826289068 9.00495273369348e-015
outer loop
vertex 244.077548781707 15.4252424447497 2.50000000000002
vertex 244.439320214053 15.5750930785066 1.58623114643319e-014
vertex 244.077548781707 15.4252424447497 1.3747336602421e-014
endloop
endfacet
facet normal -0.499999999999998 0.86602540378444 7.75940769373129e-015
outer loop
vertex 244.439320214053 15.5750930785066 1.58623114643319e-014
vertex 244.077548781707 15.4252424447497 2.50000000000002
vertex 244.439320214053 15.5750930785066 2.50000000000002
endloop
endfacet
facet normal 7.12888791651751e-017 -1.0 -9.63682512624247e-015
outer loop
vertex 243.689320214053 18.3741311841833 4.19470014279e-014
vertex 243.301091646399 18.3230199236169 2.50000000000004
vertex 243.301091646399 18.3230199236169 4.1242009807263e-014
endloop
endfacet
facet normal 0.25881904510252 -0.965925826289068 -9.00495273369348e-015
outer loop
vertex 243.301091646399 18.3230199236169 2.50000000000004
vertex 243.689320214053 18.3741311841833 4.19470014279e-014
vertex 243.689320214053 18.3741311841833 2.50000000000004
endloop
endfacet
facet normal -0.499999999999999 0.866025403784439 7.75940769373128e-015
outer loop
vertex 244.439320214053 15.5750930785066 2.50000000000002
vertex 244.749980385833 15.8134710124035 1.86822779468798e-014
vertex 244.439320214053 15.5750930785066 1.58623114643319e-014
endloop
endfacet
facet normal -0.70710678118656 0.707106781186536 5.98507184246867e-015
outer loop
vertex 244.749980385833 15.8134710124035 1.86822779468798e-014
vertex 244.439320214053 15.5750930785066 2.50000000000002
vertex 244.749980385833 15.8134710124035 2.50000000000002
endloop
endfacet
facet normal -0.866025403784443 0.499999999999992 3.80286323594086e-015
outer loop
vertex 244.98835831973 16.1241311841833 2.50000000000002
vertex 244.749980385833 15.8134710124035 1.86822779468798e-014
vertex 244.749980385833 15.8134710124035 2.50000000000002
endloop
endfacet
facet normal -0.70710678118656 0.707106781186536 5.98507184246867e-015
outer loop
vertex 244.749980385833 15.8134710124035 1.86822779468798e-014
vertex 244.98835831973 16.1241311841833 2.50000000000002
vertex 244.98835831973 16.1241311841833 2.15022444294277e-014
endloop
endfacet
facet normal -0.965925826289066 0.258819045102531 1.36149578441245e-015
outer loop
vertex 245.138208953487 16.4859026165295 2.50000000000003
vertex 244.98835831973 16.1241311841833 2.15022444294277e-014
vertex 244.98835831973 16.1241311841833 2.50000000000002
endloop
endfacet
facet normal -0.866025403784443 0.499999999999993 3.80286323594087e-015
outer loop
vertex 244.98835831973 16.1241311841833 2.15022444294277e-014
vertex 245.138208953487 16.4859026165295 2.50000000000003
vertex 245.138208953487 16.4859026165295 2.57321941532496e-014
endloop
endfacet
facet normal -1.0 -7.93088780712574e-016 -1.17265535484579e-015
outer loop
vertex 245.189320214053 16.8741311841833 2.50000000000003
vertex 245.138208953487 16.4859026165295 2.57321941532496e-014
vertex 245.138208953487 16.4859026165295 2.50000000000003
endloop
endfacet
facet normal -0.965925826289065 0.258819045102532 1.36149578441246e-015
outer loop
vertex 245.138208953487 16.4859026165295 2.57321941532496e-014
vertex 245.189320214053 16.8741311841833 2.50000000000003
vertex 245.189320214053 16.8741311841833 2.92571522564344e-014
endloop
endfacet
facet normal -0.965925826289068 -0.258819045102521 -3.62689196957577e-015
outer loop
vertex 245.138208953487 17.2623597518371 2.50000000000003
vertex 245.189320214053 16.8741311841833 2.92571522564344e-014
vertex 245.189320214053 16.8741311841833 2.50000000000003
endloop
endfacet
facet normal -1.0 7.57444341129986e-016 -1.17265535484577e-015
outer loop
vertex 245.189320214053 16.8741311841833 2.92571522564344e-014
vertex 245.138208953487 17.2623597518371 2.50000000000003
vertex 245.138208953487 17.2623597518371 3.27821103596193e-014
endloop
endfacet
facet normal -0.866025403784439 -0.499999999999999 -5.83396189030153e-015
outer loop
vertex 244.98835831973 17.6241311841833 2.50000000000004
vertex 245.138208953487 17.2623597518371 3.27821103596193e-014
vertex 245.138208953487 17.2623597518371 2.50000000000003
endloop
endfacet
facet normal -0.965925826289069 -0.25881904510252 -3.62689196957576e-015
outer loop
vertex 245.138208953487 17.2623597518371 3.27821103596193e-014
vertex 244.98835831973 17.6241311841833 2.50000000000004
vertex 244.98835831973 17.6241311841833 3.63070684628042e-014
endloop
endfacet
facet normal -0.707106781186535 -0.70710678118656 -7.64345694928124e-015
outer loop
vertex 244.749980385833 17.9347913559631 2.50000000000004
vertex 244.98835831973 17.6241311841833 3.63070684628042e-014
vertex 244.98835831973 17.6241311841833 2.50000000000004
endloop
endfacet
facet normal -0.86602540378444 -0.499999999999998 -5.83396189030152e-015
outer loop
vertex 244.98835831973 17.6241311841833 3.63070684628042e-014
vertex 244.749980385833 17.9347913559631 2.50000000000004
vertex 244.749980385833 17.9347913559631 3.91270349453521e-014
endloop
endfacet
facet normal -0.707106781186535 -0.70710678118656 -7.64345694928124e-015
outer loop
vertex 244.749980385833 17.9347913559631 2.50000000000004
vertex 244.439320214053 18.1731692898599 4.1242009807263e-014
vertex 244.749980385833 17.9347913559631 3.91270349453521e-014
endloop
endfacet
facet normal -0.499999999999993 -0.866025403784443 -8.93206304857708e-015
outer loop
vertex 244.439320214053 18.1731692898599 4.1242009807263e-014
vertex 244.749980385833 17.9347913559631 2.50000000000004
vertex 244.439320214053 18.1731692898599 2.50000000000004
endloop
endfacet
facet normal -0.499999999999992 -0.866025403784443 -8.93206304857709e-015
outer loop
vertex 244.439320214053 18.1731692898599 2.50000000000004
vertex 244.077548781707 18.3230199236169 4.19470014279e-014
vertex 244.439320214053 18.1731692898599 4.1242009807263e-014
endloop
endfacet
facet normal -0.258819045102531 -0.965925826289066 -9.61196381204455e-015
outer loop
vertex 244.077548781707 18.3230199236169 4.19470014279e-014
vertex 244.439320214053 18.1731692898599 2.50000000000004
vertex 244.077548781707 18.3230199236169 2.50000000000004
endloop
endfacet
facet normal -0.258819045102531 -0.965925826289066 -9.61196381204455e-015
outer loop
vertex 244.077548781707 18.3230199236169 2.50000000000004
vertex 243.689320214053 18.3741311841833 4.19470014279e-014
vertex 244.077548781707 18.3230199236169 4.19470014279e-014
endloop
endfacet
facet normal 7.12888791651751e-017 -1.0 -9.63682512624247e-015
outer loop
vertex 243.689320214053 18.3741311841833 4.19470014279e-014
vertex 244.077548781707 18.3230199236169 2.50000000000004
vertex 243.689320214053 18.3741311841833 2.50000000000004
endloop
endfacet
facet normal 0.258819045102521 -0.965925826289068 -9.00495273369348e-015
outer loop
vertex 243.301091646399 18.3230199236169 4.1242009807263e-014
vertex 242.939320214053 18.1731692898599 2.50000000000004
vertex 242.939320214053 18.1731692898599 3.91270349453521e-014
endloop
endfacet
facet normal 0.499999999999998 -0.86602540378444 -7.75940769373129e-015
outer loop
vertex 242.939320214053 18.1731692898599 2.50000000000004
vertex 243.301091646399 18.3230199236169 4.1242009807263e-014
vertex 243.301091646399 18.3230199236169 2.50000000000004
endloop
endfacet
facet normal 0.499999999999999 -0.866025403784439 -7.75940769373128e-015
outer loop
vertex 242.939320214053 18.1731692898599 3.91270349453521e-014
vertex 242.628660042273 17.9347913559631 2.50000000000004
vertex 242.628660042273 17.9347913559631 3.63070684628042e-014
endloop
endfacet
facet normal 0.70710678118656 -0.707106781186536 -5.98507184246867e-015
outer loop
vertex 242.628660042273 17.9347913559631 2.50000000000004
vertex 242.939320214053 18.1731692898599 3.91270349453521e-014
vertex 242.939320214053 18.1731692898599 2.50000000000004
endloop
endfacet
facet normal 0.70710678118656 -0.707106781186535 -5.98507184246866e-015
outer loop
vertex 242.628660042273 17.9347913559631 3.63070684628042e-014
vertex 242.390282108376 17.6241311841833 2.50000000000003
vertex 242.390282108376 17.6241311841833 3.34871019802563e-014
endloop
endfacet
facet normal 0.866025403784442 -0.499999999999993 -3.80286323594087e-015
outer loop
vertex 242.390282108376 17.6241311841833 2.50000000000003
vertex 242.628660042273 17.9347913559631 3.63070684628042e-014
vertex 242.628660042273 17.9347913559631 2.50000000000004
endloop
endfacet
facet normal 0.866025403784443 -0.499999999999992 -3.80286323594086e-015
outer loop
vertex 242.390282108376 17.6241311841833 3.34871019802563e-014
vertex 242.240431474619 17.2623597518371 2.50000000000003
vertex 242.240431474619 17.2623597518371 2.92571522564344e-014
endloop
endfacet
facet normal 0.965925826289065 -0.258819045102532 -1.36149578441246e-015
outer loop
vertex 242.240431474619 17.2623597518371 2.50000000000003
vertex 242.390282108376 17.6241311841833 3.34871019802563e-014
vertex 242.390282108376 17.6241311841833 2.50000000000003
endloop
endfacet
endsolid raspberry_pi
