solid enclosure
facet normal 1.0 2.50212375217063e-014 -6.14866582799636e-016
outer loop
vertex -454.21432847858 979.095765935677 10.5
vertex -454.12232820956 975.595765935677 9.80118857822319
vertex -454.122328209561 979.095765935677 9.80118857822319
endloop
endfacet
facet normal 0.965925826289069 2.41694914039006e-014 0.25881904510252
outer loop
vertex -454.12232820956 975.595765935677 9.80118857822319
vertex -454.21432847858 979.095765935677 10.5
vertex -454.21432847858 975.595765935677 10.5
endloop
endfacet
facet normal 0.965925826289067 2.41688523726639e-014 -0.258819045102524
outer loop
vertex -454.122328209561 979.095765935677 11.1988114217768
vertex -454.21432847858 975.595765935677 10.5
vertex -454.21432847858 979.095765935677 10.5
endloop
endfacet
facet normal 1.0 2.50212375217063e-014 -6.14866582799636e-016
outer loop
vertex -454.21432847858 975.595765935677 10.5
vertex -454.122328209561 979.095765935677 11.1988114217768
vertex -454.12232820956 975.595765935677 11.1988114217768
endloop
endfacet
facet normal 0.866025403784438 2.16704023240809e-014 -0.500000000000002
outer loop
vertex -453.852597068798 979.095765935677 11.85
vertex -454.12232820956 975.595765935677 11.1988114217768
vertex -454.122328209561 979.095765935677 11.1988114217768
endloop
endfacet
facet normal 0.965925826289067 2.41688523726639e-014 -0.258819045102524
outer loop
vertex -454.12232820956 975.595765935677 11.1988114217768
vertex -453.852597068798 979.095765935677 11.85
vertex -453.852597068798 975.595765935677 11.85
endloop
endfacet
facet normal 0.707106781186547 1.76939959456889e-014 -0.707106781186548
outer loop
vertex -453.423516787784 979.095765935677 12.4091883092037
vertex -453.852597068798 975.595765935677 11.85
vertex -453.852597068798 979.095765935677 11.85
endloop
endfacet
facet normal 0.866025403784438 2.16704023240809e-014 -0.500000000000002
outer loop
vertex -453.852597068798 975.595765935677 11.85
vertex -453.423516787784 979.095765935677 12.4091883092037
vertex -453.423516787784 975.595765935677 12.4091883092037
endloop
endfacet
facet normal 0.707106781186547 1.76939959456889e-014 -0.707106781186548
outer loop
vertex -453.423516787784 979.095765935677 12.4091883092037
vertex -452.86432847858 975.595765935677 12.838268590218
vertex -453.423516787784 975.595765935677 12.4091883092037
endloop
endfacet
facet normal 0.499999999999999 1.25108257087447e-014 -0.866025403784439
outer loop
vertex -452.86432847858 975.595765935677 12.838268590218
vertex -453.423516787784 979.095765935677 12.4091883092037
vertex -452.86432847858 979.095765935677 12.838268590218
endloop
endfacet
facet normal 0.499999999999999 1.25108257087447e-014 -0.866025403784439
outer loop
vertex -452.86432847858 979.095765935677 12.838268590218
vertex -452.213139900357 975.595765935677 13.1079997309805
vertex -452.86432847858 975.595765935677 12.838268590218
endloop
endfacet
facet normal 0.25881904510252 6.47565501721674e-015 -0.965925826289069
outer loop
vertex -452.213139900357 975.595765935677 13.1079997309805
vertex -452.86432847858 979.095765935677 12.838268590218
vertex -452.213139900357 979.095765935677 13.1079997309805
endloop
endfacet
facet normal 0.25881904510252 6.47565501721674e-015 -0.965925826289069
outer loop
vertex -452.213139900357 979.095765935677 13.1079997309805
vertex -451.51432847858 975.595765935677 13.2
vertex -452.213139900357 975.595765935677 13.1079997309805
endloop
endfacet
facet normal -4.9011104426058e-016 -2.17961654406974e-019 -1.0
outer loop
vertex -451.51432847858 975.595765935677 13.2
vertex -452.213139900357 979.095765935677 13.1079997309805
vertex -451.51432847858 979.095765935677 13.2
endloop
endfacet
facet normal -4.9011104426058e-016 -2.17961654406974e-019 -1.0
outer loop
vertex -451.51432847858 979.095765935677 13.2
vertex -450.815517056803 975.595765935677 13.1079997309805
vertex -451.51432847858 975.595765935677 13.2
endloop
endfacet
facet normal -0.258819045102521 -6.47587297887116e-015 -0.965925826289068
outer loop
vertex -450.815517056803 975.595765935677 13.1079997309805
vertex -451.51432847858 979.095765935677 13.2
vertex -450.815517056803 979.095765935677 13.1079997309805
endloop
endfacet
facet normal -0.258819045102521 -6.47587297887116e-015 -0.965925826289068
outer loop
vertex -450.815517056803 979.095765935677 13.1079997309805
vertex -450.16432847858 975.595765935677 12.838268590218
vertex -450.815517056803 975.595765935677 13.1079997309805
endloop
endfacet
facet normal -0.5 -1.25108257087447e-014 -0.866025403784439
outer loop
vertex -450.16432847858 975.595765935677 12.838268590218
vertex -450.815517056803 979.095765935677 13.1079997309805
vertex -450.16432847858 979.095765935678 12.838268590218
endloop
endfacet
facet normal 4.81199934364933e-016 -4.24909545980529e-019 1.0
outer loop
vertex -451.51432847858 979.095765935677 7.8
vertex -452.213139900357 975.595765935677 7.89200026901952
vertex -451.51432847858 975.595765935677 7.8
endloop
endfacet
facet normal 0.25881904510252 6.47607992676275e-015 0.965925826289068
outer loop
vertex -452.213139900357 975.595765935677 7.89200026901952
vertex -451.51432847858 979.095765935677 7.8
vertex -452.213139900357 979.095765935677 7.89200026901952
endloop
endfacet
facet normal -0.5 -1.25108257087447e-014 -0.866025403784439
outer loop
vertex -450.16432847858 979.095765935678 12.838268590218
vertex -449.605140169376 975.595765935677 12.4091883092037
vertex -450.16432847858 975.595765935677 12.838268590218
endloop
endfacet
facet normal -0.707106781186545 -1.76929793937927e-014 -0.70710678118655
outer loop
vertex -449.605140169376 975.595765935677 12.4091883092037
vertex -450.16432847858 979.095765935678 12.838268590218
vertex -449.605140169376 979.095765935678 12.4091883092037
endloop
endfacet
facet normal -0.707106781186545 -1.76929793937927e-014 -0.70710678118655
outer loop
vertex -449.605140169376 975.595765935677 12.4091883092037
vertex -449.176059888362 979.095765935678 11.85
vertex -449.176059888362 975.595765935677 11.85
endloop
endfacet
facet normal -0.866025403784439 -2.16693857721848e-014 -0.5
outer loop
vertex -449.176059888362 979.095765935678 11.85
vertex -449.605140169376 975.595765935677 12.4091883092037
vertex -449.605140169376 979.095765935678 12.4091883092037
endloop
endfacet
facet normal -0.866025403784439 -2.16693857721848e-014 -0.5
outer loop
vertex -449.176059888362 975.595765935677 11.85
vertex -448.9063287476 979.095765935678 11.1988114217768
vertex -448.906328747599 975.595765935677 11.1988114217768
endloop
endfacet
facet normal -0.965925826289069 -2.4168852372664e-014 -0.25881904510252
outer loop
vertex -448.9063287476 979.095765935678 11.1988114217768
vertex -449.176059888362 975.595765935677 11.85
vertex -449.176059888362 979.095765935678 11.85
endloop
endfacet
facet normal -0.965925826289069 -2.4168852372664e-014 -0.25881904510252
outer loop
vertex -448.906328747599 975.595765935677 11.1988114217768
vertex -448.81432847858 979.095765935678 10.5
vertex -448.81432847858 975.595765935677 10.5
endloop
endfacet
facet normal -1.0 -2.50216514174895e-014 -1.24755538539057e-016
outer loop
vertex -448.81432847858 979.095765935678 10.5
vertex -448.906328747599 975.595765935677 11.1988114217768
vertex -448.9063287476 979.095765935678 11.1988114217768
endloop
endfacet
facet normal -1.0 -2.50216514174895e-014 -1.24755538539057e-016
outer loop
vertex -448.81432847858 975.595765935677 10.5
vertex -448.9063287476 979.095765935678 9.8011885782232
vertex -448.906328747599 975.595765935677 9.8011885782232
endloop
endfacet
facet normal -0.965925826289069 -2.41692662684471e-014 0.25881904510252
outer loop
vertex -448.9063287476 979.095765935678 9.8011885782232
vertex -448.81432847858 975.595765935677 10.5
vertex -448.81432847858 979.095765935678 10.5
endloop
endfacet
facet normal -0.965925826289069 -2.41692662684471e-014 0.25881904510252
outer loop
vertex -448.906328747599 975.595765935677 9.8011885782232
vertex -449.176059888362 979.095765935678 9.15
vertex -449.176059888362 975.595765935677 9.15
endloop
endfacet
facet normal -0.866025403784439 -2.16693857721848e-014 0.5
outer loop
vertex -449.176059888362 979.095765935678 9.15
vertex -448.906328747599 975.595765935677 9.8011885782232
vertex -448.9063287476 979.095765935678 9.8011885782232
endloop
endfacet
facet normal -0.866025403784439 -2.16693857721848e-014 0.5
outer loop
vertex -449.176059888362 975.595765935677 9.15
vertex -449.605140169376 979.095765935678 8.59081169079632
vertex -449.605140169376 975.595765935677 8.59081169079632
endloop
endfacet
facet normal -0.707106781186546 -1.76943041900166e-014 0.707106781186549
outer loop
vertex -449.605140169376 979.095765935678 8.59081169079632
vertex -449.176059888362 975.595765935677 9.15
vertex -449.176059888362 979.095765935678 9.15
endloop
endfacet
facet normal -0.707106781186546 -1.76943041900166e-014 0.707106781186549
outer loop
vertex -449.605140169376 979.095765935678 8.59081169079632
vertex -450.16432847858 975.595765935677 8.16173140978201
vertex -449.605140169376 975.595765935677 8.59081169079632
endloop
endfacet
facet normal -0.5 -1.25121505049686e-014 0.866025403784439
outer loop
vertex -450.16432847858 975.595765935677 8.16173140978201
vertex -449.605140169376 979.095765935678 8.59081169079632
vertex -450.16432847858 979.095765935678 8.16173140978201
endloop
endfacet
facet normal -0.5 -1.25121505049686e-014 0.866025403784439
outer loop
vertex -450.16432847858 979.095765935678 8.16173140978201
vertex -450.815517056803 975.595765935677 7.89200026901951
vertex -450.16432847858 975.595765935677 8.16173140978201
endloop
endfacet
facet normal -0.258819045102521 -6.47650483630875e-015 0.965925826289068
outer loop
vertex -450.815517056803 975.595765935677 7.89200026901951
vertex -450.16432847858 979.095765935678 8.16173140978201
vertex -450.815517056803 979.095765935677 7.89200026901951
endloop
endfacet
facet normal -0.258819045102521 -6.47650483630875e-015 0.965925826289068
outer loop
vertex -450.815517056803 979.095765935677 7.89200026901951
vertex -451.51432847858 975.595765935677 7.8
vertex -450.815517056803 975.595765935677 7.89200026901951
endloop
endfacet
facet normal 4.81199934364933e-016 -4.24909545980529e-019 1.0
outer loop
vertex -451.51432847858 975.595765935677 7.8
vertex -450.815517056803 979.095765935677 7.89200026901951
vertex -451.51432847858 979.095765935677 7.8
endloop
endfacet
facet normal 0.25881904510252 6.47607992676275e-015 0.965925826289068
outer loop
vertex -452.213139900357 979.095765935677 7.89200026901952
vertex -452.86432847858 975.595765935677 8.16173140978201
vertex -452.213139900357 975.595765935677 7.89200026901952
endloop
endfacet
facet normal 0.500000000000002 1.25108257087448e-014 0.866025403784438
outer loop
vertex -452.86432847858 975.595765935677 8.16173140978201
vertex -452.213139900357 979.095765935677 7.89200026901952
vertex -452.86432847858 979.095765935677 8.16173140978201
endloop
endfacet
facet normal 0.500000000000002 1.25108257087448e-014 0.866025403784438
outer loop
vertex -452.86432847858 979.095765935677 8.16173140978201
vertex -453.423516787784 975.595765935677 8.59081169079632
vertex -452.86432847858 975.595765935677 8.16173140978201
endloop
endfacet
facet normal 0.707106781186548 1.76939959456889e-014 0.707106781186547
outer loop
vertex -453.423516787784 975.595765935677 8.59081169079632
vertex -452.86432847858 979.095765935677 8.16173140978201
vertex -453.423516787784 979.095765935677 8.59081169079632
endloop
endfacet
facet normal 0.866025403784438 2.16710413553175e-014 0.500000000000001
outer loop
vertex -453.852597068798 979.095765935677 9.15
vertex -453.423516787784 975.595765935677 8.59081169079632
vertex -453.423516787784 979.095765935677 8.59081169079632
endloop
endfacet
facet normal 0.707106781186548 1.76939959456889e-014 0.707106781186547
outer loop
vertex -453.423516787784 975.595765935677 8.59081169079632
vertex -453.852597068798 979.095765935677 9.15
vertex -453.852597068798 975.595765935677 9.15
endloop
endfacet
facet normal 0.965925826289069 2.41694914039006e-014 0.25881904510252
outer loop
vertex -454.122328209561 979.095765935677 9.80118857822319
vertex -453.852597068798 975.595765935677 9.15
vertex -453.852597068798 979.095765935677 9.15
endloop
endfacet
facet normal 0.866025403784438 2.16710413553175e-014 0.500000000000001
outer loop
vertex -453.852597068798 975.595765935677 9.15
vertex -454.122328209561 979.095765935677 9.80118857822319
vertex -454.12232820956 975.595765935677 9.80118857822319
endloop
endfacet
facet normal 0.965925826289069 2.41690593205555e-014 -0.25881904510252
outer loop
vertex -454.122328209559 922.595765935677 11.1988114217768
vertex -454.214328478579 919.095765935677 10.5
vertex -454.214328478579 922.595765935677 10.5
endloop
endfacet
facet normal 1.0 2.50216514174895e-014 -1.33666648434704e-016
outer loop
vertex -454.214328478579 919.095765935677 10.5
vertex -454.122328209559 922.595765935677 11.1988114217768
vertex -454.122328209559 919.095765935677 11.1988114217768
endloop
endfacet
facet normal 1.0 2.50216514174895e-014 -1.33666648434704e-016
outer loop
vertex -454.214328478579 922.595765935677 10.5
vertex -454.122328209559 919.095765935677 9.80118857822319
vertex -454.122328209559 922.595765935677 9.80118857822319
endloop
endfacet
facet normal 0.965925826289069 2.41690593205555e-014 0.25881904510252
outer loop
vertex -454.122328209559 919.095765935677 9.80118857822319
vertex -454.214328478579 922.595765935677 10.5
vertex -454.214328478579 919.095765935677 10.5
endloop
endfacet
facet normal 0.965925826289069 2.41690593205555e-014 0.25881904510252
outer loop
vertex -454.122328209559 922.595765935677 9.80118857822319
vertex -453.852597068796 919.095765935677 9.15
vertex -453.852597068797 922.595765935677 9.15
endloop
endfacet
facet normal 0.866025403784438 2.16693857721848e-014 0.500000000000001
outer loop
vertex -453.852597068796 919.095765935677 9.15
vertex -454.122328209559 922.595765935677 9.80118857822319
vertex -454.122328209559 919.095765935677 9.80118857822319
endloop
endfacet
facet normal 0.866025403784438 2.16693857721848e-014 0.500000000000001
outer loop
vertex -453.852597068797 922.595765935677 9.15
vertex -453.423516787782 919.095765935677 8.59081169079632
vertex -453.423516787782 922.595765935677 8.59081169079632
endloop
endfacet
facet normal 0.707106781186546 1.76929793937928e-014 0.707106781186549
outer loop
vertex -453.423516787782 919.095765935677 8.59081169079632
vertex -453.852597068797 922.595765935677 9.15
vertex -453.852597068796 919.095765935677 9.15
endloop
endfacet
facet normal 0.5 1.25108257087447e-014 0.866025403784439
outer loop
vertex -452.864328478579 922.595765935677 8.16173140978201
vertex -453.423516787782 919.095765935677 8.59081169079632
vertex -452.864328478579 919.095765935677 8.16173140978201
endloop
endfacet
facet normal 0.707106781186546 1.76929793937928e-014 0.707106781186549
outer loop
vertex -453.423516787782 919.095765935677 8.59081169079632
vertex -452.864328478579 922.595765935677 8.16173140978201
vertex -453.423516787782 922.595765935677 8.59081169079632
endloop
endfacet
facet normal -4.81199934364933e-016 -1.20404170197982e-029 1.0
outer loop
vertex -451.514328478579 922.595765935677 7.8
vertex -452.213139900355 919.095765935678 7.89200026901951
vertex -451.514328478578 919.095765935678 7.8
endloop
endfacet
facet normal 0.25881904510252 6.47607992676274e-015 0.965925826289069
outer loop
vertex -452.213139900355 919.095765935678 7.89200026901951
vertex -451.514328478579 922.595765935677 7.8
vertex -452.213139900355 922.595765935677 7.89200026901951
endloop
endfacet
facet normal -0.25881904510252 -6.47607992676275e-015 0.965925826289068
outer loop
vertex -450.815517056802 922.595765935677 7.89200026901952
vertex -451.514328478578 919.095765935678 7.8
vertex -450.815517056802 919.095765935678 7.89200026901952
endloop
endfacet
facet normal -4.81199934364933e-016 -1.20404170197982e-029 1.0
outer loop
vertex -451.514328478578 919.095765935678 7.8
vertex -450.815517056802 922.595765935677 7.89200026901952
vertex -451.514328478579 922.595765935677 7.8
endloop
endfacet
facet normal -0.707106781186549 -1.76929793937928e-014 0.707106781186546
outer loop
vertex -449.605140169375 922.595765935677 8.59081169079632
vertex -450.164328478579 919.095765935678 8.16173140978201
vertex -449.605140169375 919.095765935678 8.59081169079632
endloop
endfacet
facet normal -0.5 -1.25108257087447e-014 0.866025403784439
outer loop
vertex -450.164328478579 919.095765935678 8.16173140978201
vertex -449.605140169375 922.595765935677 8.59081169079632
vertex -450.164328478579 922.595765935677 8.16173140978201
endloop
endfacet
facet normal -0.965925826289069 -2.41690593205555e-014 0.25881904510252
outer loop
vertex -448.906328747598 919.095765935678 9.8011885782232
vertex -449.176059888361 922.595765935677 9.15
vertex -449.17605988836 919.095765935678 9.15
endloop
endfacet
facet normal -0.86602540378444 -2.16693857721848e-014 0.499999999999998
outer loop
vertex -449.176059888361 922.595765935677 9.15
vertex -448.906328747598 919.095765935678 9.8011885782232
vertex -448.906328747598 922.595765935677 9.8011885782232
endloop
endfacet
facet normal -0.965925826289069 -2.41690593205556e-014 -0.25881904510252
outer loop
vertex -448.906328747598 919.095765935678 11.1988114217768
vertex -448.814328478579 922.595765935677 10.5
vertex -448.814328478578 919.095765935678 10.5
endloop
endfacet
facet normal -1.0 -2.50216514174895e-014 1.24755538539057e-016
outer loop
vertex -448.814328478579 922.595765935677 10.5
vertex -448.906328747598 919.095765935678 11.1988114217768
vertex -448.906328747598 922.595765935677 11.1988114217768
endloop
endfacet
facet normal -0.707106781186545 -1.76929793937927e-014 -0.70710678118655
outer loop
vertex -449.605140169375 919.095765935678 12.4091883092037
vertex -449.176059888361 922.595765935677 11.85
vertex -449.17605988836 919.095765935678 11.85
endloop
endfacet
facet normal -0.866025403784438 -2.16693857721848e-014 -0.500000000000001
outer loop
vertex -449.176059888361 922.595765935677 11.85
vertex -449.605140169375 919.095765935678 12.4091883092037
vertex -449.605140169375 922.595765935677 12.4091883092037
endloop
endfacet
facet normal -0.258819045102521 -6.47607992676276e-015 -0.965925826289068
outer loop
vertex -450.815517056802 922.595765935677 13.1079997309805
vertex -450.164328478579 919.095765935678 12.838268590218
vertex -450.815517056802 919.095765935678 13.1079997309805
endloop
endfacet
facet normal -0.500000000000001 -1.25108257087448e-014 -0.866025403784438
outer loop
vertex -450.164328478579 919.095765935678 12.838268590218
vertex -450.815517056802 922.595765935677 13.1079997309805
vertex -450.164328478579 922.595765935677 12.838268590218
endloop
endfacet
facet normal 0.25881904510252 6.47607992676273e-015 -0.965925826289069
outer loop
vertex -452.213139900355 922.595765935677 13.1079997309805
vertex -451.514328478578 919.095765935678 13.2
vertex -452.213139900355 919.095765935678 13.1079997309805
endloop
endfacet
facet normal 9.89133198416806e-016 2.47497460962518e-029 -1.0
outer loop
vertex -451.514328478578 919.095765935678 13.2
vertex -452.213139900355 922.595765935677 13.1079997309805
vertex -451.514328478579 922.595765935677 13.2
endloop
endfacet
facet normal 0.707106781186548 1.76929793937928e-014 -0.707106781186547
outer loop
vertex -453.423516787782 922.595765935677 12.4091883092037
vertex -452.864328478579 919.095765935677 12.838268590218
vertex -453.423516787782 919.095765935677 12.4091883092037
endloop
endfacet
facet normal 0.500000000000001 1.25108257087448e-014 -0.866025403784438
outer loop
vertex -452.864328478579 919.095765935677 12.838268590218
vertex -453.423516787782 922.595765935677 12.4091883092037
vertex -452.864328478579 922.595765935677 12.838268590218
endloop
endfacet
facet normal 0.866025403784438 2.16693857721848e-014 -0.500000000000001
outer loop
vertex -453.852597068797 922.595765935677 11.85
vertex -454.122328209559 919.095765935677 11.1988114217768
vertex -454.122328209559 922.595765935677 11.1988114217768
endloop
endfacet
facet normal 0.965925826289069 2.41690593205555e-014 -0.25881904510252
outer loop
vertex -454.122328209559 919.095765935677 11.1988114217768
vertex -453.852597068797 922.595765935677 11.85
vertex -453.852597068796 919.095765935677 11.85
endloop
endfacet
facet normal 0.25881904510252 6.47607992676274e-015 0.965925826289069
outer loop
vertex -452.213139900355 922.595765935677 7.89200026901951
vertex -452.864328478579 919.095765935677 8.16173140978201
vertex -452.213139900355 919.095765935678 7.89200026901951
endloop
endfacet
facet normal 0.5 1.25108257087447e-014 0.866025403784439
outer loop
vertex -452.864328478579 919.095765935677 8.16173140978201
vertex -452.213139900355 922.595765935677 7.89200026901951
vertex -452.864328478579 922.595765935677 8.16173140978201
endloop
endfacet
facet normal 9.89133198416806e-016 2.47497460962518e-029 -1.0
outer loop
vertex -451.514328478579 922.595765935677 13.2
vertex -450.815517056802 919.095765935678 13.1079997309805
vertex -451.514328478578 919.095765935678 13.2
endloop
endfacet
facet normal -0.258819045102521 -6.47607992676276e-015 -0.965925826289068
outer loop
vertex -450.815517056802 919.095765935678 13.1079997309805
vertex -451.514328478579 922.595765935677 13.2
vertex -450.815517056802 922.595765935677 13.1079997309805
endloop
endfacet
facet normal -0.5 -1.25108257087447e-014 0.866025403784439
outer loop
vertex -450.164328478579 922.595765935677 8.16173140978201
vertex -450.815517056802 919.095765935678 7.89200026901952
vertex -450.164328478579 919.095765935678 8.16173140978201
endloop
endfacet
facet normal -0.25881904510252 -6.47607992676275e-015 0.965925826289068
outer loop
vertex -450.815517056802 919.095765935678 7.89200026901952
vertex -450.164328478579 922.595765935677 8.16173140978201
vertex -450.815517056802 922.595765935677 7.89200026901952
endloop
endfacet
facet normal -0.86602540378444 -2.16693857721848e-014 0.499999999999998
outer loop
vertex -449.17605988836 919.095765935678 9.15
vertex -449.605140169375 922.595765935677 8.59081169079632
vertex -449.605140169375 919.095765935678 8.59081169079632
endloop
endfacet
facet normal -0.707106781186549 -1.76929793937928e-014 0.707106781186546
outer loop
vertex -449.605140169375 922.595765935677 8.59081169079632
vertex -449.17605988836 919.095765935678 9.15
vertex -449.176059888361 922.595765935677 9.15
endloop
endfacet
facet normal -1.0 -2.50216514174895e-014 1.24755538539057e-016
outer loop
vertex -448.814328478578 919.095765935678 10.5
vertex -448.906328747598 922.595765935677 9.8011885782232
vertex -448.906328747598 919.095765935678 9.8011885782232
endloop
endfacet
facet normal -0.965925826289069 -2.41690593205555e-014 0.25881904510252
outer loop
vertex -448.906328747598 922.595765935677 9.8011885782232
vertex -448.814328478578 919.095765935678 10.5
vertex -448.814328478579 922.595765935677 10.5
endloop
endfacet
facet normal -0.866025403784438 -2.16693857721848e-014 -0.500000000000001
outer loop
vertex -449.17605988836 919.095765935678 11.85
vertex -448.906328747598 922.595765935677 11.1988114217768
vertex -448.906328747598 919.095765935678 11.1988114217768
endloop
endfacet
facet normal -0.965925826289069 -2.41690593205556e-014 -0.25881904510252
outer loop
vertex -448.906328747598 922.595765935677 11.1988114217768
vertex -449.17605988836 919.095765935678 11.85
vertex -449.176059888361 922.595765935677 11.85
endloop
endfacet
facet normal -0.500000000000001 -1.25108257087448e-014 -0.866025403784438
outer loop
vertex -450.164328478579 922.595765935677 12.838268590218
vertex -449.605140169375 919.095765935678 12.4091883092037
vertex -450.164328478579 919.095765935678 12.838268590218
endloop
endfacet
facet normal -0.707106781186545 -1.76929793937927e-014 -0.70710678118655
outer loop
vertex -449.605140169375 919.095765935678 12.4091883092037
vertex -450.164328478579 922.595765935677 12.838268590218
vertex -449.605140169375 922.595765935677 12.4091883092037
endloop
endfacet
facet normal 0.500000000000001 1.25108257087448e-014 -0.866025403784438
outer loop
vertex -452.864328478579 922.595765935677 12.838268590218
vertex -452.213139900355 919.095765935678 13.1079997309805
vertex -452.864328478579 919.095765935677 12.838268590218
endloop
endfacet
facet normal 0.25881904510252 6.47607992676273e-015 -0.965925826289069
outer loop
vertex -452.213139900355 919.095765935678 13.1079997309805
vertex -452.864328478579 922.595765935677 12.838268590218
vertex -452.213139900355 922.595765935677 13.1079997309805
endloop
endfacet
facet normal 0.707106781186548 1.76929793937928e-014 -0.707106781186547
outer loop
vertex -453.423516787782 922.595765935677 12.4091883092037
vertex -453.852597068796 919.095765935677 11.85
vertex -453.852597068797 922.595765935677 11.85
endloop
endfacet
facet normal 0.866025403784438 2.16693857721848e-014 -0.500000000000001
outer loop
vertex -453.852597068796 919.095765935677 11.85
vertex -453.423516787782 922.595765935677 12.4091883092037
vertex -453.423516787782 919.095765935677 12.4091883092037
endloop
endfacet
facet normal -2.483932796085e-014 1.0 -1.46071133067027e-016
outer loop
vertex -445.014328478579 922.595765935678 2.5
vertex -448.906328747598 922.595765935677 9.8011885782232
vertex -445.014328478579 922.595765935678 20.2
endloop
endfacet
facet normal -2.483932796085e-014 1.0 -1.46071133067027e-016
outer loop
vertex -448.906328747598 922.595765935677 9.8011885782232
vertex -445.014328478579 922.595765935678 2.5
vertex -449.176059888361 922.595765935677 9.15
endloop
endfacet
facet normal -2.483932796085e-014 1.0 -1.46071133067027e-016
outer loop
vertex -449.176059888361 922.595765935677 9.15
vertex -445.014328478579 922.595765935678 2.5
vertex -449.605140169375 922.595765935677 8.59081169079632
endloop
endfacet
facet normal -2.483932796085e-014 1.0 -1.46071133067027e-016
outer loop
vertex -449.605140169375 922.595765935677 8.59081169079632
vertex -445.014328478579 922.595765935678 2.5
vertex -455.014328478579 922.595765935677 2.5
endloop
endfacet
facet normal -2.483932796085e-014 1.0 -1.46071133067027e-016
outer loop
vertex -445.014328478579 922.595765935678 20.2
vertex -448.906328747598 922.595765935677 9.8011885782232
vertex -448.814328478579 922.595765935677 10.5
endloop
endfacet
facet normal -2.483932796085e-014 1.0 -1.46071133067027e-016
outer loop
vertex -449.605140169375 922.595765935677 8.59081169079632
vertex -455.014328478579 922.595765935677 2.5
vertex -450.164328478579 922.595765935677 8.16173140978201
endloop
endfacet
facet normal -2.483932796085e-014 1.0 -1.46071133067027e-016
outer loop
vertex -450.164328478579 922.595765935677 8.16173140978201
vertex -455.014328478579 922.595765935677 2.5
vertex -450.815517056802 922.595765935677 7.89200026901952
endloop
endfacet
facet normal -2.483932796085e-014 1.0 -1.46071133067027e-016
outer loop
vertex -450.815517056802 922.595765935677 7.89200026901952
vertex -455.014328478579 922.595765935677 2.5
vertex -451.514328478579 922.595765935677 7.8
endloop
endfacet
facet normal -2.483932796085e-014 1.0 -1.46071133067027e-016
outer loop
vertex -451.514328478579 922.595765935677 7.8
vertex -455.014328478579 922.595765935677 2.5
vertex -452.213139900355 922.595765935677 7.89200026901951
endloop
endfacet
facet normal -2.483932796085e-014 1.0 -1.46071133067027e-016
outer loop
vertex -452.213139900355 922.595765935677 7.89200026901951
vertex -455.014328478579 922.595765935677 2.5
vertex -452.864328478579 922.595765935677 8.16173140978201
endloop
endfacet
facet normal -2.483932796085e-014 1.0 -1.46071133067027e-016
outer loop
vertex -452.864328478579 922.595765935677 8.16173140978201
vertex -455.014328478579 922.595765935677 2.5
vertex -453.423516787782 922.595765935677 8.59081169079632
endloop
endfacet
facet normal -2.483932796085e-014 1.0 -1.46071133067027e-016
outer loop
vertex -453.423516787782 922.595765935677 8.59081169079632
vertex -455.014328478579 922.595765935677 2.5
vertex -453.852597068797 922.595765935677 9.15
endloop
endfacet
facet normal -2.483932796085e-014 1.0 -1.46071133067027e-016
outer loop
vertex -453.852597068797 922.595765935677 9.15
vertex -455.014328478579 922.595765935677 2.5
vertex -454.122328209559 922.595765935677 9.80118857822319
endloop
endfacet
facet normal -2.483932796085e-014 1.0 -1.46071133067027e-016
outer loop
vertex -454.122328209559 922.595765935677 9.80118857822319
vertex -455.014328478579 922.595765935677 2.5
vertex -454.214328478579 922.595765935677 10.5
endloop
endfacet
facet normal -2.483932796085e-014 1.0 -1.46071133067027e-016
outer loop
vertex -460.714328478579 922.595765935677 0.800000000000005
vertex -455.014328478579 922.595765935677 2.5
vertex -455.014328478579 922.595765935677 0.800000000000004
endloop
endfacet
facet normal -2.483932796085e-014 1.0 -1.46071133067027e-016
outer loop
vertex -445.014328478579 922.595765935678 20.2
vertex -450.164328478579 922.595765935677 12.838268590218
vertex -460.714328478579 922.595765935677 20.2
endloop
endfacet
facet normal -2.483932796085e-014 1.0 -1.46071133067027e-016
outer loop
vertex -450.164328478579 922.595765935677 12.838268590218
vertex -445.014328478579 922.595765935678 20.2
vertex -449.605140169375 922.595765935677 12.4091883092037
endloop
endfacet
facet normal -2.483932796085e-014 1.0 -1.46071133067027e-016
outer loop
vertex -449.605140169375 922.595765935677 12.4091883092037
vertex -445.014328478579 922.595765935678 20.2
vertex -449.176059888361 922.595765935677 11.85
endloop
endfacet
facet normal -2.483932796085e-014 1.0 -1.46071133067027e-016
outer loop
vertex -449.176059888361 922.595765935677 11.85
vertex -445.014328478579 922.595765935678 20.2
vertex -448.906328747598 922.595765935677 11.1988114217768
endloop
endfacet
facet normal -2.483932796085e-014 1.0 -1.46071133067027e-016
outer loop
vertex -448.906328747598 922.595765935677 11.1988114217768
vertex -445.014328478579 922.595765935678 20.2
vertex -448.814328478579 922.595765935677 10.5
endloop
endfacet
facet normal -2.483932796085e-014 1.0 -1.46071133067027e-016
outer loop
vertex -460.714328478579 922.595765935677 20.2
vertex -450.164328478579 922.595765935677 12.838268590218
vertex -450.815517056802 922.595765935677 13.1079997309805
endloop
endfacet
facet normal -2.483932796085e-014 1.0 -1.46071133067027e-016
outer loop
vertex -460.714328478579 922.595765935677 20.2
vertex -450.815517056802 922.595765935677 13.1079997309805
vertex -451.514328478579 922.595765935677 13.2
endloop
endfacet
facet normal -2.483932796085e-014 1.0 -1.46071133067027e-016
outer loop
vertex -460.714328478579 922.595765935677 20.2
vertex -451.514328478579 922.595765935677 13.2
vertex -452.213139900355 922.595765935677 13.1079997309805
endloop
endfacet
facet normal -2.483932796085e-014 1.0 -1.46071133067027e-016
outer loop
vertex -460.714328478579 922.595765935677 20.2
vertex -452.213139900355 922.595765935677 13.1079997309805
vertex -452.864328478579 922.595765935677 12.838268590218
endloop
endfacet
facet normal -2.483932796085e-014 1.0 -1.46071133067027e-016
outer loop
vertex -460.714328478579 922.595765935677 20.2
vertex -452.864328478579 922.595765935677 12.838268590218
vertex -453.423516787782 922.595765935677 12.4091883092037
endloop
endfacet
facet normal -2.483932796085e-014 1.0 -1.46071133067027e-016
outer loop
vertex -460.714328478579 922.595765935677 20.2
vertex -453.423516787782 922.595765935677 12.4091883092037
vertex -453.852597068797 922.595765935677 11.85
endloop
endfacet
facet normal -2.483932796085e-014 1.0 -1.46071133067027e-016
outer loop
vertex -460.714328478579 922.595765935677 20.2
vertex -453.852597068797 922.595765935677 11.85
vertex -454.122328209559 922.595765935677 11.1988114217768
endloop
endfacet
facet normal -2.483932796085e-014 1.0 -1.46071133067027e-016
outer loop
vertex -460.714328478579 922.595765935677 20.2
vertex -454.122328209559 922.595765935677 11.1988114217768
vertex -454.214328478579 922.595765935677 10.5
endloop
endfacet
facet normal -2.483932796085e-014 1.0 -1.46071133067027e-016
outer loop
vertex -460.714328478579 922.595765935677 20.2
vertex -454.214328478579 922.595765935677 10.5
vertex -455.014328478579 922.595765935677 2.5
endloop
endfacet
facet normal -2.483932796085e-014 1.0 -1.46071133067027e-016
outer loop
vertex -460.714328478579 922.595765935677 20.2
vertex -455.014328478579 922.595765935677 2.5
vertex -460.714328478579 922.595765935677 0.800000000000005
endloop
endfacet
facet normal -1.0 -2.50216514174895e-014 0.0
outer loop
vertex -445.014328478579 922.595765935678 20.2
vertex -445.01432847858 972.595765935678 2.5
vertex -445.014328478579 922.595765935678 2.5
endloop
endfacet
facet normal -1.0 -2.50216514174895e-014 0.0
outer loop
vertex -445.01432847858 972.595765935678 2.5
vertex -445.014328478579 922.595765935678 20.2
vertex -445.01432847858 972.595765935678 20.2
endloop
endfacet
facet normal -1.0 -2.50216514174895e-014 0.0
outer loop
vertex -455.014328478579 922.595765935677 2.5
vertex -455.01432847858 972.595765935677 0.800000000000004
vertex -455.014328478579 922.595765935677 0.800000000000004
endloop
endfacet
facet normal -1.0 -2.50216514174895e-014 0.0
outer loop
vertex -455.01432847858 972.595765935677 0.800000000000004
vertex -455.014328478579 922.595765935677 2.5
vertex -455.01432847858 972.595765935677 2.5
endloop
endfacet
facet normal 0.0 0.0 1.0
outer loop
vertex -445.01432847858 972.595765935678 2.5
vertex -455.014328478579 922.595765935677 2.5
vertex -445.014328478579 922.595765935678 2.5
endloop
endfacet
facet normal 0.0 0.0 1.0
outer loop
vertex -455.014328478579 922.595765935677 2.5
vertex -445.01432847858 972.595765935678 2.5
vertex -455.01432847858 972.595765935677 2.5
endloop
endfacet
facet normal 2.50216514174895e-014 -1.0 0.0
outer loop
vertex -442.314328478578 919.095765935678 20.2
vertex -449.17605988836 919.095765935678 11.85
vertex -442.314328478578 919.095765935678 0.8
endloop
endfacet
facet normal 2.50216514174895e-014 -1.0 0.0
outer loop
vertex -449.17605988836 919.095765935678 11.85
vertex -442.314328478578 919.095765935678 20.2
vertex -449.605140169375 919.095765935678 12.4091883092037
endloop
endfacet
facet normal 2.50216514174895e-014 -1.0 0.0
outer loop
vertex -449.605140169375 919.095765935678 12.4091883092037
vertex -442.314328478578 919.095765935678 20.2
vertex -450.164328478579 919.095765935678 12.838268590218
endloop
endfacet
facet normal 2.50216514174895e-014 -1.0 0.0
outer loop
vertex -450.164328478579 919.095765935678 12.838268590218
vertex -442.314328478578 919.095765935678 20.2
vertex -460.714328478578 919.095765935677 20.2
endloop
endfacet
facet normal 2.50216514174895e-014 -1.0 0.0
outer loop
vertex -442.314328478578 919.095765935678 0.8
vertex -449.17605988836 919.095765935678 11.85
vertex -448.906328747598 919.095765935678 11.1988114217768
endloop
endfacet
facet normal 2.50216514174895e-014 -1.0 0.0
outer loop
vertex -442.314328478578 919.095765935678 0.8
vertex -448.906328747598 919.095765935678 11.1988114217768
vertex -448.814328478578 919.095765935678 10.5
endloop
endfacet
facet normal 2.50216514174895e-014 -1.0 0.0
outer loop
vertex -450.164328478579 919.095765935678 12.838268590218
vertex -460.714328478578 919.095765935677 20.2
vertex -450.815517056802 919.095765935678 13.1079997309805
endloop
endfacet
facet normal 2.50216514174895e-014 -1.0 0.0
outer loop
vertex -450.815517056802 919.095765935678 13.1079997309805
vertex -460.714328478578 919.095765935677 20.2
vertex -451.514328478578 919.095765935678 13.2
endloop
endfacet
facet normal 2.50216514174895e-014 -1.0 0.0
outer loop
vertex -451.514328478578 919.095765935678 13.2
vertex -460.714328478578 919.095765935677 20.2
vertex -452.213139900355 919.095765935678 13.1079997309805
endloop
endfacet
facet normal 2.50216514174895e-014 -1.0 0.0
outer loop
vertex -452.213139900355 919.095765935678 13.1079997309805
vertex -460.714328478578 919.095765935677 20.2
vertex -452.864328478579 919.095765935677 12.838268590218
endloop
endfacet
facet normal 2.50216514174895e-014 -1.0 0.0
outer loop
vertex -452.864328478579 919.095765935677 12.838268590218
vertex -460.714328478578 919.095765935677 20.2
vertex -453.423516787782 919.095765935677 12.4091883092037
endloop
endfacet
facet normal 2.50216514174895e-014 -1.0 0.0
outer loop
vertex -453.423516787782 919.095765935677 12.4091883092037
vertex -460.714328478578 919.095765935677 20.2
vertex -453.852597068796 919.095765935677 11.85
endloop
endfacet
facet normal 2.50216514174895e-014 -1.0 0.0
outer loop
vertex -453.852597068796 919.095765935677 11.85
vertex -460.714328478578 919.095765935677 20.2
vertex -454.122328209559 919.095765935677 11.1988114217768
endloop
endfacet
facet normal 2.50216514174895e-014 -1.0 0.0
outer loop
vertex -454.122328209559 919.095765935677 11.1988114217768
vertex -460.714328478578 919.095765935677 20.2
vertex -454.214328478579 919.095765935677 10.5
endloop
endfacet
facet normal 2.50216514174895e-014 -1.0 0.0
outer loop
vertex -442.314328478578 919.095765935678 0.8
vertex -450.164328478579 919.095765935678 8.16173140978201
vertex -460.714328478578 919.095765935677 0.8
endloop
endfacet
facet normal 2.50216514174895e-014 -1.0 0.0
outer loop
vertex -450.164328478579 919.095765935678 8.16173140978201
vertex -442.314328478578 919.095765935678 0.8
vertex -449.605140169375 919.095765935678 8.59081169079632
endloop
endfacet
facet normal 2.50216514174895e-014 -1.0 0.0
outer loop
vertex -449.605140169375 919.095765935678 8.59081169079632
vertex -442.314328478578 919.095765935678 0.8
vertex -449.17605988836 919.095765935678 9.15
endloop
endfacet
facet normal 2.50216514174895e-014 -1.0 0.0
outer loop
vertex -449.17605988836 919.095765935678 9.15
vertex -442.314328478578 919.095765935678 0.8
vertex -448.906328747598 919.095765935678 9.8011885782232
endloop
endfacet
facet normal 2.50216514174895e-014 -1.0 0.0
outer loop
vertex -448.906328747598 919.095765935678 9.8011885782232
vertex -442.314328478578 919.095765935678 0.8
vertex -448.814328478578 919.095765935678 10.5
endloop
endfacet
facet normal 2.50216514174895e-014 -1.0 0.0
outer loop
vertex -460.714328478578 919.095765935677 0.8
vertex -450.164328478579 919.095765935678 8.16173140978201
vertex -450.815517056802 919.095765935678 7.89200026901952
endloop
endfacet
facet normal 2.50216514174895e-014 -1.0 0.0
outer loop
vertex -460.714328478578 919.095765935677 0.8
vertex -450.815517056802 919.095765935678 7.89200026901952
vertex -451.514328478578 919.095765935678 7.8
endloop
endfacet
facet normal 2.50216514174895e-014 -1.0 0.0
outer loop
vertex -460.714328478578 919.095765935677 0.8
vertex -451.514328478578 919.095765935678 7.8
vertex -452.213139900355 919.095765935678 7.89200026901951
endloop
endfacet
facet normal 2.50216514174895e-014 -1.0 0.0
outer loop
vertex -460.714328478578 919.095765935677 0.8
vertex -452.213139900355 919.095765935678 7.89200026901951
vertex -452.864328478579 919.095765935677 8.16173140978201
endloop
endfacet
facet normal 2.50216514174895e-014 -1.0 0.0
outer loop
vertex -460.714328478578 919.095765935677 0.8
vertex -452.864328478579 919.095765935677 8.16173140978201
vertex -453.423516787782 919.095765935677 8.59081169079632
endloop
endfacet
facet normal 2.50216514174895e-014 -1.0 0.0
outer loop
vertex -460.714328478578 919.095765935677 0.8
vertex -453.423516787782 919.095765935677 8.59081169079632
vertex -453.852597068796 919.095765935677 9.15
endloop
endfacet
facet normal 2.50216514174895e-014 -1.0 0.0
outer loop
vertex -460.714328478578 919.095765935677 0.8
vertex -453.852597068796 919.095765935677 9.15
vertex -454.122328209559 919.095765935677 9.80118857822319
endloop
endfacet
facet normal 2.50216514174895e-014 -1.0 0.0
outer loop
vertex -460.714328478578 919.095765935677 0.8
vertex -454.122328209559 919.095765935677 9.80118857822319
vertex -454.214328478579 919.095765935677 10.5
endloop
endfacet
facet normal 2.50216514174895e-014 -1.0 0.0
outer loop
vertex -460.714328478578 919.095765935677 0.8
vertex -454.214328478579 919.095765935677 10.5
vertex -460.714328478578 919.095765935677 20.2
endloop
endfacet
facet normal 1.0 2.50216514174895e-014 0.0
outer loop
vertex -441.51432847858 978.295765935678 20.2
vertex -441.514328478579 919.895765935678 0.8
vertex -441.51432847858 978.295765935678 0.8
endloop
endfacet
facet normal 1.0 2.50216514174895e-014 0.0
outer loop
vertex -441.514328478579 919.895765935678 0.8
vertex -441.51432847858 978.295765935678 20.2
vertex -441.514328478579 919.895765935678 20.2
endloop
endfacet
facet normal -9.55771416323317e-017 -5.00662221890091e-018 -1.0
outer loop
vertex -460.71432847858 978.295765935677 1.76247905159244e-016
vertex -454.21432847858 973.395765935677 4.22994972382185e-015
vertex -460.71432847858 973.395765935677 2.99621438770714e-015
endloop
endfacet
facet normal -9.55771416323317e-017 -5.00662221890091e-018 -1.0
outer loop
vertex -460.714328478579 921.795765935677 3.70120600834412e-015
vertex -442.314328478578 919.895765935678 0.0
vertex -460.714328478578 919.895765935677 4.40619762898109e-016
endloop
endfacet
facet normal -9.55771416323317e-017 -5.00662221890091e-018 -1.0
outer loop
vertex -442.314328478578 919.895765935678 0.0
vertex -460.714328478579 921.795765935677 3.70120600834412e-015
vertex -454.214328478579 921.795765935678 4.0537018186626e-015
endloop
endfacet
facet normal -9.55771416323317e-017 -5.00662221890091e-018 -1.0
outer loop
vertex -442.314328478578 919.895765935678 0.0
vertex -454.214328478579 921.795765935678 4.0537018186626e-015
vertex -442.31432847858 978.295765935678 0.0
endloop
endfacet
facet normal -9.55771416323317e-017 -5.00662221890091e-018 -1.0
outer loop
vertex -442.31432847858 978.295765935678 0.0
vertex -454.214328478579 921.795765935678 4.0537018186626e-015
vertex -454.21432847858 973.395765935677 4.22994972382185e-015
endloop
endfacet
facet normal -9.55771416323317e-017 -5.00662221890091e-018 -1.0
outer loop
vertex -442.31432847858 978.295765935678 0.0
vertex -454.21432847858 973.395765935677 4.22994972382185e-015
vertex -460.71432847858 978.295765935677 1.76247905159244e-016
endloop
endfacet
facet normal 2.50216514174895e-014 -1.0 0.0
outer loop
vertex -445.01432847858 972.595765935678 20.2
vertex -447.357406540415 972.595765935677 12.9
vertex -445.01432847858 972.595765935678 2.5
endloop
endfacet
facet normal 2.50216514174895e-014 -1.0 0.0
outer loop
vertex -447.357406540415 972.595765935677 12.9
vertex -445.01432847858 972.595765935678 20.2
vertex -451.51432847858 972.595765935677 15.3
endloop
endfacet
facet normal 2.50216514174895e-014 -1.0 0.0
outer loop
vertex -451.51432847858 972.595765935677 15.3
vertex -445.01432847858 972.595765935678 20.2
vertex -460.71432847858 972.595765935677 20.2
endloop
endfacet
facet normal 2.50216514174895e-014 -1.0 0.0
outer loop
vertex -451.51432847858 972.595765935677 15.3
vertex -460.71432847858 972.595765935677 20.2
vertex -455.671250416745 972.595765935677 12.9
endloop
endfacet
facet normal 2.50216514174895e-014 -1.0 0.0
outer loop
vertex -455.671250416745 972.595765935677 12.9
vertex -460.71432847858 972.595765935677 20.2
vertex -455.671250416745 972.595765935677 8.1
endloop
endfacet
facet normal 2.50216514174895e-014 -1.0 0.0
outer loop
vertex -445.01432847858 972.595765935678 2.5
vertex -447.357406540415 972.595765935677 8.1
vertex -455.01432847858 972.595765935677 2.5
endloop
endfacet
facet normal 2.50216514174895e-014 -1.0 0.0
outer loop
vertex -447.357406540415 972.595765935677 8.1
vertex -445.01432847858 972.595765935678 2.5
vertex -447.357406540415 972.595765935677 12.9
endloop
endfacet
facet normal 2.50216514174895e-014 -1.0 0.0
outer loop
vertex -455.01432847858 972.595765935677 2.5
vertex -447.357406540415 972.595765935677 8.1
vertex -451.51432847858 972.595765935677 5.7
endloop
endfacet
facet normal 2.50216514174895e-014 -1.0 0.0
outer loop
vertex -455.01432847858 972.595765935677 2.5
vertex -451.51432847858 972.595765935677 5.7
vertex -455.671250416745 972.595765935677 8.1
endloop
endfacet
facet normal 2.50216514174895e-014 -1.0 0.0
outer loop
vertex -455.01432847858 972.595765935677 2.5
vertex -455.671250416745 972.595765935677 8.1
vertex -455.01432847858 972.595765935677 0.800000000000004
endloop
endfacet
facet normal 2.50216514174895e-014 -1.0 0.0
outer loop
vertex -455.01432847858 972.595765935677 0.800000000000004
vertex -455.671250416745 972.595765935677 8.1
vertex -460.71432847858 972.595765935677 0.800000000000003
endloop
endfacet
facet normal 2.50216514174895e-014 -1.0 0.0
outer loop
vertex -460.71432847858 972.595765935677 0.800000000000003
vertex -455.671250416745 972.595765935677 8.1
vertex -460.71432847858 972.595765935677 20.2
endloop
endfacet
facet normal -1.0 -2.50216514174895e-014 0.0
outer loop
vertex -461.514328478578 919.895765935677 20.2
vertex -461.514328478579 921.795765935677 0.800000000000003
vertex -461.514328478578 919.895765935677 0.800000000000001
endloop
endfacet
facet normal -1.0 -2.50216514174895e-014 0.0
outer loop
vertex -461.514328478579 921.795765935677 0.800000000000003
vertex -461.514328478578 919.895765935677 20.2
vertex -461.514328478579 921.795765935677 20.2
endloop
endfacet
facet normal -2.50216514174895e-014 1.0 0.0
outer loop
vertex -442.31432847858 979.095765935678 0.8
vertex -449.176059888362 979.095765935678 9.15
vertex -442.31432847858 979.095765935678 20.2
endloop
endfacet
facet normal -2.50216514174895e-014 1.0 0.0
outer loop
vertex -449.176059888362 979.095765935678 9.15
vertex -442.31432847858 979.095765935678 0.8
vertex -449.605140169376 979.095765935678 8.59081169079632
endloop
endfacet
facet normal -2.50216514174895e-014 1.0 0.0
outer loop
vertex -449.605140169376 979.095765935678 8.59081169079632
vertex -442.31432847858 979.095765935678 0.8
vertex -450.16432847858 979.095765935678 8.16173140978201
endloop
endfacet
facet normal -2.50216514174895e-014 1.0 0.0
outer loop
vertex -450.16432847858 979.095765935678 8.16173140978201
vertex -442.31432847858 979.095765935678 0.8
vertex -460.71432847858 979.095765935677 0.8
endloop
endfacet
facet normal -2.50216514174895e-014 1.0 0.0
outer loop
vertex -442.31432847858 979.095765935678 20.2
vertex -449.176059888362 979.095765935678 9.15
vertex -448.9063287476 979.095765935678 9.8011885782232
endloop
endfacet
facet normal -2.50216514174895e-014 1.0 0.0
outer loop
vertex -442.31432847858 979.095765935678 20.2
vertex -448.9063287476 979.095765935678 9.8011885782232
vertex -448.81432847858 979.095765935678 10.5
endloop
endfacet
facet normal -2.50216514174895e-014 1.0 0.0
outer loop
vertex -450.16432847858 979.095765935678 8.16173140978201
vertex -460.71432847858 979.095765935677 0.8
vertex -450.815517056803 979.095765935677 7.89200026901951
endloop
endfacet
facet normal -2.50216514174895e-014 1.0 0.0
outer loop
vertex -450.815517056803 979.095765935677 7.89200026901951
vertex -460.71432847858 979.095765935677 0.8
vertex -451.51432847858 979.095765935677 7.8
endloop
endfacet
facet normal -2.50216514174895e-014 1.0 0.0
outer loop
vertex -451.51432847858 979.095765935677 7.8
vertex -460.71432847858 979.095765935677 0.8
vertex -452.213139900357 979.095765935677 7.89200026901952
endloop
endfacet
facet normal -2.50216514174895e-014 1.0 0.0
outer loop
vertex -452.213139900357 979.095765935677 7.89200026901952
vertex -460.71432847858 979.095765935677 0.8
vertex -452.86432847858 979.095765935677 8.16173140978201
endloop
endfacet
facet normal -2.50216514174895e-014 1.0 0.0
outer loop
vertex -452.86432847858 979.095765935677 8.16173140978201
vertex -460.71432847858 979.095765935677 0.8
vertex -453.423516787784 979.095765935677 8.59081169079632
endloop
endfacet
facet normal -2.50216514174895e-014 1.0 0.0
outer loop
vertex -453.423516787784 979.095765935677 8.59081169079632
vertex -460.71432847858 979.095765935677 0.8
vertex -453.852597068798 979.095765935677 9.15
endloop
endfacet
facet normal -2.50216514174895e-014 1.0 0.0
outer loop
vertex -453.852597068798 979.095765935677 9.15
vertex -460.71432847858 979.095765935677 0.8
vertex -454.122328209561 979.095765935677 9.80118857822319
endloop
endfacet
facet normal -2.50216514174895e-014 1.0 0.0
outer loop
vertex -454.122328209561 979.095765935677 9.80118857822319
vertex -460.71432847858 979.095765935677 0.8
vertex -454.21432847858 979.095765935677 10.5
endloop
endfacet
facet normal -2.50216514174895e-014 1.0 0.0
outer loop
vertex -442.31432847858 979.095765935678 20.2
vertex -450.16432847858 979.095765935678 12.838268590218
vertex -460.71432847858 979.095765935677 20.2
endloop
endfacet
facet normal -2.50216514174895e-014 1.0 0.0
outer loop
vertex -450.16432847858 979.095765935678 12.838268590218
vertex -442.31432847858 979.095765935678 20.2
vertex -449.605140169376 979.095765935678 12.4091883092037
endloop
endfacet
facet normal -2.50216514174895e-014 1.0 0.0
outer loop
vertex -449.605140169376 979.095765935678 12.4091883092037
vertex -442.31432847858 979.095765935678 20.2
vertex -449.176059888362 979.095765935678 11.85
endloop
endfacet
facet normal -2.50216514174895e-014 1.0 0.0
outer loop
vertex -449.176059888362 979.095765935678 11.85
vertex -442.31432847858 979.095765935678 20.2
vertex -448.9063287476 979.095765935678 11.1988114217768
endloop
endfacet
facet normal -2.50216514174895e-014 1.0 0.0
outer loop
vertex -448.9063287476 979.095765935678 11.1988114217768
vertex -442.31432847858 979.095765935678 20.2
vertex -448.81432847858 979.095765935678 10.5
endloop
endfacet
facet normal -2.50216514174895e-014 1.0 0.0
outer loop
vertex -460.71432847858 979.095765935677 20.2
vertex -450.16432847858 979.095765935678 12.838268590218
vertex -450.815517056803 979.095765935677 13.1079997309805
endloop
endfacet
facet normal -2.50216514174895e-014 1.0 0.0
outer loop
vertex -460.71432847858 979.095765935677 20.2
vertex -450.815517056803 979.095765935677 13.1079997309805
vertex -451.51432847858 979.095765935677 13.2
endloop
endfacet
facet normal -2.50216514174895e-014 1.0 0.0
outer loop
vertex -460.71432847858 979.095765935677 20.2
vertex -451.51432847858 979.095765935677 13.2
vertex -452.213139900357 979.095765935677 13.1079997309805
endloop
endfacet
facet normal -2.50216514174895e-014 1.0 0.0
outer loop
vertex -460.71432847858 979.095765935677 20.2
vertex -452.213139900357 979.095765935677 13.1079997309805
vertex -452.86432847858 979.095765935677 12.838268590218
endloop
endfacet
facet normal -2.50216514174895e-014 1.0 0.0
outer loop
vertex -460.71432847858 979.095765935677 20.2
vertex -452.86432847858 979.095765935677 12.838268590218
vertex -453.423516787784 979.095765935677 12.4091883092037
endloop
endfacet
facet normal -2.50216514174895e-014 1.0 0.0
outer loop
vertex -460.71432847858 979.095765935677 20.2
vertex -453.423516787784 979.095765935677 12.4091883092037
vertex -453.852597068798 979.095765935677 11.85
endloop
endfacet
facet normal -2.50216514174895e-014 1.0 0.0
outer loop
vertex -460.71432847858 979.095765935677 20.2
vertex -453.852597068798 979.095765935677 11.85
vertex -454.122328209561 979.095765935677 11.1988114217768
endloop
endfacet
facet normal -2.50216514174895e-014 1.0 0.0
outer loop
vertex -460.71432847858 979.095765935677 20.2
vertex -454.122328209561 979.095765935677 11.1988114217768
vertex -454.21432847858 979.095765935677 10.5
endloop
endfacet
facet normal -2.50216514174895e-014 1.0 0.0
outer loop
vertex -460.71432847858 979.095765935677 20.2
vertex -454.21432847858 979.095765935677 10.5
vertex -460.71432847858 979.095765935677 0.8
endloop
endfacet
facet normal -1.0 -2.50216514174895e-014 0.0
outer loop
vertex -461.51432847858 973.395765935677 0.800000000000003
vertex -461.51432847858 978.295765935677 20.2
vertex -461.51432847858 978.295765935677 0.800000000000001
endloop
endfacet
facet normal -1.0 -2.50216514174895e-014 0.0
outer loop
vertex -461.51432847858 978.295765935677 20.2
vertex -461.51432847858 973.395765935677 0.800000000000003
vertex -461.51432847858 973.395765935677 20.2
endloop
endfacet
facet normal -0.0 0.0 -1.0
outer loop
vertex -460.71432847858 978.295765935677 21.0
vertex -444.21432847858 973.395765935678 21.0
vertex -460.71432847858 973.395765935677 21.0
endloop
endfacet
facet normal -0.0 0.0 -1.0
outer loop
vertex -460.714328478579 921.795765935677 21.0
vertex -442.314328478578 919.895765935678 21.0
vertex -460.714328478578 919.895765935677 21.0
endloop
endfacet
facet normal -0.0 0.0 -1.0
outer loop
vertex -442.314328478578 919.895765935678 21.0
vertex -460.714328478579 921.795765935677 21.0
vertex -444.214328478579 921.795765935678 21.0
endloop
endfacet
facet normal -0.0 0.0 -1.0
outer loop
vertex -442.314328478578 919.895765935678 21.0
vertex -444.214328478579 921.795765935678 21.0
vertex -442.31432847858 978.295765935678 21.0
endloop
endfacet
facet normal -0.0 0.0 -1.0
outer loop
vertex -442.31432847858 978.295765935678 21.0
vertex -444.214328478579 921.795765935678 21.0
vertex -444.21432847858 973.395765935678 21.0
endloop
endfacet
facet normal -0.0 0.0 -1.0
outer loop
vertex -442.31432847858 978.295765935678 21.0
vertex -444.21432847858 973.395765935678 21.0
vertex -460.71432847858 978.295765935677 21.0
endloop
endfacet
facet normal 1.76929793937928e-014 -0.707106781186549 -0.707106781186546
outer loop
vertex -460.714328478579 921.795765935677 21.0
vertex -445.014328478579 922.595765935678 20.2
vertex -444.214328478579 921.795765935678 21.0
endloop
endfacet
facet normal 1.76929793937928e-014 -0.707106781186549 -0.707106781186546
outer loop
vertex -445.014328478579 922.595765935678 20.2
vertex -460.714328478579 921.795765935677 21.0
vertex -460.714328478579 922.595765935677 20.2
endloop
endfacet
facet normal -0.577350269189612 -0.577350269189641 -0.577350269189625
outer loop
vertex -461.514328478578 919.895765935677 0.800000000000001
vertex -460.714328478578 919.895765935677 4.40619762898109e-016
vertex -460.714328478578 919.095765935677 0.8
endloop
endfacet
facet normal 0.577350269189641 -0.577350269189612 -0.577350269189624
outer loop
vertex -461.51432847858 978.295765935677 20.2
vertex -460.71432847858 979.095765935677 20.2
vertex -460.71432847858 978.295765935677 21.0
endloop
endfacet
facet normal 0.577350269189612 0.577350269189641 -0.577350269189624
outer loop
vertex -461.514328478578 919.895765935677 20.2
vertex -460.714328478578 919.895765935677 21.0
vertex -460.714328478578 919.095765935677 20.2
endloop
endfacet
facet normal -0.577350269189612 -0.577350269189641 -0.577350269189624
outer loop
vertex -442.31432847858 978.295765935678 21.0
vertex -442.31432847858 979.095765935678 20.2
vertex -441.51432847858 978.295765935678 20.2
endloop
endfacet
facet normal 0.577350269189641 -0.577350269189612 -0.577350269189624
outer loop
vertex -461.514328478579 921.795765935677 20.2
vertex -460.714328478579 922.595765935677 20.2
vertex -460.714328478579 921.795765935677 21.0
endloop
endfacet
facet normal 0.707106781186548 1.76929793937928e-014 -0.707106781186547
outer loop
vertex -441.51432847858 978.295765935678 0.8
vertex -442.314328478578 919.895765935678 0.0
vertex -442.31432847858 978.295765935678 0.0
endloop
endfacet
facet normal 0.707106781186548 1.76929793937928e-014 -0.707106781186547
outer loop
vertex -442.314328478578 919.895765935678 0.0
vertex -441.51432847858 978.295765935678 0.8
vertex -441.514328478579 919.895765935678 0.8
endloop
endfacet
facet normal -1.76929793937928e-014 0.707106781186549 -0.707106781186546
outer loop
vertex -445.01432847858 972.595765935678 20.2
vertex -460.71432847858 973.395765935677 21.0
vertex -444.21432847858 973.395765935678 21.0
endloop
endfacet
facet normal -1.76929793937928e-014 0.707106781186549 -0.707106781186546
outer loop
vertex -460.71432847858 973.395765935677 21.0
vertex -445.01432847858 972.595765935678 20.2
vertex -460.71432847858 972.595765935677 20.2
endloop
endfacet
facet normal 1.76929793937928e-014 -0.707106781186549 -0.707106781186546
outer loop
vertex -460.71432847858 978.295765935677 21.0
vertex -442.31432847858 979.095765935678 20.2
vertex -442.31432847858 978.295765935678 21.0
endloop
endfacet
facet normal 1.76929793937928e-014 -0.707106781186549 -0.707106781186546
outer loop
vertex -442.31432847858 979.095765935678 20.2
vertex -460.71432847858 978.295765935677 21.0
vertex -460.71432847858 979.095765935677 20.2
endloop
endfacet
facet normal -0.707106781186548 -1.80843823932397e-014 -0.707106781186547
outer loop
vertex -460.71432847858 973.395765935677 2.99621438770714e-015
vertex -461.51432847858 978.295765935677 0.800000000000001
vertex -460.71432847858 978.295765935677 1.76247905159244e-016
endloop
endfacet
facet normal -0.707106781186548 -1.80843823932397e-014 -0.707106781186547
outer loop
vertex -461.51432847858 978.295765935677 0.800000000000001
vertex -460.71432847858 973.395765935677 2.99621438770714e-015
vertex -461.51432847858 973.395765935677 0.800000000000003
endloop
endfacet
facet normal -0.577350269189612 -0.577350269189641 -0.577350269189625
outer loop
vertex -461.51432847858 973.395765935677 0.800000000000003
vertex -460.71432847858 973.395765935677 2.99621438770714e-015
vertex -460.71432847858 972.595765935677 0.800000000000003
endloop
endfacet
facet normal 0.70710678118653 0.707106781186565 0.0
outer loop
vertex -442.31432847858 979.095765935678 0.8
vertex -441.51432847858 978.295765935678 20.2
vertex -441.51432847858 978.295765935678 0.8
endloop
endfacet
facet normal 0.70710678118653 0.707106781186565 0.0
outer loop
vertex -441.51432847858 978.295765935678 20.2
vertex -442.31432847858 979.095765935678 0.8
vertex -442.31432847858 979.095765935678 20.2
endloop
endfacet
facet normal -0.707106781186565 0.70710678118653 0.0
outer loop
vertex -461.514328478579 921.795765935677 0.800000000000003
vertex -460.714328478579 922.595765935677 20.2
vertex -460.714328478579 922.595765935677 0.800000000000005
endloop
endfacet
facet normal -0.707106781186565 0.70710678118653 0.0
outer loop
vertex -460.714328478579 922.595765935677 20.2
vertex -461.514328478579 921.795765935677 0.800000000000003
vertex -461.514328478579 921.795765935677 20.2
endloop
endfacet
facet normal -0.707106781186549 -1.76929793937928e-014 -0.707106781186546
outer loop
vertex -442.314328478578 919.895765935678 21.0
vertex -441.51432847858 978.295765935678 20.2
vertex -441.514328478579 919.895765935678 20.2
endloop
endfacet
facet normal -0.707106781186549 -1.76929793937928e-014 -0.707106781186546
outer loop
vertex -441.51432847858 978.295765935678 20.2
vertex -442.314328478578 919.895765935678 21.0
vertex -442.31432847858 978.295765935678 21.0
endloop
endfacet
facet normal 0.707106781186549 1.76929793937928e-014 -0.707106781186546
outer loop
vertex -444.21432847858 973.395765935678 21.0
vertex -445.014328478579 922.595765935678 20.2
vertex -445.01432847858 972.595765935678 20.2
endloop
endfacet
facet normal 0.707106781186549 1.76929793937928e-014 -0.707106781186546
outer loop
vertex -445.014328478579 922.595765935678 20.2
vertex -444.21432847858 973.395765935678 21.0
vertex -444.214328478579 921.795765935678 21.0
endloop
endfacet
facet normal 0.577350269189612 0.577350269189641 -0.577350269189625
outer loop
vertex -442.31432847858 979.095765935678 0.8
vertex -441.51432847858 978.295765935678 0.8
vertex -442.31432847858 978.295765935678 0.0
endloop
endfacet
facet normal -0.707106781186548 -1.76917530631901e-014 -0.707106781186547
outer loop
vertex -455.014328478579 922.595765935677 0.800000000000004
vertex -454.21432847858 973.395765935677 4.22994972382185e-015
vertex -454.214328478579 921.795765935678 4.0537018186626e-015
endloop
endfacet
facet normal -0.707106781186548 -1.76917530631901e-014 -0.707106781186547
outer loop
vertex -454.21432847858 973.395765935677 4.22994972382185e-015
vertex -455.014328478579 922.595765935677 0.800000000000004
vertex -455.01432847858 972.595765935677 0.800000000000004
endloop
endfacet
facet normal -0.57735026918964 0.577350269189612 -0.577350269189625
outer loop
vertex -461.514328478579 921.795765935677 0.800000000000003
vertex -460.714328478579 922.595765935677 0.800000000000005
vertex -460.714328478579 921.795765935677 3.70120600834412e-015
endloop
endfacet
facet normal 0.577350269189612 0.577350269189641 -0.577350269189624
outer loop
vertex -460.71432847858 973.395765935677 21.0
vertex -460.71432847858 972.595765935677 20.2
vertex -461.51432847858 973.395765935677 20.2
endloop
endfacet
facet normal -0.577350269189641 0.577350269189612 -0.577350269189624
outer loop
vertex -442.314328478578 919.895765935678 21.0
vertex -441.514328478579 919.895765935678 20.2
vertex -442.314328478578 919.095765935678 20.2
endloop
endfacet
facet normal -0.70710678118653 -0.707106781186565 0.0
outer loop
vertex -461.51432847858 973.395765935677 20.2
vertex -460.71432847858 972.595765935677 0.800000000000003
vertex -460.71432847858 972.595765935677 20.2
endloop
endfacet
facet normal -0.70710678118653 -0.707106781186565 0.0
outer loop
vertex -460.71432847858 972.595765935677 0.800000000000003
vertex -461.51432847858 973.395765935677 20.2
vertex -461.51432847858 973.395765935677 0.800000000000003
endloop
endfacet
facet normal 0.707106781186549 1.76929793937928e-014 -0.707106781186546
outer loop
vertex -460.71432847858 978.295765935677 21.0
vertex -461.51432847858 973.395765935677 20.2
vertex -461.51432847858 978.295765935677 20.2
endloop
endfacet
facet normal 0.707106781186549 1.76929793937928e-014 -0.707106781186546
outer loop
vertex -461.51432847858 973.395765935677 20.2
vertex -460.71432847858 978.295765935677 21.0
vertex -460.71432847858 973.395765935677 21.0
endloop
endfacet
facet normal -1.76851617052571e-014 0.707106781186548 -0.707106781186547
outer loop
vertex -460.714328478579 921.795765935677 3.70120600834412e-015
vertex -455.014328478579 922.595765935677 0.800000000000004
vertex -454.214328478579 921.795765935678 4.0537018186626e-015
endloop
endfacet
facet normal -1.76851617052571e-014 0.707106781186548 -0.707106781186547
outer loop
vertex -455.014328478579 922.595765935677 0.800000000000004
vertex -460.714328478579 921.795765935677 3.70120600834412e-015
vertex -460.714328478579 922.595765935677 0.800000000000005
endloop
endfacet
facet normal 1.78128506180069e-014 -0.707106781186548 -0.707106781186547
outer loop
vertex -455.01432847858 972.595765935677 0.800000000000004
vertex -460.71432847858 973.395765935677 2.99621438770714e-015
vertex -454.21432847858 973.395765935677 4.22994972382185e-015
endloop
endfacet
facet normal 1.78128506180069e-014 -0.707106781186548 -0.707106781186547
outer loop
vertex -460.71432847858 973.395765935677 2.99621438770714e-015
vertex -455.01432847858 972.595765935677 0.800000000000004
vertex -460.71432847858 972.595765935677 0.800000000000003
endloop
endfacet
facet normal -0.577350269189641 0.577350269189612 -0.577350269189625
outer loop
vertex -461.51432847858 978.295765935677 0.800000000000001
vertex -460.71432847858 979.095765935677 0.8
vertex -460.71432847858 978.295765935677 1.76247905159244e-016
endloop
endfacet
facet normal 0.577350269189641 -0.577350269189612 -0.577350269189625
outer loop
vertex -442.314328478578 919.895765935678 0.0
vertex -441.514328478579 919.895765935678 0.8
vertex -442.314328478578 919.095765935678 0.8
endloop
endfacet
facet normal -0.707106781186565 0.70710678118653 0.0
outer loop
vertex -461.51432847858 978.295765935677 0.800000000000001
vertex -460.71432847858 979.095765935677 20.2
vertex -460.71432847858 979.095765935677 0.8
endloop
endfacet
facet normal -0.707106781186565 0.70710678118653 0.0
outer loop
vertex -460.71432847858 979.095765935677 20.2
vertex -461.51432847858 978.295765935677 0.800000000000001
vertex -461.51432847858 978.295765935677 20.2
endloop
endfacet
facet normal -1.76964856068624e-014 0.707106781186548 -0.707106781186547
outer loop
vertex -460.71432847858 978.295765935677 1.76247905159244e-016
vertex -442.31432847858 979.095765935678 0.8
vertex -442.31432847858 978.295765935678 0.0
endloop
endfacet
facet normal -1.76964856068624e-014 0.707106781186548 -0.707106781186547
outer loop
vertex -442.31432847858 979.095765935678 0.8
vertex -460.71432847858 978.295765935677 1.76247905159244e-016
vertex -460.71432847858 979.095765935677 0.8
endloop
endfacet
facet normal 0.707106781186549 1.7679278291567e-014 -0.707106781186546
outer loop
vertex -460.714328478579 921.795765935677 21.0
vertex -461.514328478578 919.895765935677 20.2
vertex -461.514328478579 921.795765935677 20.2
endloop
endfacet
facet normal 0.707106781186549 1.7679278291567e-014 -0.707106781186546
outer loop
vertex -461.514328478578 919.895765935677 20.2
vertex -460.714328478579 921.795765935677 21.0
vertex -460.714328478578 919.895765935677 21.0
endloop
endfacet
facet normal -0.707106781186548 -1.65968912157236e-014 -0.707106781186547
outer loop
vertex -461.514328478578 919.895765935677 0.800000000000001
vertex -460.714328478579 921.795765935677 3.70120600834412e-015
vertex -460.714328478578 919.895765935677 4.40619762898109e-016
endloop
endfacet
facet normal -0.707106781186548 -1.65968912157236e-014 -0.707106781186547
outer loop
vertex -460.714328478579 921.795765935677 3.70120600834412e-015
vertex -461.514328478578 919.895765935677 0.800000000000001
vertex -461.514328478579 921.795765935677 0.800000000000003
endloop
endfacet
facet normal -0.70710678118653 -0.707106781186565 0.0
outer loop
vertex -461.514328478578 919.895765935677 20.2
vertex -460.714328478578 919.095765935677 0.8
vertex -460.714328478578 919.095765935677 20.2
endloop
endfacet
facet normal -0.70710678118653 -0.707106781186565 0.0
outer loop
vertex -460.714328478578 919.095765935677 0.8
vertex -461.514328478578 919.895765935677 20.2
vertex -461.514328478578 919.895765935677 0.800000000000001
endloop
endfacet
facet normal 0.707106781186565 -0.70710678118653 0.0
outer loop
vertex -442.314328478578 919.095765935678 20.2
vertex -441.514328478579 919.895765935678 0.8
vertex -441.514328478579 919.895765935678 20.2
endloop
endfacet
facet normal 0.707106781186565 -0.70710678118653 0.0
outer loop
vertex -441.514328478579 919.895765935678 0.8
vertex -442.314328478578 919.095765935678 20.2
vertex -442.314328478578 919.095765935678 0.8
endloop
endfacet
facet normal 1.76847982299637e-014 -0.707106781186548 -0.707106781186547
outer loop
vertex -460.714328478578 919.095765935677 0.8
vertex -442.314328478578 919.895765935678 0.0
vertex -442.314328478578 919.095765935678 0.8
endloop
endfacet
facet normal 1.76847982299637e-014 -0.707106781186548 -0.707106781186547
outer loop
vertex -442.314328478578 919.895765935678 0.0
vertex -460.714328478578 919.095765935677 0.8
vertex -460.714328478578 919.895765935677 4.40619762898109e-016
endloop
endfacet
facet normal -1.76929793937928e-014 0.707106781186549 -0.707106781186546
outer loop
vertex -460.714328478578 919.095765935677 20.2
vertex -442.314328478578 919.895765935678 21.0
vertex -442.314328478578 919.095765935678 20.2
endloop
endfacet
facet normal -1.76929793937928e-014 0.707106781186549 -0.707106781186546
outer loop
vertex -442.314328478578 919.895765935678 21.0
vertex -460.714328478578 919.095765935677 20.2
vertex -460.714328478578 919.895765935677 21.0
endloop
endfacet
facet normal 2.50216514174895e-014 -1.0 0.0
outer loop
vertex -447.357406540415 972.595765935677 12.9
vertex -447.530611621171 972.595765935677 12.8
vertex -447.357406540415 972.595765935677 8.1
endloop
endfacet
facet normal 2.50216514174895e-014 -1.0 0.0
outer loop
vertex -447.530611621171 972.595765935677 12.8
vertex -447.357406540415 972.595765935677 12.9
vertex -451.51432847858 972.595765935677 15.3
endloop
endfacet
facet normal 2.50216514174895e-014 -1.0 0.0
outer loop
vertex -447.530611621171 972.595765935677 12.8
vertex -451.51432847858 972.595765935677 15.3
vertex -451.51432847858 972.595765935677 15.1
endloop
endfacet
facet normal 2.50216514174895e-014 -1.0 0.0
outer loop
vertex -451.51432847858 972.595765935677 15.1
vertex -451.51432847858 972.595765935677 15.3
vertex -455.671250416745 972.595765935677 12.9
endloop
endfacet
facet normal 2.50216514174895e-014 -1.0 0.0
outer loop
vertex -451.51432847858 972.595765935677 15.1
vertex -455.671250416745 972.595765935677 12.9
vertex -455.498045335988 972.595765935677 12.8
endloop
endfacet
facet normal 2.50216514174895e-014 -1.0 0.0
outer loop
vertex -455.498045335988 972.595765935677 12.8
vertex -455.671250416745 972.595765935677 12.9
vertex -455.498045335988 972.595765935677 8.2
endloop
endfacet
facet normal 2.50216514174895e-014 -1.0 0.0
outer loop
vertex -447.357406540415 972.595765935677 8.1
vertex -447.530611621171 972.595765935677 8.2
vertex -451.51432847858 972.595765935677 5.7
endloop
endfacet
facet normal 2.50216514174895e-014 -1.0 0.0
outer loop
vertex -447.530611621171 972.595765935677 8.2
vertex -447.357406540415 972.595765935677 8.1
vertex -447.530611621171 972.595765935677 12.8
endloop
endfacet
facet normal 2.50216514174895e-014 -1.0 0.0
outer loop
vertex -451.51432847858 972.595765935677 5.7
vertex -447.530611621171 972.595765935677 8.2
vertex -451.51432847858 972.595765935677 5.9
endloop
endfacet
facet normal 2.50216514174895e-014 -1.0 0.0
outer loop
vertex -451.51432847858 972.595765935677 5.7
vertex -451.51432847858 972.595765935677 5.9
vertex -455.498045335988 972.595765935677 8.2
endloop
endfacet
facet normal 2.50216514174895e-014 -1.0 0.0
outer loop
vertex -451.51432847858 972.595765935677 5.7
vertex -455.498045335988 972.595765935677 8.2
vertex -455.671250416745 972.595765935677 8.1
endloop
endfacet
facet normal 2.50216514174895e-014 -1.0 0.0
outer loop
vertex -455.671250416745 972.595765935677 8.1
vertex -455.498045335988 972.595765935677 8.2
vertex -455.671250416745 972.595765935677 12.9
endloop
endfacet
facet normal 2.50216514174895e-014 -1.0 0.0
outer loop
vertex -447.530611621172 975.595765935677 12.8
vertex -449.176059888362 975.595765935677 11.85
vertex -447.530611621172 975.595765935677 8.2
endloop
endfacet
facet normal 2.50216514174895e-014 -1.0 0.0
outer loop
vertex -449.176059888362 975.595765935677 11.85
vertex -447.530611621172 975.595765935677 12.8
vertex -451.51432847858 975.595765935677 15.1
endloop
endfacet
facet normal 2.50216514174895e-014 -1.0 0.0
outer loop
vertex -447.530611621172 975.595765935677 8.2
vertex -449.176059888362 975.595765935677 11.85
vertex -448.906328747599 975.595765935677 11.1988114217768
endloop
endfacet
facet normal 2.50216514174895e-014 -1.0 0.0
outer loop
vertex -447.530611621172 975.595765935677 8.2
vertex -448.906328747599 975.595765935677 11.1988114217768
vertex -448.81432847858 975.595765935677 10.5
endloop
endfacet
facet normal 2.50216514174895e-014 -1.0 0.0
outer loop
vertex -449.176059888362 975.595765935677 11.85
vertex -451.51432847858 975.595765935677 15.1
vertex -449.605140169376 975.595765935677 12.4091883092037
endloop
endfacet
facet normal 2.50216514174895e-014 -1.0 0.0
outer loop
vertex -449.605140169376 975.595765935677 12.4091883092037
vertex -451.51432847858 975.595765935677 15.1
vertex -450.16432847858 975.595765935677 12.838268590218
endloop
endfacet
facet normal 2.50216514174895e-014 -1.0 0.0
outer loop
vertex -450.16432847858 975.595765935677 12.838268590218
vertex -451.51432847858 975.595765935677 15.1
vertex -450.815517056803 975.595765935677 13.1079997309805
endloop
endfacet
facet normal 2.50216514174895e-014 -1.0 0.0
outer loop
vertex -450.815517056803 975.595765935677 13.1079997309805
vertex -451.51432847858 975.595765935677 15.1
vertex -451.51432847858 975.595765935677 13.2
endloop
endfacet
facet normal 2.50216514174895e-014 -1.0 0.0
outer loop
vertex -451.51432847858 975.595765935677 13.2
vertex -451.51432847858 975.595765935677 15.1
vertex -455.498045335988 975.595765935677 12.8
endloop
endfacet
facet normal 2.50216514174895e-014 -1.0 0.0
outer loop
vertex -451.51432847858 975.595765935677 13.2
vertex -455.498045335988 975.595765935677 12.8
vertex -452.213139900357 975.595765935677 13.1079997309805
endloop
endfacet
facet normal 2.50216514174895e-014 -1.0 0.0
outer loop
vertex -452.213139900357 975.595765935677 13.1079997309805
vertex -455.498045335988 975.595765935677 12.8
vertex -452.86432847858 975.595765935677 12.838268590218
endloop
endfacet
facet normal 2.50216514174895e-014 -1.0 0.0
outer loop
vertex -452.86432847858 975.595765935677 12.838268590218
vertex -455.498045335988 975.595765935677 12.8
vertex -453.423516787784 975.595765935677 12.4091883092037
endloop
endfacet
facet normal 2.50216514174895e-014 -1.0 0.0
outer loop
vertex -453.423516787784 975.595765935677 12.4091883092037
vertex -455.498045335988 975.595765935677 12.8
vertex -453.852597068798 975.595765935677 11.85
endloop
endfacet
facet normal 2.50216514174895e-014 -1.0 0.0
outer loop
vertex -453.852597068798 975.595765935677 11.85
vertex -455.498045335988 975.595765935677 12.8
vertex -454.12232820956 975.595765935677 11.1988114217768
endloop
endfacet
facet normal 2.50216514174895e-014 -1.0 0.0
outer loop
vertex -454.12232820956 975.595765935677 11.1988114217768
vertex -455.498045335988 975.595765935677 12.8
vertex -454.21432847858 975.595765935677 10.5
endloop
endfacet
facet normal 2.50216514174895e-014 -1.0 0.0
outer loop
vertex -447.530611621172 975.595765935677 8.2
vertex -449.176059888362 975.595765935677 9.15
vertex -451.51432847858 975.595765935677 5.9
endloop
endfacet
facet normal 2.50216514174895e-014 -1.0 0.0
outer loop
vertex -449.176059888362 975.595765935677 9.15
vertex -447.530611621172 975.595765935677 8.2
vertex -448.906328747599 975.595765935677 9.8011885782232
endloop
endfacet
facet normal 2.50216514174895e-014 -1.0 0.0
outer loop
vertex -448.906328747599 975.595765935677 9.8011885782232
vertex -447.530611621172 975.595765935677 8.2
vertex -448.81432847858 975.595765935677 10.5
endloop
endfacet
facet normal 2.50216514174895e-014 -1.0 0.0
outer loop
vertex -451.51432847858 975.595765935677 5.9
vertex -449.176059888362 975.595765935677 9.15
vertex -449.605140169376 975.595765935677 8.59081169079632
endloop
endfacet
facet normal 2.50216514174895e-014 -1.0 0.0
outer loop
vertex -451.51432847858 975.595765935677 5.9
vertex -449.605140169376 975.595765935677 8.59081169079632
vertex -450.16432847858 975.595765935677 8.16173140978201
endloop
endfacet
facet normal 2.50216514174895e-014 -1.0 0.0
outer loop
vertex -451.51432847858 975.595765935677 5.9
vertex -450.16432847858 975.595765935677 8.16173140978201
vertex -450.815517056803 975.595765935677 7.89200026901951
endloop
endfacet
facet normal 2.50216514174895e-014 -1.0 0.0
outer loop
vertex -451.51432847858 975.595765935677 5.9
vertex -450.815517056803 975.595765935677 7.89200026901951
vertex -451.51432847858 975.595765935677 7.8
endloop
endfacet
facet normal 2.50216514174895e-014 -1.0 0.0
outer loop
vertex -451.51432847858 975.595765935677 5.9
vertex -451.51432847858 975.595765935677 7.8
vertex -452.213139900357 975.595765935677 7.89200026901952
endloop
endfacet
facet normal 2.50216514174895e-014 -1.0 0.0
outer loop
vertex -451.51432847858 975.595765935677 5.9
vertex -452.213139900357 975.595765935677 7.89200026901952
vertex -455.498045335988 975.595765935677 8.2
endloop
endfacet
facet normal 2.50216514174895e-014 -1.0 0.0
outer loop
vertex -455.498045335988 975.595765935677 8.2
vertex -452.213139900357 975.595765935677 7.89200026901952
vertex -452.86432847858 975.595765935677 8.16173140978201
endloop
endfacet
facet normal 2.50216514174895e-014 -1.0 0.0
outer loop
vertex -455.498045335988 975.595765935677 8.2
vertex -452.86432847858 975.595765935677 8.16173140978201
vertex -453.423516787784 975.595765935677 8.59081169079632
endloop
endfacet
facet normal 2.50216514174895e-014 -1.0 0.0
outer loop
vertex -455.498045335988 975.595765935677 8.2
vertex -453.423516787784 975.595765935677 8.59081169079632
vertex -453.852597068798 975.595765935677 9.15
endloop
endfacet
facet normal 2.50216514174895e-014 -1.0 0.0
outer loop
vertex -455.498045335988 975.595765935677 8.2
vertex -453.852597068798 975.595765935677 9.15
vertex -454.12232820956 975.595765935677 9.80118857822319
endloop
endfacet
facet normal 2.50216514174895e-014 -1.0 0.0
outer loop
vertex -455.498045335988 975.595765935677 8.2
vertex -454.12232820956 975.595765935677 9.80118857822319
vertex -454.21432847858 975.595765935677 10.5
endloop
endfacet
facet normal 2.50216514174895e-014 -1.0 0.0
outer loop
vertex -455.498045335988 975.595765935677 8.2
vertex -454.21432847858 975.595765935677 10.5
vertex -455.498045335988 975.595765935677 12.8
endloop
endfacet
facet normal 1.0 2.50216514174895e-014 -0.0
outer loop
vertex -455.498045335988 975.595765935677 12.8
vertex -455.498045335988 972.595765935677 8.2
vertex -455.498045335988 975.595765935677 8.2
endloop
endfacet
facet normal 1.0 2.50216514174895e-014 -0.0
outer loop
vertex -455.498045335988 972.595765935677 8.2
vertex -455.498045335988 975.595765935677 12.8
vertex -455.498045335988 972.595765935677 12.8
endloop
endfacet
facet normal 0.5 1.25108257087447e-014 0.866025403784439
outer loop
vertex -451.51432847858 975.595765935677 5.9
vertex -455.498045335988 972.595765935677 8.2
vertex -451.51432847858 972.595765935677 5.9
endloop
endfacet
facet normal 0.5 1.25108257087447e-014 0.866025403784439
outer loop
vertex -455.498045335988 972.595765935677 8.2
vertex -451.51432847858 975.595765935677 5.9
vertex -455.498045335988 975.595765935677 8.2
endloop
endfacet
facet normal -0.5 -1.25108257087447e-014 0.866025403784439
outer loop
vertex -447.530611621172 975.595765935677 8.2
vertex -451.51432847858 972.595765935677 5.9
vertex -447.530611621171 972.595765935677 8.2
endloop
endfacet
facet normal -0.5 -1.25108257087447e-014 0.866025403784439
outer loop
vertex -451.51432847858 972.595765935677 5.9
vertex -447.530611621172 975.595765935677 8.2
vertex -451.51432847858 975.595765935677 5.9
endloop
endfacet
facet normal -1.0 -2.50216514174895e-014 0.0
outer loop
vertex -447.530611621171 972.595765935677 12.8
vertex -447.530611621172 975.595765935677 8.2
vertex -447.530611621171 972.595765935677 8.2
endloop
endfacet
facet normal -1.0 -2.50216514174895e-014 0.0
outer loop
vertex -447.530611621172 975.595765935677 8.2
vertex -447.530611621171 972.595765935677 12.8
vertex -447.530611621172 975.595765935677 12.8
endloop
endfacet
facet normal -0.500000000000001 -1.25108257087447e-014 -0.866025403784438
outer loop
vertex -451.51432847858 975.595765935677 15.1
vertex -447.530611621171 972.595765935677 12.8
vertex -451.51432847858 972.595765935677 15.1
endloop
endfacet
facet normal -0.500000000000001 -1.25108257087447e-014 -0.866025403784438
outer loop
vertex -447.530611621171 972.595765935677 12.8
vertex -451.51432847858 975.595765935677 15.1
vertex -447.530611621172 975.595765935677 12.8
endloop
endfacet
facet normal 0.5 1.25108257087447e-014 -0.866025403784439
outer loop
vertex -455.498045335988 975.595765935677 12.8
vertex -451.51432847858 972.595765935677 15.1
vertex -455.498045335988 972.595765935677 12.8
endloop
endfacet
facet normal 0.5 1.25108257087447e-014 -0.866025403784439
outer loop
vertex -451.51432847858 972.595765935677 15.1
vertex -455.498045335988 975.595765935677 12.8
vertex -451.51432847858 975.595765935677 15.1
endloop
endfacet
endsolid enclosure
