<?xml version="1.0" standalone="no"?>
<!DOCTYPE svg PUBLIC "-//W3C//DTD SVG 1.1//EN" "http://www.w3.org/Graphics/SVG/1.1/DTD/svg11.dtd">
<svg width="158.0mm" height="135.000000000001mm"
 viewBox="0 0 158.0 135.000000000001"
 xmlns="http://www.w3.org/2000/svg" version="1.1"
 xmlns:xlink="http://www.w3.org/1999/xlink">
<desc>Output from Flights of Ideas SVG Sketchup Plugin</desc>

  <path id="face0-cut"
 style="fill:none;stroke:#0000ff;stroke-width:0.5;stroke-miterlimit:4;stroke-dasharray:none;stroke-linejoin:round;stroke-linecap:round"
        d="M 10.0,125.000000000001 L 146.0,125.000000000001 L 148.0,123.0 L 148.0,11.9999999999999 L 146.0,10.0 L 10.0000000000004,10.0000000000001 L 10.0,125.000000000001 M 105.499891560894,28.7000008962111 L 105.292836324812,28.6727415572423 L 105.099891560894,28.5928212192386 L 104.934206135945,28.4656863211603 L 104.807071237867,28.300000896211 L 104.727150899863,28.1070561322931 L 104.699891560894,27.9000008962111 L 104.727150899863,27.692945660129 L 104.807071237867,27.500000896211 L 104.934206135945,27.3343154712618 L 105.099891560894,27.2071805731835 L 105.292836324812,27.1272602351798 L 105.499891560894,27.100000896211 L 105.706946796976,27.1272602351798 L 105.899891560894,27.2071805731835 L 106.065576985843,27.3343154712618 L 106.192711883922,27.5000008962111 L 106.272632221925,27.692945660129 L 106.299891560894,27.9000008962111 L 106.272632221925,28.1070561322931 L 106.192711883922,28.3000008962111 L 106.065576985843,28.4656863211603 L 105.899891560894,28.5928212192386 L 105.706946796976,28.6727415572423 L 105.499891560894,28.7000008962111 M 105.899891560894,49.7071805731835 L 106.065576985843,49.8343154712618 L 106.192711883922,50.000000896211 L 106.272632221925,50.192945660129 L 106.299891560894,50.400000896211 L 106.272632221925,50.607056132293 L 106.192711883922,50.800000896211 L 106.065576985843,50.9656863211602 L 105.899891560894,51.0928212192386 L 105.706946796976,51.1727415572423 L 105.499891560894,51.200000896211 L 105.292836324812,51.1727415572423 L 105.099891560894,51.0928212192385 L 104.934206135945,50.9656863211602 L 104.807071237867,50.800000896211 L 104.727150899863,50.6070561322931 L 104.699891560894,50.400000896211 L 104.727150899863,50.192945660129 L 104.807071237867,50.000000896211 L 104.934206135945,49.8343154712618 L 105.099891560894,49.7071805731835 L 105.292836324812,49.6272602351797 L 105.499891560894,49.600000896211 L 105.706946796976,49.6272602351797 L 105.899891560894,49.7071805731835 M 139.434206135945,49.8343154712618 L 139.599891560894,49.7071805731835 L 139.792836324812,49.6272602351797 L 139.999891560894,49.600000896211 L 140.206946796976,49.6272602351798 L 140.399891560894,49.7071805731836 L 140.565576985843,49.8343154712618 L 140.692711883922,50.000000896211 L 140.772632221925,50.192945660129 L 140.799891560894,50.400000896211 L 140.772632221925,50.6070561322931 L 140.692711883922,50.800000896211 L 140.565576985843,50.9656863211603 L 140.399891560894,51.0928212192386 L 140.206946796976,51.1727415572423 L 139.999891560894,51.200000896211 L 139.792836324812,51.1727415572423 L 139.599891560894,51.0928212192386 L 139.434206135945,50.9656863211603 L 139.307071237867,50.800000896211 L 139.227150899863,50.607056132293 L 139.199891560894,50.400000896211 L 139.227150899863,50.192945660129 L 139.307071237867,50.000000896211 L 139.434206135945,49.8343154712618 M 140.399891560894,28.5928212192386 L 140.206946796976,28.6727415572423 L 139.999891560894,28.700000896211 L 139.792836324812,28.6727415572423 L 139.599891560894,28.5928212192386 L 139.434206135945,28.4656863211603 L 139.307071237867,28.300000896211 L 139.227150899863,28.1070561322931 L 139.199891560894,27.9000008962111 L 139.227150899863,27.692945660129 L 139.307071237867,27.500000896211 L 139.434206135945,27.3343154712618 L 139.599891560894,27.2071805731836 L 139.792836324812,27.1272602351798 L 139.999891560894,27.100000896211 L 140.206946796976,27.1272602351798 L 140.399891560894,27.2071805731835 L 140.565576985843,27.3343154712618 L 140.692711883922,27.5000008962111 L 140.772632221925,27.692945660129 L 140.799891560894,27.900000896211 L 140.772632221925,28.1070561322931 L 140.692711883922,28.300000896211 L 140.565576985843,28.4656863211603 L 140.399891560894,28.5928212192386 M 91.687374151462,57.776591283897 L 91.4803189153799,57.8038506228658 L 91.2732636792979,57.7765912838971 L 91.08031891538,57.6966709458933 L 90.9146334904307,57.569536047815 L 90.7874985923524,57.4038506228658 L 90.7075782543487,57.2109058589478 L 90.68031891538,57.0038506228658 L 90.7075782543487,56.7967953867838 L 90.7874985923524,56.6038506228658 L 90.9146334904307,56.4381651979166 L 91.08031891538,56.3110302998382 L 91.2732636792979,56.2311099618345 L 91.4803189153799,56.2038506228657 L 91.687374151462,56.2311099618345 L 91.8803189153799,56.3110302998382 L 92.0460043403292,56.4381651979165 L 92.1731392384075,56.6038506228658 L 92.2530595764112,56.7967953867837 L 92.28031891538,57.0038506228658 L 92.2530595764112,57.2109058589477 L 92.1731392384075,57.4038506228657 L 92.0460043403292,57.5695360478149 L 91.8803189153799,57.6966709458933 L 91.687374151462,57.776591283897 M 91.2732636792982,106.776591283897 L 91.0803189153802,106.696670945893 L 90.914633490431,106.569536047815 L 90.7874985923526,106.403850622866 L 90.7075782543489,106.210905858948 L 90.6803189153802,106.003850622866 L 90.7075782543489,105.796795386784 L 90.7874985923526,105.603850622866 L 90.914633490431,105.438165197916 L 91.0803189153802,105.311030299838 L 91.2732636792982,105.231109961834 L 91.4803189153802,105.203850622866 L 91.6873741514622,105.231109961834 L 91.8803189153802,105.311030299838 L 92.0460043403294,105.438165197916 L 92.1731392384077,105.603850622866 L 92.2530595764115,105.796795386784 L 92.2803189153802,106.003850622866 L 92.2530595764115,106.210905858948 L 92.1731392384077,106.403850622866 L 92.0460043403294,106.569536047815 L 91.8803189153802,106.696670945893 L 91.6873741514622,106.776591283897 L 91.4803189153802,106.803850622866 L 91.2732636792982,106.776591283897 M 33.08031891538,106.696670945893 L 32.9146334904308,106.569536047815 L 32.7874985923524,106.403850622866 L 32.7075782543488,106.210905858948 L 32.68031891538,106.003850622866 L 32.7075782543488,105.796795386784 L 32.7874985923524,105.603850622866 L 32.9146334904308,105.438165197917 L 33.08031891538,105.311030299838 L 33.273263679298,105.231109961835 L 33.48031891538,105.203850622866 L 33.687374151462,105.231109961835 L 33.88031891538,105.311030299838 L 34.0460043403292,105.438165197917 L 34.1731392384075,105.603850622866 L 34.2530595764113,105.796795386784 L 34.28031891538,106.003850622866 L 34.2530595764113,106.210905858948 L 34.1731392384075,106.403850622866 L 34.0460043403292,106.569536047815 L 33.88031891538,106.696670945893 L 33.687374151462,106.776591283897 L 33.48031891538,106.803850622866 L 33.273263679298,106.776591283897 L 33.08031891538,106.696670945893 M 33.48031891538,57.8038506228659 L 33.273263679298,57.7765912838972 L 33.08031891538,57.6966709458935 L 32.9146334904307,57.5695360478151 L 32.7874985923524,57.4038506228659 L 32.7075782543487,57.2109058589479 L 32.68031891538,57.0038506228659 L 32.7075782543487,56.7967953867839 L 32.7874985923524,56.6038506228659 L 32.9146334904307,56.4381651979167 L 33.08031891538,56.3110302998384 L 33.2732636792979,56.2311099618347 L 33.48031891538,56.2038506228659 L 33.687374151462,56.2311099618347 L 33.88031891538,56.3110302998384 L 34.0460043403292,56.4381651979167 L 34.1731392384075,56.6038506228659 L 34.2530595764112,56.7967953867839 L 34.28031891538,57.0038506228659 L 34.2530595764113,57.2109058589479 L 34.1731392384075,57.4038506228659 L 34.0460043403292,57.5695360478152 L 33.88031891538,57.6966709458935 L 33.687374151462,57.7765912838972 L 33.48031891538,57.8038506228659 M 141.414110472164,20.5454813220626 L 141.0,20.6 L 140.585889527836,20.5454813220626 L 140.2,20.3856406460552 L 139.868629150101,20.1313708498986 L 139.614359353945,19.8000000000001 L 139.454518677937,19.4141104721641 L 139.4,19.0000000000001 L 139.454518677937,18.585889527836 L 139.614359353945,18.2000000000001 L 139.868629150101,17.8686291501016 L 140.2,17.614359353945 L 140.585889527836,17.4545186779376 L 141.0,17.4 L 141.414110472164,17.4545186779375 L 141.8,17.614359353945 L 142.131370849898,17.8686291501016 L 142.385640646055,18.2000000000001 L 142.545481322062,18.585889527836 L 142.6,19.0000000000001 L 142.545481322062,19.4141104721641 L 142.385640646055,19.8 L 142.131370849898,20.1313708498985 L 141.8,20.3856406460552 L 141.414110472164,20.5454813220626 M 140.2,114.614359353932 L 140.585889527836,114.454518677925 L 141.0,114.399999999987 L 141.414110472164,114.454518677925 L 141.8,114.614359353932 L 142.131370849899,114.868629150089 L 142.385640646055,115.199999999987 L 142.545481322063,115.585889527823 L 142.6,115.999999999987 L 142.545481322063,116.414110472151 L 142.385640646055,116.799999999987 L 142.131370849899,117.131370849886 L 141.8,117.385640646042 L 141.414110472164,117.54548132205 L 141.0,117.599999999987 L 140.585889527836,117.54548132205 L 140.2,117.385640646043 L 139.868629150102,117.131370849886 L 139.614359353945,116.799999999987 L 139.454518677938,116.414110472151 L 139.4,115.999999999987 L 139.454518677938,115.585889527823 L 139.614359353945,115.199999999987 L 139.868629150102,114.868629150089 L 140.2,114.614359353932 M 13.2,20.3856406460552 L 12.8686291501016,20.1313708498986 L 12.6143593539449,19.8000000000001 L 12.4545186779376,19.4141104721641 L 12.4,19.0000000000001 L 12.4545186779376,18.5858895278361 L 12.6143593539449,18.2000000000001 L 12.8686291501016,17.8686291501017 L 13.2,17.614359353945 L 13.585889527836,17.4545186779376 L 14.0,17.4000000000001 L 14.4141104721641,17.4545186779376 L 14.8,17.614359353945 L 15.1313708498985,17.8686291501016 L 15.3856406460552,18.2000000000001 L 15.5454813220626,18.585889527836 L 15.6,19.0000000000001 L 15.5454813220626,19.4141104721641 L 15.3856406460552,19.8000000000001 L 15.1313708498985,20.1313708498986 L 14.8,20.3856406460552 L 14.4141104721641,20.5454813220626 L 14.0,20.6000000000001 L 13.585889527836,20.5454813220626 L 13.2,20.3856406460552 M 12.6143593539454,115.2 L 12.868629150102,114.868629150102 L 13.2000000000005,114.614359353945 L 13.5858895278364,114.454518677938 L 14.0000000000005,114.4 L 14.4141104721645,114.454518677938 L 14.8000000000005,114.614359353945 L 15.131370849899,114.868629150102 L 15.3856406460555,115.200000000001 L 15.545481322063,115.585889527837 L 15.6000000000005,116.000000000001 L 15.545481322063,116.414110472165 L 15.3856406460555,116.800000000001 L 15.131370849899,117.131370849899 L 14.8000000000005,117.385640646056 L 14.4141104721645,117.545481322063 L 14.0000000000005,117.6 L 13.5858895278364,117.545481322063 L 13.2000000000005,117.385640646055 L 12.868629150102,117.131370849899 L 12.6143593539454,116.8 L 12.454518677938,116.414110472164 L 12.4000000000005,116.0 L 12.454518677938,115.585889527836 L 12.6143593539454,115.2 M 93.0,100.000000000001 L 92.3338970066939,99.9958138407071 L 91.6750571122708,99.8976266972633 L 91.0366789762225,99.7074055705806 L 90.4315513439116,99.4289611951036 L 89.871796847309,99.0678716976738 L 89.3686291501015,98.6313708498992 L 88.9321283023269,98.1282031526917 L 88.571038804897,97.568448656089 L 88.29259442942,96.9633210237781 L 88.1023733027372,96.3249428877298 L 88.0041861592934,95.6661029933068 L 87.9999999999998,95.0000000000006 L 88.0,68.0000000000007 L 88.0609869012649,67.3542602791232 L 88.2024349963087,66.7212582051509 L 88.4221130350216,66.1109789669721 L 88.7165557416938,65.5330493157754 L 89.0811184774469,64.9965857094189 L 89.5100505063387,64.5100505063394 L 89.9965857094181,64.0811184774476 L 90.5330493157747,63.7165557416946 L 91.1109789669713,63.4221130350223 L 91.7212582051501,63.2024349963094 L 92.3542602791224,63.0609869012656 L 92.9999999999999,63.0000000000006 L 123.0,63.0000000000006 L 123.6526309611,63.0427756931315 L 124.294095225513,63.1703708685552 L 124.913417161825,63.3806023374441 L 125.5,63.6698729810783 L 126.043807145044,64.0332332985444 L 126.535533905933,64.4644660940678 L 126.966766701456,64.9561928549569 L 127.330127018922,65.5000000000006 L 127.619397662556,66.0865828381751 L 127.829629131445,66.705904774488 L 127.957224306869,67.3473690389003 L 128.0,68.0000000000006 L 128.0,95.0000000000006 L 127.957224306869,95.6526309611009 L 127.829629131445,96.2940952255133 L 127.619397662556,96.9134171618262 L 127.330127018922,97.5000000000007 L 126.966766701456,98.0438071450442 L 126.535533905933,98.5355339059333 L 126.043807145044,98.9667667014568 L 125.5,99.3301270189229 L 124.913417161825,99.6193976625571 L 124.294095225513,99.8296291314462 L 123.6526309611,99.9572243068699 L 123.0,100.000000000001 L 93.0,100.000000000001 M 39.2426406871194,39.2426406871193 L 38.0000000000001,40.1961524227068 L 36.5529142706152,40.7955549577344 L 35.0000000000001,41.0 L 33.447085729385,40.7955549577345 L 32.0000000000001,40.1961524227067 L 30.7573593128808,39.2426406871194 L 29.8038475772935,38.0000000000001 L 29.2044450422657,36.5529142706152 L 29.0000000000002,35.0000000000001 L 29.2044450422658,33.4470857293849 L 29.8038475772936,32.0000000000001 L 30.7573593128809,30.7573593128808 L 32.0000000000002,29.8038475772934 L 33.4470857293851,29.2044450422656 L 35.0000000000002,29.0000000000001 L 36.5529142706153,29.2044450422656 L 38.0000000000002,29.8038475772935 L 39.2426406871195,30.7573593128808 L 40.1961524227069,32.0 L 40.7955549577346,33.447085729385 L 41.0000000000001,35.0000000000001 L 40.7955549577345,36.5529142706152 L 40.1961524227067,38.0 L 39.2426406871194,39.2426406871193 M 58.4470857293851,29.2044450422657 L 60.0000000000002,29.0000000000001 L 61.5529142706153,29.2044450422656 L 63.0000000000002,29.8038475772934 L 64.2426406871195,30.7573593128808 L 65.1961524227069,32.0000000000001 L 65.7955549577346,33.447085729385 L 66.0000000000003,35.0000000000001 L 65.7955549577346,36.5529142706152 L 65.1961524227068,38.0000000000001 L 64.2426406871194,39.2426406871194 L 63.0000000000001,40.1961524227067 L 61.5529142706152,40.7955549577345 L 60.0000000000001,41.0000000000001 L 58.4470857293849,40.7955549577345 L 57.0000000000001,40.1961524227067 L 55.7573593128808,39.2426406871194 L 54.8038475772934,38.0 L 54.2044450422657,36.5529142706151 L 54.0000000000001,35.0 L 54.2044450422658,33.4470857293849 L 54.8038475772936,32.0 L 55.7573593128809,30.7573593128808 L 57.0000000000002,29.8038475772934 L 58.4470857293851,29.2044450422657 M 85.0,41.0 L 83.4470857293849,40.7955549577344 L 82.0,40.1961524227067 L 80.7573593128808,39.2426406871193 L 79.8038475772936,38.0 L 79.2044450422658,36.5529142706152 L 79.0000000000002,35.0000000000001 L 79.2044450422658,33.4470857293849 L 79.8038475772934,32.0 L 80.7573593128808,30.7573593128808 L 82.0000000000001,29.8038475772934 L 83.447085729385,29.2044450422656 L 85.0000000000001,29.0 L 86.5529142706152,29.2044450422656 L 88.0000000000001,29.8038475772934 L 89.2426406871194,30.7573593128808 L 90.1961524227067,32.0 L 90.7955549577346,33.4470857293849 L 91.0000000000002,35.0000000000001 L 90.7955549577346,36.5529142706153 L 90.1961524227068,38.0 L 89.2426406871193,39.2426406871193 L 88.0000000000001,40.1961524227066 L 86.5529142706152,40.7955549577344 L 85.0,41.0 M 63.0000000000002,72.696152422707 L 61.5529142706153,73.2955549577348 L 60.0000000000002,73.5000000000004 L 58.447085729385,73.2955549577348 L 57.0000000000002,72.696152422707 L 55.7573593128807,71.7426406871196 L 54.8038475772934,70.5000000000004 L 54.2044450422657,69.0529142706155 L 54.0000000000002,67.5000000000004 L 54.2044450422657,65.9470857293852 L 54.8038475772935,64.5000000000003 L 55.7573593128809,63.257359312881 L 57.0,62.3038475772937 L 58.4470857293849,61.7044450422659 L 60.0,61.5000000000003 L 61.5529142706151,61.7044450422659 L 63.0,62.3038475772937 L 64.2426406871195,63.2573593128811 L 65.1961524227068,64.5000000000003 L 65.7955549577346,65.9470857293853 L 66.0000000000001,67.5000000000004 L 65.7955549577346,69.0529142706155 L 65.1961524227068,70.5000000000004 L 64.2426406871195,71.7426406871197 L 63.0000000000002,72.696152422707 M 33.4470857293849,73.2955549577348 L 32.0000000000001,72.696152422707 L 30.7573593128808,71.7426406871197 L 29.8038475772935,70.5000000000004 L 29.2044450422658,69.0529142706155 L 29.0000000000002,67.5000000000004 L 29.2044450422658,65.9470857293853 L 29.8038475772935,64.5000000000003 L 30.7573593128809,63.2573593128811 L 32.0,62.3038475772937 L 33.4470857293849,61.7044450422659 L 35.0000000000001,61.5000000000004 L 36.5529142706152,61.7044450422659 L 38.0000000000001,62.3038475772937 L 39.2426406871194,63.257359312881 L 40.1961524227068,64.5000000000003 L 40.7955549577346,65.9470857293852 L 41.0000000000002,67.5000000000004 L 40.7955549577346,69.0529142706155 L 40.1961524227067,70.5000000000004 L 39.2426406871193,71.7426406871197 L 38.0000000000001,72.696152422707 L 36.5529142706152,73.2955549577348 L 35.0000000000001,73.5000000000004 L 33.4470857293849,73.2955549577348 M 57.0,94.803847577294 L 58.4470857293849,94.2044450422662 L 60.0,94.0000000000007 L 61.5529142706151,94.2044450422662 L 63.0,94.803847577294 L 64.2426406871193,95.7573593128813 L 65.1961524227066,97.0000000000007 L 65.7955549577344,98.4470857293855 L 66.0000000000001,100.000000000001 L 65.7955549577345,101.552914270616 L 65.1961524227068,103.000000000001 L 64.2426406871194,104.24264068712 L 63.0000000000002,105.196152422707 L 61.5529142706152,105.795554957735 L 60.0000000000001,106.000000000001 L 58.447085729385,105.795554957735 L 57.0000000000001,105.196152422707 L 55.7573593128808,104.24264068712 L 54.8038475772935,103.000000000001 L 54.2044450422657,101.552914270616 L 54.0000000000001,100.000000000001 L 54.2044450422656,98.4470857293855 L 54.8038475772934,97.0000000000007 L 55.7573593128808,95.7573593128813 L 57.0,94.803847577294 "
  />
</svg>
