<?xml version="1.0" standalone="no"?>
<!DOCTYPE svg PUBLIC "-//W3C//DTD SVG 1.1//EN" "http://www.w3.org/Graphics/SVG/1.1/DTD/svg11.dtd">
<svg width="158.0mm" height="42.0000000000001mm"
 viewBox="0 0 158.0 42.0000000000001"
 xmlns="http://www.w3.org/2000/svg" version="1.1"
 xmlns:xlink="http://www.w3.org/1999/xlink">
<desc>Output from Flights of Ideas SVG Sketchup Plugin</desc>

  <path id="face0-cut"
 style="fill:none;stroke:#0000ff;stroke-width:0.5;stroke-miterlimit:4;stroke-dasharray:none;stroke-linejoin:round;stroke-linecap:round"
        d="M 10.0,10.0 L 10.0000000000001,32.0 L 148.0,32.0000000000001 L 148.0,10.0 L 10.0,10.0 M 14.4141104721641,22.5454813220626 L 14.0,22.6000000000001 L 13.585889527836,22.5454813220626 L 13.2,22.3856406460552 L 12.8686291501016,22.1313708498986 L 12.6143593539449,21.8000000000001 L 12.4545186779376,21.4141104721641 L 12.4,21.0000000000001 L 12.4545186779376,20.5858895278361 L 12.6143593539449,20.2000000000001 L 12.8686291501016,19.8686291501016 L 13.2,19.614359353945 L 13.585889527836,19.4545186779376 L 14.0,19.4000000000001 L 14.4141104721641,19.4545186779376 L 14.8,19.614359353945 L 15.1313708498985,19.8686291501016 L 15.3856406460551,20.2000000000001 L 15.5454813220626,20.5858895278361 L 15.6000000000001,21.0000000000001 L 15.5454813220626,21.4141104721642 L 15.3856406460552,21.8000000000001 L 15.1313708498985,22.1313708498986 L 14.8000000000001,22.3856406460552 L 14.4141104721641,22.5454813220626 M 141.414110472164,22.5454813220625 L 141.0,22.6 L 140.585889527836,22.5454813220627 L 140.2,22.3856406460551 L 139.868629150101,22.1313708498987 L 139.614359353945,21.8000000000003 L 139.454518677937,21.4141104721642 L 139.4,21.0000000000002 L 139.454518677937,20.5858895278364 L 139.614359353945,20.2 L 139.868629150101,19.8686291501017 L 140.2,19.6143593539451 L 140.585889527836,19.4545186779376 L 141.0,19.4000000000002 L 141.414110472164,19.4545186779376 L 141.8,19.614359353945 L 142.131370849898,19.8686291501017 L 142.385640646055,20.2000000000002 L 142.545481322062,20.5858895278362 L 142.6,21.0000000000001 L 142.545481322062,21.4141104721641 L 142.385640646055,21.8 L 142.131370849898,22.1313708498988 L 141.8,22.3856406460553 L 141.414110472164,22.5454813220625 "
  />
</svg>
