<?xml version="1.0" standalone="no"?>
<!DOCTYPE svg PUBLIC "-//W3C//DTD SVG 1.1//EN" "http://www.w3.org/Graphics/SVG/1.1/DTD/svg11.dtd">
<svg width="158.000000000001mm" height="135.000000000002mm"
 viewBox="0 0 158.000000000001 135.000000000002"
 xmlns="http://www.w3.org/2000/svg" version="1.1"
 xmlns:xlink="http://www.w3.org/1999/xlink">
<desc>Output from Flights of Ideas SVG Sketchup Plugin</desc>

  <path id="face0-cut"
 style="fill:none;stroke:#0000ff;stroke-width:0.5;stroke-miterlimit:4;stroke-dasharray:none;stroke-linejoin:round;stroke-linecap:round"
        d="M 10.0,10.0 L 10.0000000000005,125.0 L 146.0,125.000000000002 L 148.0,123.000000000002 L 148.000000000001,11.9999999999975 L 146.000000000001,10.0 L 10.0,10.0 M 141.0,114.4 L 141.414110472164,114.454518677938 L 141.8,114.614359353945 L 142.131370849898,114.868629150102 L 142.385640646055,115.2 L 142.545481322062,115.585889527836 L 142.6,116.0 L 142.545481322062,116.414110472164 L 142.385640646055,116.8 L 142.131370849898,117.131370849899 L 141.8,117.385640646055 L 141.414110472164,117.545481322063 L 141.0,117.6 L 140.585889527835,117.545481322063 L 140.2,117.385640646055 L 139.868629150101,117.131370849899 L 139.614359353945,116.8 L 139.454518677938,116.414110472164 L 139.4,116.0 L 139.454518677938,115.585889527836 L 139.614359353945,115.2 L 139.868629150102,114.868629150102 L 140.2,114.614359353945 L 140.585889527836,114.454518677938 L 141.0,114.4 M 140.585889527836,20.5454813220756 L 140.2,20.3856406460684 L 139.868629150102,20.1313708499117 L 139.614359353945,19.8000000000133 L 139.454518677938,19.4141104721774 L 139.4,19.0000000000132 L 139.454518677938,18.5858895278492 L 139.614359353945,18.2000000000133 L 139.868629150102,17.8686291501149 L 140.2,17.6143593539584 L 140.585889527836,17.4545186779507 L 141.0,17.4000000000135 L 141.414110472164,17.454518677951 L 141.8,17.6143593539583 L 142.131370849899,17.8686291501148 L 142.385640646055,18.2000000000135 L 142.545481322063,18.5858895278492 L 142.6,19.0000000000136 L 142.545481322063,19.4141104721777 L 142.385640646055,19.8000000000135 L 142.131370849899,20.1313708499119 L 141.8,20.3856406460685 L 141.414110472164,20.5454813220762 L 141.0,20.6000000000134 L 140.585889527836,20.5454813220756 M 12.8686291501016,114.868629150102 L 13.2,114.614359353945 L 13.585889527836,114.454518677938 L 14.0,114.4 L 14.4141104721641,114.454518677938 L 14.8,114.614359353945 L 15.1313708498985,114.868629150102 L 15.3856406460551,115.2 L 15.5454813220626,115.585889527836 L 15.6,116.0 L 15.5454813220625,116.414110472164 L 15.3856406460551,116.8 L 15.1313708498985,117.131370849899 L 14.8,117.385640646055 L 14.4141104721641,117.545481322063 L 14.0,117.6 L 13.5858895278361,117.545481322063 L 13.2,117.385640646055 L 12.8686291501015,117.131370849899 L 12.614359353945,116.8 L 12.4545186779375,116.414110472164 L 12.4,116.0 L 12.4545186779375,115.585889527836 L 12.614359353945,115.2 L 12.8686291501016,114.868629150102 M 12.868629150102,20.1313708498987 L 12.6143593539455,19.8000000000002 L 12.454518677938,19.4141104721643 L 12.4000000000006,19.0000000000002 L 12.454518677938,18.5858895278362 L 12.6143593539455,18.2000000000002 L 12.868629150102,17.8686291501018 L 13.2000000000006,17.6143593539452 L 13.5858895278365,17.4545186779377 L 14.0000000000006,17.4000000000002 L 14.4141104721646,17.4545186779376 L 14.8000000000006,17.614359353945 L 15.131370849899,17.8686291501016 L 15.3856406460557,18.2000000000001 L 15.545481322063,18.5858895278361 L 15.6000000000006,19.0000000000001 L 15.545481322063,19.4141104721642 L 15.3856406460556,19.8000000000001 L 15.131370849899,20.1313708498985 L 14.8000000000006,20.3856406460552 L 14.4141104721647,20.5454813220627 L 14.0000000000006,20.6000000000002 L 13.5858895278365,20.5454813220628 L 13.2000000000006,20.3856406460553 L 12.868629150102,20.1313708498987 M 89.2426406871197,104.24264068712 L 88.0000000000003,105.196152422707 L 86.5529142706155,105.795554957735 L 85.0000000000004,106.0 L 83.4470857293853,105.795554957735 L 82.0000000000003,105.196152422707 L 80.7573593128811,104.24264068712 L 79.8038475772937,103.0 L 79.2044450422659,101.552914270616 L 79.0000000000004,100.0 L 79.204445042266,98.4470857293853 L 79.8038475772937,97.0000000000003 L 80.7573593128811,95.7573593128811 L 82.0000000000003,94.8038475772937 L 83.4470857293853,94.2044450422659 L 85.0000000000004,94.0000000000003 L 86.5529142706155,94.2044450422658 L 88.0000000000004,94.8038475772937 L 89.2426406871197,95.757359312881 L 90.1961524227071,97.0000000000003 L 90.7955549577348,98.4470857293852 L 91.0000000000004,100.0 L 90.7955549577348,101.552914270615 L 90.196152422707,103.0 L 89.2426406871197,104.24264068712 M 57.0000000000005,94.8038475772937 L 58.4470857293853,94.2044450422659 L 60.0000000000004,94.0000000000002 L 61.5529142706155,94.2044450422658 L 63.0000000000004,94.8038475772936 L 64.2426406871197,95.7573593128809 L 65.1961524227071,97.0000000000003 L 65.7955549577348,98.4470857293851 L 66.0000000000005,100.0 L 65.7955549577349,101.552914270615 L 65.1961524227071,103.0 L 64.2426406871197,104.24264068712 L 63.0000000000004,105.196152422707 L 61.5529142706156,105.795554957735 L 60.0000000000004,106.0 L 58.4470857293853,105.795554957735 L 57.0000000000004,105.196152422707 L 55.7573593128811,104.24264068712 L 54.8038475772938,103.0 L 54.204445042266,101.552914270615 L 54.0000000000004,100.0 L 54.204445042266,98.4470857293852 L 54.8038475772938,97.0000000000003 L 55.7573593128811,95.7573593128811 L 57.0000000000005,94.8038475772937 M 32.0000000000005,94.8038475772937 L 33.4470857293853,94.204445042266 L 35.0000000000005,94.0000000000003 L 36.5529142706155,94.2044450422659 L 38.0000000000004,94.8038475772937 L 39.2426406871197,95.7573593128811 L 40.1961524227071,97.0000000000003 L 40.7955549577349,98.4470857293852 L 41.0000000000004,100.0 L 40.7955549577349,101.552914270616 L 40.1961524227071,103.0 L 39.2426406871197,104.24264068712 L 38.0000000000005,105.196152422707 L 36.5529142706156,105.795554957735 L 35.0000000000002,106.0 L 33.4470857293854,105.795554957735 L 32.0000000000005,105.196152422707 L 30.7573593128812,104.24264068712 L 29.8038475772938,103.0 L 29.2044450422661,101.552914270616 L 29.0000000000005,100.0 L 29.204445042266,98.4470857293853 L 29.8038475772938,97.0000000000003 L 30.7573593128811,95.7573593128811 L 32.0000000000005,94.8038475772937 M 86.552914270615,61.7044450422657 L 87.9999999999998,62.3038475772934 L 89.242640687119,63.2573593128808 L 90.1961524227065,64.5000000000001 L 90.7955549577348,65.9470857293849 L 91.0000000000003,67.5000000000001 L 90.7955549577348,69.0529142706152 L 90.196152422707,70.5 L 89.2426406871197,71.7426406871193 L 88.0000000000003,72.6961524227067 L 86.5529142706155,73.2955549577344 L 85.0000000000004,73.5000000000001 L 83.4470857293853,73.2955549577345 L 82.0000000000003,72.6961524227067 L 80.7573593128811,71.7426406871194 L 79.8038475772938,70.5000000000001 L 79.204445042266,69.0529142706152 L 79.0000000000003,67.5000000000001 L 79.204445042266,65.947085729385 L 79.8038475772931,64.5000000000001 L 80.7573593128806,63.2573593128808 L 81.9999999999998,62.3038475772935 L 83.4470857293846,61.7044450422657 L 84.9999999999998,61.5000000000001 L 86.552914270615,61.7044450422657 M 57.0000000000003,62.3038475772934 L 58.4470857293848,61.7044450422656 L 59.9999999999998,61.5 L 61.552914270615,61.7044450422656 L 62.9999999999998,62.3038475772933 L 64.2426406871191,63.2573593128807 L 65.1961524227065,64.4999999999999 L 65.7955549577348,65.9470857293849 L 66.0000000000004,67.5 L 65.7955549577348,69.0529142706151 L 65.196152422707,70.5 L 64.2426406871197,71.7426406871192 L 63.0000000000003,72.6961524227066 L 61.5529142706155,73.2955549577344 L 60.0000000000004,73.5 L 58.4470857293853,73.2955549577344 L 57.0000000000001,72.6961524227066 L 55.7573593128809,71.7426406871193 L 54.8038475772938,70.5 L 54.204445042266,69.0529142706151 L 54.0000000000003,67.5 L 54.2044450422659,65.9470857293849 L 54.8038475772938,64.5000000000001 L 55.7573593128811,63.2573593128808 L 57.0000000000003,62.3038475772934 M 32.0000000000001,72.6961524227067 L 30.7573593128808,71.7426406871193 L 29.8038475772938,70.5 L 29.2044450422659,69.0529142706151 L 29.0000000000003,67.5 L 29.2044450422659,65.9470857293849 L 29.8038475772937,64.5000000000001 L 30.757359312881,63.2573593128808 L 32.0000000000003,62.3038475772934 L 33.4470857293852,61.7044450422656 L 35.0000000000003,61.5 L 36.5529142706155,61.7044450422657 L 38.0000000000003,62.3038475772934 L 39.2426406871196,63.2573593128808 L 40.1961524227069,64.5000000000001 L 40.7955549577347,65.947085729385 L 41.0000000000003,67.5000000000001 L 40.7955549577347,69.0529142706152 L 40.196152422707,70.5 L 39.2426406871194,71.7426406871193 L 38.0000000000001,72.6961524227067 L 36.5529142706152,73.2955549577344 L 35.0000000000001,73.5 L 33.447085729385,73.2955549577344 L 32.0000000000001,72.6961524227067 M 82.0000000000003,29.8038475772933 L 83.4470857293852,29.2044450422655 L 85.0000000000003,28.9999999999999 L 86.5529142706154,29.2044450422655 L 88.0000000000003,29.8038475772933 L 89.2426406871196,30.7573593128807 L 90.1961524227069,32.0 L 90.7955549577347,33.4470857293849 L 91.0000000000003,34.9999999999999 L 90.7955549577347,36.552914270615 L 90.1961524227069,37.9999999999999 L 89.2426406871196,39.2426406871192 L 88.0000000000002,40.1961524227065 L 86.5529142706154,40.7955549577342 L 85.0000000000002,40.9999999999998 L 83.4470857293851,40.7955549577342 L 82.0000000000002,40.1961524227065 L 80.757359312881,39.242640687119 L 79.8038475772937,37.9999999999998 L 79.2044450422659,36.5529142706149 L 79.0000000000003,34.9999999999998 L 79.2044450422659,33.4470857293846 L 79.8038475772936,31.9999999999998 L 80.757359312881,30.7573593128807 L 82.0000000000003,29.8038475772933 M 60.0000000000003,28.9999999999998 L 61.5529142706155,29.2044450422653 L 63.0000000000003,29.8038475772932 L 64.2426406871196,30.7573593128806 L 65.196152422707,31.9999999999999 L 65.7955549577347,33.4470857293847 L 66.0000000000003,34.9999999999998 L 65.7955549577347,36.5529142706148 L 65.1961524227068,37.9999999999998 L 64.2426406871195,39.242640687119 L 63.0000000000002,40.1961524227063 L 61.5529142706153,40.7955549577341 L 60.0000000000003,40.9999999999997 L 58.4470857293851,40.7955549577341 L 57.0000000000001,40.1961524227064 L 55.7573593128807,39.2426406871192 L 54.8038475772934,37.9999999999999 L 54.2044450422656,36.552914270615 L 54.0000000000003,34.9999999999999 L 54.2044450422659,33.4470857293848 L 54.8038475772937,32.0 L 55.757359312881,30.7573593128806 L 57.0000000000003,29.8038475772932 L 58.4470857293852,29.2044450422653 L 60.0000000000003,28.9999999999998 M 30.757359312881,30.7573593128806 L 32.0000000000003,29.8038475772933 L 33.4470857293852,29.2044450422655 L 35.0000000000003,28.9999999999999 L 36.5529142706154,29.2044450422655 L 38.0000000000003,29.8038475772933 L 39.2426406871196,30.7573593128806 L 40.1961524227069,31.9999999999998 L 40.7955549577347,33.4470857293847 L 41.0000000000003,34.9999999999998 L 40.7955549577345,36.5529142706149 L 40.1961524227066,37.9999999999998 L 39.2426406871193,39.2426406871192 L 38.0,40.1961524227065 L 36.5529142706151,40.7955549577343 L 35.0,40.9999999999999 L 33.4470857293849,40.7955549577342 L 32.0000000000001,40.1961524227064 L 30.7573593128807,39.2426406871191 L 29.8038475772934,37.9999999999999 L 29.2044450422656,36.5529142706149 L 29.0000000000003,34.9999999999999 L 29.2044450422659,33.4470857293848 L 29.8038475772937,32.0 L 30.757359312881,30.7573593128806 M 143.0,91.0000000000003 L 143.0,99.0000000000003 L 142.931851652578,99.5176380902053 L 142.847759065022,99.7653668647304 L 142.732050807569,100.0 L 142.586706680582,100.217522858018 L 142.414213562373,100.414213562373 L 142.217522858017,100.586706680583 L 142.0,100.732050807569 L 141.76536686473,100.847759065023 L 141.517638090205,100.931851652578 L 141.0,101.0 L 125.0,101.0 L 124.482361909795,100.931851652579 L 124.23463313527,100.847759065023 L 124.0,100.732050807569 L 123.782477141982,100.586706680583 L 123.585786437627,100.414213562374 L 123.413293319417,100.217522858018 L 123.267949192431,100.0 L 123.152240934977,99.7653668647306 L 123.068148347422,99.5176380902054 L 123.0,99.0000000000005 L 123.0,91.0000000000005 L 123.068148347422,90.4823619097954 L 123.152240934977,90.2346331352702 L 123.267949192431,90.0000000000005 L 123.413293319417,89.782477141983 L 123.585786437627,89.5857864376274 L 123.782477141982,89.4132933194181 L 124.0,89.2679491924316 L 124.23463313527,89.1522409349779 L 124.482361909795,89.0681483474223 L 125.0,89.0000000000005 L 141.0,89.0000000000003 L 141.517638090205,89.0681483474221 L 141.76536686473,89.1522409349777 L 142.0,89.2679491924314 L 142.217522858017,89.4132933194178 L 142.414213562373,89.5857864376272 L 142.586706680582,89.7824771419829 L 142.732050807569,90.0000000000003 L 142.847759065022,90.23463313527 L 142.931851652578,90.4823619097952 L 143.0,91.0000000000003 "
  />
</svg>
