solid slot_guide
facet normal 1.0 1.61044605861444e-015 2.80103723950855e-015
outer loop
vertex 54.5162349796812 158.76319343596 4.10255578236858
vertex 54.5162349796812 158.76319343596 4.59744421763168
vertex 54.5162349796812 158.737919321462 4.35000000000013
endloop
endfacet
facet normal 1.0 1.61044605861444e-015 2.80103723950855e-015
outer loop
vertex 54.5162349796812 158.76319343596 4.59744421763168
vertex 54.5162349796812 158.76319343596 4.10255578236858
vertex 54.5162349796812 158.837971958958 3.86533100667872
endloop
endfacet
facet normal 1.0 1.61044605861444e-015 2.80103723950855e-015
outer loop
vertex 54.5162349796812 158.76319343596 4.59744421763168
vertex 54.5162349796812 158.837971958958 3.86533100667872
vertex 54.5162349796812 158.837971958958 4.83466899332154
endloop
endfacet
facet normal 1.0 1.61044605861444e-015 2.80103723950855e-015
outer loop
vertex 54.5162349796812 158.837971958958 4.83466899332154
vertex 54.5162349796812 158.837971958958 3.86533100667872
vertex 54.5162349796812 158.959166538741 3.64812305209545
endloop
endfacet
facet normal 1.0 1.61044605861444e-015 2.80103723950855e-015
outer loop
vertex 54.5162349796812 158.837971958958 4.83466899332154
vertex 54.5162349796812 158.959166538741 3.64812305209545
vertex 54.5162349796812 158.959166538741 5.05187694790481
endloop
endfacet
facet normal 1.0 1.61044605861444e-015 2.80103723950855e-015
outer loop
vertex 54.5162349796812 158.959166538741 5.05187694790481
vertex 54.5162349796812 158.959166538741 3.64812305209545
vertex 54.5162349796812 159.121771841243 3.45990260341545
endloop
endfacet
facet normal 1.0 1.61044605861444e-015 2.80103723950855e-015
outer loop
vertex 54.5162349796812 158.959166538741 5.05187694790481
vertex 54.5162349796812 159.121771841243 3.45990260341545
vertex 54.5162349796812 159.121771841243 5.24009739658481
endloop
endfacet
facet normal 1.0 1.61044605861444e-015 2.80103723950855e-015
outer loop
vertex 54.5162349796812 159.121771841243 5.24009739658481
vertex 54.5162349796812 159.121771841243 3.45990260341545
vertex 54.5162349796812 159.31907227026 3.30844316193911
endloop
endfacet
facet normal 1.0 1.61044605861444e-015 2.80103723950855e-015
outer loop
vertex 54.5162349796812 159.121771841243 5.24009739658481
vertex 54.5162349796812 159.31907227026 3.30844316193911
vertex 54.5162349796812 159.31907227026 5.39155683806115
endloop
endfacet
facet normal 1.0 1.61044605861444e-015 2.80103723950855e-015
outer loop
vertex 54.5162349796812 159.31907227026 5.39155683806115
vertex 54.5162349796812 159.31907227026 3.30844316193911
vertex 54.5162349796812 159.542919321462 3.20000000000013
endloop
endfacet
facet normal 1.0 1.61044605861444e-015 2.80103723950855e-015
outer loop
vertex 54.5162349796812 159.31907227026 5.39155683806115
vertex 54.5162349796812 159.542919321462 3.20000000000013
vertex 54.5162349796812 159.542919321462 5.50000000000013
endloop
endfacet
facet normal 1.0 1.61044605861444e-015 2.80103723950855e-015
outer loop
vertex 54.5162349796812 159.542919321462 5.50000000000013
vertex 54.5162349796812 159.542919321462 3.20000000000013
vertex 54.5162349796812 159.542919321462 2.00000000000013
endloop
endfacet
facet normal 1.0 1.61044605861444e-015 2.80103723950855e-015
outer loop
vertex 54.5162349796812 159.542919321462 5.50000000000013
vertex 54.5162349796812 159.542919321462 2.00000000000013
vertex 54.5162349796812 160.042919321462 5.49999999999952
endloop
endfacet
facet normal 1.0 1.61044605861444e-015 2.80103723950855e-015
outer loop
vertex 54.5162349796812 160.042919321462 5.49999999999952
vertex 54.5162349796812 159.542919321462 2.00000000000013
vertex 54.5162349796812 160.775165951055 4.56435152885255
endloop
endfacet
facet normal 1.0 1.61044605861444e-015 2.80103723950855e-015
outer loop
vertex 54.5162349796812 160.775165951055 4.56435152885255
vertex 54.5162349796812 159.542919321462 2.00000000000013
vertex 54.5162349796812 161.076552288126 4.29468503597774
endloop
endfacet
facet normal 1.0 1.61044605861444e-015 2.80103723950855e-015
outer loop
vertex 54.5162349796812 161.076552288126 4.29468503597774
vertex 54.5162349796812 159.542919321462 2.00000000000013
vertex 54.5162349796812 164.142919321462 2.00000000000013
endloop
endfacet
facet normal 1.0 1.61044605861444e-015 2.80103723950855e-015
outer loop
vertex 54.5162349796812 161.076552288126 4.29468503597774
vertex 54.5162349796812 164.142919321462 2.00000000000013
vertex 54.5162349796812 161.253407391978 4.19554208966484
endloop
endfacet
facet normal 1.0 1.61044605861444e-015 2.80103723950855e-015
outer loop
vertex 54.5162349796812 161.253407391978 4.19554208966484
vertex 54.5162349796812 164.142919321462 2.00000000000013
vertex 54.5162349796812 161.44280310263 4.12317969370721
endloop
endfacet
facet normal 1.0 1.61044605861444e-015 2.80103723950855e-015
outer loop
vertex 54.5162349796812 161.44280310263 4.12317969370721
vertex 54.5162349796812 164.142919321462 2.00000000000013
vertex 54.5162349796812 161.640710430985 4.07913720347567
endloop
endfacet
facet normal 1.0 1.61044605861444e-015 2.80103723950855e-015
outer loop
vertex 54.5162349796812 161.640710430985 4.07913720347567
vertex 54.5162349796812 164.142919321462 2.00000000000013
vertex 54.5162349796812 161.842919321462 4.06435152885255
endloop
endfacet
facet normal 1.0 1.61044605861444e-015 2.80103723950855e-015
outer loop
vertex 54.5162349796812 161.842919321462 4.06435152885255
vertex 54.5162349796812 164.142919321462 2.00000000000013
vertex 54.5162349796812 162.045128211939 4.07913720347567
endloop
endfacet
facet normal 1.0 1.61044605861444e-015 2.80103723950855e-015
outer loop
vertex 54.5162349796812 162.045128211939 4.07913720347567
vertex 54.5162349796812 164.142919321462 2.00000000000013
vertex 54.5162349796812 162.243035540294 4.12317969370721
endloop
endfacet
facet normal 1.0 1.61044605861444e-015 2.80103723950855e-015
outer loop
vertex 54.5162349796812 162.243035540294 4.12317969370721
vertex 54.5162349796812 164.142919321462 2.00000000000013
vertex 54.5162349796812 162.432431250946 4.19554208966484
endloop
endfacet
facet normal 1.0 1.61044605861444e-015 2.80103723950855e-015
outer loop
vertex 54.5162349796812 162.432431250946 4.19554208966484
vertex 54.5162349796812 164.142919321462 2.00000000000013
vertex 54.5162349796812 162.609286354798 4.29468503597774
endloop
endfacet
facet normal 1.0 1.61044605861444e-015 2.80103723950855e-015
outer loop
vertex 54.5162349796812 162.609286354798 4.29468503597774
vertex 54.5162349796812 164.142919321462 2.00000000000013
vertex 54.5162349796812 162.910672691869 4.56435152885255
endloop
endfacet
facet normal 1.0 1.61044605861444e-015 2.80103723950855e-015
outer loop
vertex 54.5162349796812 162.910672691869 4.56435152885255
vertex 54.5162349796812 164.142919321462 2.00000000000013
vertex 54.5162349796812 163.642919321462 5.49999999999952
endloop
endfacet
facet normal 1.0 1.61044605861444e-015 2.80103723950855e-015
outer loop
vertex 54.5162349796812 163.642919321462 5.49999999999952
vertex 54.5162349796812 164.142919321462 2.00000000000013
vertex 54.5162349796812 164.142919321462 5.50000000000013
endloop
endfacet
facet normal 1.0 1.61044605861444e-015 2.80103723950855e-015
outer loop
vertex 54.5162349796812 164.142919321462 5.50000000000013
vertex 54.5162349796812 164.142919321462 2.00000000000013
vertex 54.5162349796812 164.142919321462 3.20000000000013
endloop
endfacet
facet normal 1.0 1.61044605861444e-015 2.80103723950855e-015
outer loop
vertex 54.5162349796812 164.142919321462 5.50000000000013
vertex 54.5162349796812 164.142919321462 3.20000000000013
vertex 54.5162349796812 164.366766372663 3.30844316193911
endloop
endfacet
facet normal 1.0 1.61044605861444e-015 2.80103723950855e-015
outer loop
vertex 54.5162349796812 164.142919321462 5.50000000000013
vertex 54.5162349796812 164.366766372663 3.30844316193911
vertex 54.5162349796812 164.366766372663 5.39155683806115
endloop
endfacet
facet normal 1.0 1.61044605861444e-015 2.80103723950855e-015
outer loop
vertex 54.5162349796812 164.366766372663 5.39155683806115
vertex 54.5162349796812 164.366766372663 3.30844316193911
vertex 54.5162349796812 164.564066801681 3.45990260341545
endloop
endfacet
facet normal 1.0 1.61044605861444e-015 2.80103723950855e-015
outer loop
vertex 54.5162349796812 164.366766372663 5.39155683806115
vertex 54.5162349796812 164.564066801681 3.45990260341545
vertex 54.5162349796812 164.564066801681 5.2400973965848
endloop
endfacet
facet normal 1.0 1.61044605861444e-015 2.80103723950855e-015
outer loop
vertex 54.5162349796812 164.564066801681 5.2400973965848
vertex 54.5162349796812 164.564066801681 3.45990260341545
vertex 54.5162349796812 164.726672104183 3.64812305209544
endloop
endfacet
facet normal 1.0 1.61044605861444e-015 2.80103723950855e-015
outer loop
vertex 54.5162349796812 164.564066801681 5.2400973965848
vertex 54.5162349796812 164.726672104183 3.64812305209544
vertex 54.5162349796812 164.726672104183 5.05187694790481
endloop
endfacet
facet normal 1.0 1.61044605861444e-015 2.80103723950855e-015
outer loop
vertex 54.5162349796812 164.726672104183 5.05187694790481
vertex 54.5162349796812 164.726672104183 3.64812305209544
vertex 54.5162349796812 164.847866683965 3.86533100667872
endloop
endfacet
facet normal 1.0 1.61044605861444e-015 2.80103723950855e-015
outer loop
vertex 54.5162349796812 164.726672104183 5.05187694790481
vertex 54.5162349796812 164.847866683965 3.86533100667872
vertex 54.5162349796812 164.847866683965 4.83466899332154
endloop
endfacet
facet normal 1.0 1.61044605861444e-015 2.80103723950855e-015
outer loop
vertex 54.5162349796812 164.847866683965 4.83466899332154
vertex 54.5162349796812 164.847866683965 3.86533100667872
vertex 54.5162349796812 164.922645206964 4.10255578236857
endloop
endfacet
facet normal 1.0 1.61044605861444e-015 2.80103723950855e-015
outer loop
vertex 54.5162349796812 164.847866683965 4.83466899332154
vertex 54.5162349796812 164.922645206964 4.10255578236857
vertex 54.5162349796812 164.922645206964 4.59744421763168
endloop
endfacet
facet normal 1.0 1.61044605861444e-015 2.80103723950855e-015
outer loop
vertex 54.5162349796812 164.922645206964 4.59744421763168
vertex 54.5162349796812 164.922645206964 4.10255578236857
vertex 54.5162349796812 164.947919321462 4.35000000000013
endloop
endfacet
facet normal -4.90428953486591e-016 -1.0 -9.39988827515964e-015
outer loop
vertex 54.5162349796812 159.542919321462 3.20000000000013
vertex 31.5162349796812 159.542919321462 2.00000000000013
vertex 54.5162349796812 159.542919321462 2.00000000000013
endloop
endfacet
facet normal -4.90428953486591e-016 -1.0 -9.39988827515964e-015
outer loop
vertex 31.5162349796812 159.542919321462 2.00000000000013
vertex 54.5162349796812 159.542919321462 3.20000000000013
vertex 31.5162349796813 159.542919321462 3.20000000000013
endloop
endfacet
facet normal 1.91712627575675e-015 -0.953737888656712 0.300639384879355
outer loop
vertex 54.5162349796812 158.837971958958 4.83466899332154
vertex 31.5162349796813 158.76319343596 4.59744421763169
vertex 54.5162349796812 158.76319343596 4.59744421763168
endloop
endfacet
facet normal 1.91712627575675e-015 -0.953737888656712 0.300639384879355
outer loop
vertex 31.5162349796813 158.76319343596 4.59744421763169
vertex 54.5162349796812 158.837971958958 4.83466899332154
vertex 31.5162349796813 158.837971958958 4.83466899332154
endloop
endfacet
facet normal 1.76564481099818e-015 -0.873262311667502 0.48725038226884
outer loop
vertex 54.5162349796812 158.959166538741 5.05187694790481
vertex 31.5162349796813 158.837971958958 4.83466899332154
vertex 54.5162349796812 158.837971958958 4.83466899332154
endloop
endfacet
facet normal 1.76564481099818e-015 -0.873262311667502 0.48725038226884
outer loop
vertex 31.5162349796813 158.837971958958 4.83466899332154
vertex 54.5162349796812 158.959166538741 5.05187694790481
vertex 31.5162349796813 158.959166538741 5.05187694790482
endloop
endfacet
facet normal 1.45660607483498e-015 -0.608927155735412 0.793226146195385
outer loop
vertex 54.5162349796812 159.121771841243 5.24009739658481
vertex 31.5162349796813 159.31907227026 5.39155683806115
vertex 31.5162349796813 159.121771841242 5.24009739658481
endloop
endfacet
facet normal 1.45660607483498e-015 -0.608927155735412 0.793226146195385
outer loop
vertex 31.5162349796813 159.31907227026 5.39155683806115
vertex 54.5162349796812 159.121771841243 5.24009739658481
vertex 54.5162349796812 159.31907227026 5.39155683806115
endloop
endfacet
facet normal 1.42431727880148e-015 -0.756721016192531 -0.653737947233097
outer loop
vertex 54.5162349796812 158.959166538741 3.64812305209545
vertex 31.5162349796813 159.121771841242 3.45990260341546
vertex 54.5162349796812 159.121771841243 3.45990260341545
endloop
endfacet
facet normal 1.42431727880148e-015 -0.756721016192531 -0.653737947233097
outer loop
vertex 31.5162349796813 159.121771841242 3.45990260341546
vertex 54.5162349796812 158.959166538741 3.64812305209545
vertex 31.5162349796813 158.959166538741 3.64812305209545
endloop
endfacet
facet normal 2.55203772271095e-016 -0.435984614196356 0.899954118932768
outer loop
vertex 31.5162349796813 159.31907227026 5.39155683806115
vertex 54.5162349796812 159.542919321462 5.50000000000013
vertex 31.5162349796812 159.542919321462 5.50000000000013
endloop
endfacet
facet normal 2.55203772271095e-016 -0.435984614196356 0.899954118932768
outer loop
vertex 54.5162349796812 159.542919321462 5.50000000000013
vertex 31.5162349796813 159.31907227026 5.39155683806115
vertex 54.5162349796812 159.31907227026 5.39155683806115
endloop
endfacet
facet normal 1.454329568414e-015 -0.994824107212109 -0.101611986052972
outer loop
vertex 54.5162349796812 158.737919321462 4.35000000000013
vertex 31.5162349796813 158.76319343596 4.10255578236858
vertex 54.5162349796812 158.76319343596 4.10255578236858
endloop
endfacet
facet normal 1.454329568414e-015 -0.994824107212109 -0.101611986052972
outer loop
vertex 31.5162349796813 158.76319343596 4.10255578236858
vertex 54.5162349796812 158.737919321462 4.35000000000013
vertex 31.5162349796813 158.737919321462 4.35000000000013
endloop
endfacet
facet normal 1.50453562525358e-015 -0.756721016192533 0.653737947233095
outer loop
vertex 54.5162349796812 159.121771841243 5.24009739658481
vertex 31.5162349796813 158.959166538741 5.05187694790482
vertex 54.5162349796812 158.959166538741 5.05187694790481
endloop
endfacet
facet normal 1.50453562525358e-015 -0.756721016192533 0.653737947233095
outer loop
vertex 31.5162349796813 158.959166538741 5.05187694790482
vertex 54.5162349796812 159.121771841243 5.24009739658481
vertex 31.5162349796813 159.121771841242 5.24009739658481
endloop
endfacet
facet normal 1.72080296709973e-015 -0.873262311667503 -0.487250382268838
outer loop
vertex 54.5162349796812 158.837971958958 3.86533100667872
vertex 31.5162349796813 158.959166538741 3.64812305209545
vertex 54.5162349796812 158.959166538741 3.64812305209545
endloop
endfacet
facet normal 1.72080296709973e-015 -0.873262311667503 -0.487250382268838
outer loop
vertex 31.5162349796813 158.959166538741 3.64812305209545
vertex 54.5162349796812 158.837971958958 3.86533100667872
vertex 31.5162349796813 158.837971958958 3.86533100667872
endloop
endfacet
facet normal 1.86304082176017e-016 -0.435984614196364 -0.899954118932764
outer loop
vertex 54.5162349796812 159.542919321462 3.20000000000013
vertex 31.5162349796813 159.31907227026 3.30844316193911
vertex 31.5162349796813 159.542919321462 3.20000000000013
endloop
endfacet
facet normal 1.86304082176017e-016 -0.435984614196364 -0.899954118932764
outer loop
vertex 31.5162349796813 159.31907227026 3.30844316193911
vertex 54.5162349796812 159.542919321462 3.20000000000013
vertex 54.5162349796812 159.31907227026 3.30844316193911
endloop
endfacet
facet normal 1.48238374127425e-015 -0.994824107212109 0.101611986052972
outer loop
vertex 54.5162349796812 158.76319343596 4.59744421763168
vertex 31.5162349796813 158.737919321462 4.35000000000013
vertex 54.5162349796812 158.737919321462 4.35000000000013
endloop
endfacet
facet normal 1.48238374127425e-015 -0.994824107212109 0.101611986052972
outer loop
vertex 31.5162349796813 158.737919321462 4.35000000000013
vertex 54.5162349796812 158.76319343596 4.59744421763168
vertex 31.5162349796813 158.76319343596 4.59744421763169
endloop
endfacet
facet normal 1.44443925591317e-015 -0.608927155735408 -0.793226146195388
outer loop
vertex 54.5162349796812 159.31907227026 3.30844316193911
vertex 31.5162349796813 159.121771841242 3.45990260341546
vertex 31.5162349796813 159.31907227026 3.30844316193911
endloop
endfacet
facet normal 1.44443925591317e-015 -0.608927155735408 -0.793226146195388
outer loop
vertex 31.5162349796813 159.121771841242 3.45990260341546
vertex 54.5162349796812 159.31907227026 3.30844316193911
vertex 54.5162349796812 159.121771841243 3.45990260341545
endloop
endfacet
facet normal 1.88023566165752e-015 -0.953737888656712 -0.300639384879356
outer loop
vertex 54.5162349796812 158.837971958958 3.86533100667872
vertex 31.5162349796813 158.76319343596 4.10255578236858
vertex 31.5162349796813 158.837971958958 3.86533100667872
endloop
endfacet
facet normal 1.88023566165752e-015 -0.953737888656712 -0.300639384879356
outer loop
vertex 31.5162349796813 158.76319343596 4.10255578236858
vertex 54.5162349796812 158.837971958958 3.86533100667872
vertex 54.5162349796812 158.76319343596 4.10255578236858
endloop
endfacet
facet normal 6.9087677462576e-017 0.953737888656791 0.300639384879106
outer loop
vertex 31.5162349796812 164.922645206964 4.59744421763169
vertex 54.5162349796812 164.847866683965 4.83466899332154
vertex 54.5162349796812 164.922645206964 4.59744421763168
endloop
endfacet
facet normal 6.9087677462576e-017 0.953737888656791 0.300639384879106
outer loop
vertex 54.5162349796812 164.847866683965 4.83466899332154
vertex 31.5162349796812 164.922645206964 4.59744421763169
vertex 31.5162349796812 164.847866683965 4.83466899332154
endloop
endfacet
facet normal 9.60222512487145e-016 0.994824107212096 -0.101611986053106
outer loop
vertex 31.5162349796812 164.922645206964 4.10255578236858
vertex 54.5162349796812 164.947919321462 4.35000000000013
vertex 54.5162349796812 164.922645206964 4.10255578236857
endloop
endfacet
facet normal 9.60222512487145e-016 0.994824107212096 -0.101611986053106
outer loop
vertex 54.5162349796812 164.947919321462 4.35000000000013
vertex 31.5162349796812 164.922645206964 4.10255578236858
vertex 31.5162349796812 164.947919321462 4.35000000000013
endloop
endfacet
facet normal 1.10127342004258e-016 0.756721016192622 0.653737947232991
outer loop
vertex 31.5162349796812 164.726672104183 5.05187694790482
vertex 54.5162349796812 164.564066801681 5.2400973965848
vertex 54.5162349796812 164.726672104183 5.05187694790481
endloop
endfacet
facet normal 1.10127342004258e-016 0.756721016192622 0.653737947232991
outer loop
vertex 54.5162349796812 164.564066801681 5.2400973965848
vertex 31.5162349796812 164.726672104183 5.05187694790482
vertex 31.5162349796812 164.564066801681 5.24009739658481
endloop
endfacet
facet normal 9.68199921064734e-017 0.435984614196343 0.899954118932774
outer loop
vertex 54.5162349796812 164.142919321462 5.50000000000013
vertex 31.5162349796812 164.366766372663 5.39155683806115
vertex 31.5162349796812 164.142919321462 5.50000000000013
endloop
endfacet
facet normal 9.68199921064734e-017 0.435984614196343 0.899954118932774
outer loop
vertex 31.5162349796812 164.366766372663 5.39155683806115
vertex 54.5162349796812 164.142919321462 5.50000000000013
vertex 54.5162349796812 164.366766372663 5.39155683806115
endloop
endfacet
facet normal 3.71718840204488e-016 0.608927155735325 0.793226146195451
outer loop
vertex 54.5162349796812 164.366766372663 5.39155683806115
vertex 31.5162349796812 164.564066801681 5.24009739658481
vertex 31.5162349796812 164.366766372663 5.39155683806115
endloop
endfacet
facet normal 3.71718840204488e-016 0.608927155735325 0.793226146195451
outer loop
vertex 31.5162349796812 164.564066801681 5.24009739658481
vertex 54.5162349796812 164.366766372663 5.39155683806115
vertex 54.5162349796812 164.564066801681 5.2400973965848
endloop
endfacet
facet normal -4.90428953486592e-016 1.0 -9.39988827515965e-015
outer loop
vertex 31.5162349796812 164.142919321462 3.20000000000013
vertex 54.5162349796812 164.142919321462 2.00000000000013
vertex 31.5162349796812 164.142919321462 2.00000000000013
endloop
endfacet
facet normal -4.90428953486592e-016 1.0 -9.39988827515965e-015
outer loop
vertex 54.5162349796812 164.142919321462 2.00000000000013
vertex 31.5162349796812 164.142919321462 3.20000000000013
vertex 54.5162349796812 164.142919321462 3.20000000000013
endloop
endfacet
facet normal -1.60073167715661e-016 0.756721016192621 -0.653737947232992
outer loop
vertex 31.5162349796812 164.564066801681 3.45990260341546
vertex 54.5162349796812 164.726672104183 3.64812305209544
vertex 54.5162349796812 164.564066801681 3.45990260341545
endloop
endfacet
facet normal -1.60073167715661e-016 0.756721016192621 -0.653737947232992
outer loop
vertex 54.5162349796812 164.726672104183 3.64812305209544
vertex 31.5162349796812 164.564066801681 3.45990260341546
vertex 31.5162349796812 164.726672104183 3.64812305209545
endloop
endfacet
facet normal -4.58167043893344e-016 0.873262311667408 -0.487250382269009
outer loop
vertex 31.5162349796812 164.726672104183 3.64812305209545
vertex 54.5162349796812 164.847866683965 3.86533100667872
vertex 54.5162349796812 164.726672104183 3.64812305209544
endloop
endfacet
facet normal -4.58167043893344e-016 0.873262311667408 -0.487250382269009
outer loop
vertex 54.5162349796812 164.847866683965 3.86533100667872
vertex 31.5162349796812 164.726672104183 3.64812305209545
vertex 31.5162349796812 164.847866683965 3.86533100667872
endloop
endfacet
facet normal -3.38717649370711e-016 0.873262311667404 0.487250382269015
outer loop
vertex 31.5162349796812 164.847866683965 4.83466899332154
vertex 54.5162349796812 164.726672104183 5.05187694790481
vertex 54.5162349796812 164.847866683965 4.83466899332154
endloop
endfacet
facet normal -3.38717649370711e-016 0.873262311667404 0.487250382269015
outer loop
vertex 54.5162349796812 164.726672104183 5.05187694790481
vertex 31.5162349796812 164.847866683965 4.83466899332154
vertex 31.5162349796812 164.726672104183 5.05187694790482
endloop
endfacet
facet normal -9.10747258342014e-018 0.95373788865679 -0.300639384879109
outer loop
vertex 31.5162349796812 164.922645206964 4.10255578236858
vertex 54.5162349796812 164.847866683965 3.86533100667872
vertex 31.5162349796812 164.847866683965 3.86533100667872
endloop
endfacet
facet normal -9.10747258342014e-018 0.95373788865679 -0.300639384879109
outer loop
vertex 54.5162349796812 164.847866683965 3.86533100667872
vertex 31.5162349796812 164.922645206964 4.10255578236858
vertex 54.5162349796812 164.922645206964 4.10255578236857
endloop
endfacet
facet normal 1.04097562742132e-016 0.60892715573532 -0.793226146195455
outer loop
vertex 54.5162349796812 164.564066801681 3.45990260341545
vertex 31.5162349796812 164.366766372663 3.30844316193911
vertex 31.5162349796812 164.564066801681 3.45990260341546
endloop
endfacet
facet normal 1.04097562742132e-016 0.60892715573532 -0.793226146195455
outer loop
vertex 31.5162349796812 164.366766372663 3.30844316193911
vertex 54.5162349796812 164.564066801681 3.45990260341545
vertex 54.5162349796812 164.366766372663 3.30844316193911
endloop
endfacet
facet normal -1.24279687386415e-016 0.435984614196341 -0.899954118932775
outer loop
vertex 54.5162349796812 164.366766372663 3.30844316193911
vertex 31.5162349796812 164.142919321462 3.20000000000013
vertex 31.5162349796812 164.366766372663 3.30844316193911
endloop
endfacet
facet normal -1.24279687386415e-016 0.435984614196341 -0.899954118932775
outer loop
vertex 31.5162349796812 164.142919321462 3.20000000000013
vertex 54.5162349796812 164.366766372663 3.30844316193911
vertex 54.5162349796812 164.142919321462 3.20000000000013
endloop
endfacet
facet normal 1.00219628452525e-015 0.994824107212096 0.101611986053107
outer loop
vertex 31.5162349796812 164.947919321462 4.35000000000013
vertex 54.5162349796812 164.922645206964 4.59744421763168
vertex 54.5162349796812 164.947919321462 4.35000000000013
endloop
endfacet
facet normal 1.00219628452525e-015 0.994824107212096 0.101611986053107
outer loop
vertex 54.5162349796812 164.922645206964 4.59744421763168
vertex 31.5162349796812 164.947919321462 4.35000000000013
vertex 31.5162349796812 164.922645206964 4.59744421763169
endloop
endfacet
facet normal 1.34254926016915e-014 6.1052274347162e-013 1.0
outer loop
vertex 54.5162349796812 159.542919321462 5.50000000000013
vertex 31.5162349796813 160.042919321462 5.50000000000013
vertex 31.5162349796812 159.542919321462 5.50000000000013
endloop
endfacet
facet normal 1.34254926016915e-014 6.1052274347162e-013 1.0
outer loop
vertex 31.5162349796813 160.042919321462 5.50000000000013
vertex 54.5162349796812 159.542919321462 5.50000000000013
vertex 54.5162349796812 160.042919321462 5.49999999999952
endloop
endfacet
facet normal -1.0 -8.61985819407304e-015 2.62903286444113e-015
outer loop
vertex 31.5162349796812 164.366766372663 5.39155683806115
vertex 31.5162349796812 164.142919321462 3.20000000000013
vertex 31.5162349796812 164.142919321462 5.50000000000013
endloop
endfacet
facet normal -1.0 -8.61985819407304e-015 2.62903286444113e-015
outer loop
vertex 31.5162349796812 164.142919321462 3.20000000000013
vertex 31.5162349796812 164.366766372663 5.39155683806115
vertex 31.5162349796812 164.366766372663 3.30844316193911
endloop
endfacet
facet normal -1.0 -8.61985819407304e-015 2.62903286444113e-015
outer loop
vertex 31.5162349796812 164.366766372663 3.30844316193911
vertex 31.5162349796812 164.366766372663 5.39155683806115
vertex 31.5162349796812 164.564066801681 5.24009739658481
endloop
endfacet
facet normal -1.0 -8.61985819407304e-015 2.62903286444113e-015
outer loop
vertex 31.5162349796812 164.366766372663 3.30844316193911
vertex 31.5162349796812 164.564066801681 5.24009739658481
vertex 31.5162349796812 164.564066801681 3.45990260341546
endloop
endfacet
facet normal -1.0 -8.61985819407304e-015 2.62903286444113e-015
outer loop
vertex 31.5162349796812 164.564066801681 3.45990260341546
vertex 31.5162349796812 164.564066801681 5.24009739658481
vertex 31.5162349796812 164.726672104183 5.05187694790482
endloop
endfacet
facet normal -1.0 -8.61985819407304e-015 2.62903286444113e-015
outer loop
vertex 31.5162349796812 164.564066801681 3.45990260341546
vertex 31.5162349796812 164.726672104183 5.05187694790482
vertex 31.5162349796812 164.726672104183 3.64812305209545
endloop
endfacet
facet normal -1.0 -8.61985819407304e-015 2.62903286444113e-015
outer loop
vertex 31.5162349796812 164.726672104183 3.64812305209545
vertex 31.5162349796812 164.726672104183 5.05187694790482
vertex 31.5162349796812 164.847866683965 4.83466899332154
endloop
endfacet
facet normal -1.0 -8.61985819407304e-015 2.62903286444113e-015
outer loop
vertex 31.5162349796812 164.726672104183 3.64812305209545
vertex 31.5162349796812 164.847866683965 4.83466899332154
vertex 31.5162349796812 164.847866683965 3.86533100667872
endloop
endfacet
facet normal -1.0 -8.61985819407304e-015 2.62903286444113e-015
outer loop
vertex 31.5162349796812 164.847866683965 3.86533100667872
vertex 31.5162349796812 164.847866683965 4.83466899332154
vertex 31.5162349796812 164.922645206964 4.59744421763169
endloop
endfacet
facet normal -1.0 -8.61985819407304e-015 2.62903286444113e-015
outer loop
vertex 31.5162349796812 164.847866683965 3.86533100667872
vertex 31.5162349796812 164.922645206964 4.59744421763169
vertex 31.5162349796812 164.922645206964 4.10255578236858
endloop
endfacet
facet normal -1.0 -8.61985819407304e-015 2.62903286444113e-015
outer loop
vertex 31.5162349796812 164.922645206964 4.10255578236858
vertex 31.5162349796812 164.922645206964 4.59744421763169
vertex 31.5162349796812 164.947919321462 4.35000000000013
endloop
endfacet
facet normal -1.0 -8.61985819407304e-015 2.62903286444113e-015
outer loop
vertex 31.5162349796813 158.76319343596 4.59744421763169
vertex 31.5162349796813 158.76319343596 4.10255578236858
vertex 31.5162349796813 158.737919321462 4.35000000000013
endloop
endfacet
facet normal -1.0 -8.61985819407304e-015 2.62903286444113e-015
outer loop
vertex 31.5162349796813 158.76319343596 4.10255578236858
vertex 31.5162349796813 158.76319343596 4.59744421763169
vertex 31.5162349796813 158.837971958958 4.83466899332154
endloop
endfacet
facet normal -1.0 -8.61985819407304e-015 2.62903286444113e-015
outer loop
vertex 31.5162349796813 158.76319343596 4.10255578236858
vertex 31.5162349796813 158.837971958958 4.83466899332154
vertex 31.5162349796813 158.837971958958 3.86533100667872
endloop
endfacet
facet normal -1.0 -8.61985819407304e-015 2.62903286444113e-015
outer loop
vertex 31.5162349796813 158.837971958958 3.86533100667872
vertex 31.5162349796813 158.837971958958 4.83466899332154
vertex 31.5162349796813 158.959166538741 5.05187694790482
endloop
endfacet
facet normal -1.0 -8.61985819407304e-015 2.62903286444113e-015
outer loop
vertex 31.5162349796813 158.837971958958 3.86533100667872
vertex 31.5162349796813 158.959166538741 5.05187694790482
vertex 31.5162349796813 158.959166538741 3.64812305209545
endloop
endfacet
facet normal -1.0 -8.61985819407304e-015 2.62903286444113e-015
outer loop
vertex 31.5162349796813 158.959166538741 3.64812305209545
vertex 31.5162349796813 158.959166538741 5.05187694790482
vertex 31.5162349796813 159.121771841242 5.24009739658481
endloop
endfacet
facet normal -1.0 -8.61985819407304e-015 2.62903286444113e-015
outer loop
vertex 31.5162349796813 158.959166538741 3.64812305209545
vertex 31.5162349796813 159.121771841242 5.24009739658481
vertex 31.5162349796813 159.121771841242 3.45990260341546
endloop
endfacet
facet normal -1.0 -8.61985819407304e-015 2.62903286444113e-015
outer loop
vertex 31.5162349796813 159.121771841242 3.45990260341546
vertex 31.5162349796813 159.121771841242 5.24009739658481
vertex 31.5162349796813 159.31907227026 5.39155683806115
endloop
endfacet
facet normal -1.0 -8.61985819407304e-015 2.62903286444113e-015
outer loop
vertex 31.5162349796813 159.121771841242 3.45990260341546
vertex 31.5162349796813 159.31907227026 5.39155683806115
vertex 31.5162349796813 159.31907227026 3.30844316193911
endloop
endfacet
facet normal -1.0 -8.61985819407304e-015 2.62903286444113e-015
outer loop
vertex 31.5162349796813 159.31907227026 3.30844316193911
vertex 31.5162349796813 159.31907227026 5.39155683806115
vertex 31.5162349796812 159.542919321462 5.50000000000013
endloop
endfacet
facet normal -1.0 -8.61985819407304e-015 2.62903286444113e-015
outer loop
vertex 31.5162349796813 159.31907227026 3.30844316193911
vertex 31.5162349796812 159.542919321462 5.50000000000013
vertex 31.5162349796813 159.542919321462 3.20000000000013
endloop
endfacet
facet normal -1.0 -8.61985819407304e-015 2.62903286444113e-015
outer loop
vertex 31.5162349796813 159.542919321462 3.20000000000013
vertex 31.5162349796812 159.542919321462 5.50000000000013
vertex 31.5162349796813 160.042919321462 5.50000000000013
endloop
endfacet
facet normal -1.0 -8.61985819407304e-015 2.62903286444113e-015
outer loop
vertex 31.5162349796813 159.542919321462 3.20000000000013
vertex 31.5162349796813 160.042919321462 5.50000000000013
vertex 31.5162349796812 159.542919321462 2.00000000000013
endloop
endfacet
facet normal -1.0 -8.61985819407304e-015 2.62903286444113e-015
outer loop
vertex 31.5162349796812 159.542919321462 2.00000000000013
vertex 31.5162349796813 160.042919321462 5.50000000000013
vertex 31.5162349796813 160.775165951055 4.56435152885316
endloop
endfacet
facet normal -1.0 -8.61985819407304e-015 2.62903286444113e-015
outer loop
vertex 31.5162349796812 159.542919321462 2.00000000000013
vertex 31.5162349796813 160.775165951055 4.56435152885316
vertex 31.5162349796813 161.076552288126 4.29468503597836
endloop
endfacet
facet normal -1.0 -8.61985819407304e-015 2.62903286444113e-015
outer loop
vertex 31.5162349796812 159.542919321462 2.00000000000013
vertex 31.5162349796813 161.076552288126 4.29468503597836
vertex 31.5162349796812 164.142919321462 2.00000000000013
endloop
endfacet
facet normal -1.0 -8.61985819407304e-015 2.62903286444113e-015
outer loop
vertex 31.5162349796812 164.142919321462 2.00000000000013
vertex 31.5162349796813 161.076552288126 4.29468503597836
vertex 31.5162349796812 161.253407391978 4.19554208966546
endloop
endfacet
facet normal -1.0 -8.61985819407304e-015 2.62903286444113e-015
outer loop
vertex 31.5162349796812 164.142919321462 2.00000000000013
vertex 31.5162349796812 161.253407391978 4.19554208966546
vertex 31.5162349796812 161.44280310263 4.12317969370783
endloop
endfacet
facet normal -1.0 -8.61985819407304e-015 2.62903286444113e-015
outer loop
vertex 31.5162349796812 164.142919321462 2.00000000000013
vertex 31.5162349796812 161.44280310263 4.12317969370783
vertex 31.5162349796812 161.640710430984 4.07913720347629
endloop
endfacet
facet normal -1.0 -8.61985819407304e-015 2.62903286444113e-015
outer loop
vertex 31.5162349796812 164.142919321462 2.00000000000013
vertex 31.5162349796812 161.640710430984 4.07913720347629
vertex 31.5162349796812 161.842919321462 4.06435152885316
endloop
endfacet
facet normal -1.0 -8.61985819407304e-015 2.62903286444113e-015
outer loop
vertex 31.5162349796812 164.142919321462 2.00000000000013
vertex 31.5162349796812 161.842919321462 4.06435152885316
vertex 31.5162349796812 162.045128211939 4.07913720347629
endloop
endfacet
facet normal -1.0 -8.61985819407304e-015 2.62903286444113e-015
outer loop
vertex 31.5162349796812 164.142919321462 2.00000000000013
vertex 31.5162349796812 162.045128211939 4.07913720347629
vertex 31.5162349796812 162.243035540294 4.12317969370783
endloop
endfacet
facet normal -1.0 -8.61985819407304e-015 2.62903286444113e-015
outer loop
vertex 31.5162349796812 164.142919321462 2.00000000000013
vertex 31.5162349796812 162.243035540294 4.12317969370783
vertex 31.5162349796812 162.432431250946 4.19554208966546
endloop
endfacet
facet normal -1.0 -8.61985819407304e-015 2.62903286444113e-015
outer loop
vertex 31.5162349796812 164.142919321462 2.00000000000013
vertex 31.5162349796812 162.432431250946 4.19554208966546
vertex 31.5162349796812 162.609286354798 4.29468503597836
endloop
endfacet
facet normal -1.0 -8.61985819407304e-015 2.62903286444113e-015
outer loop
vertex 31.5162349796812 164.142919321462 2.00000000000013
vertex 31.5162349796812 162.609286354798 4.29468503597836
vertex 31.5162349796812 162.910672691869 4.56435152885317
endloop
endfacet
facet normal -1.0 -8.61985819407304e-015 2.62903286444113e-015
outer loop
vertex 31.5162349796812 164.142919321462 2.00000000000013
vertex 31.5162349796812 162.910672691869 4.56435152885317
vertex 31.5162349796812 163.642919321462 5.50000000000013
endloop
endfacet
facet normal -1.0 -8.61985819407304e-015 2.62903286444113e-015
outer loop
vertex 31.5162349796812 164.142919321462 2.00000000000013
vertex 31.5162349796812 163.642919321462 5.50000000000013
vertex 31.5162349796812 164.142919321462 5.50000000000013
endloop
endfacet
facet normal -1.0 -8.61985819407304e-015 2.62903286444113e-015
outer loop
vertex 31.5162349796812 164.142919321462 2.00000000000013
vertex 31.5162349796812 164.142919321462 5.50000000000013
vertex 31.5162349796812 164.142919321462 3.20000000000013
endloop
endfacet
facet normal 2.72682644838004e-014 -0.787505001007591 0.616308261658105
outer loop
vertex 54.5162349796812 163.642919321462 5.49999999999952
vertex 31.5162349796812 162.910672691869 4.56435152885317
vertex 54.5162349796812 162.910672691869 4.56435152885255
endloop
endfacet
facet normal 2.72682644838004e-014 -0.787505001007591 0.616308261658105
outer loop
vertex 31.5162349796812 162.910672691869 4.56435152885317
vertex 54.5162349796812 163.642919321462 5.49999999999952
vertex 31.5162349796812 163.642919321462 5.50000000000013
endloop
endfacet
facet normal 3.13479301603368e-014 -0.666801771767294 0.745235128780171
outer loop
vertex 54.5162349796812 162.609286354798 4.29468503597774
vertex 31.5162349796812 162.910672691869 4.56435152885317
vertex 31.5162349796812 162.609286354798 4.29468503597836
endloop
endfacet
facet normal 3.13479301603368e-014 -0.666801771767294 0.745235128780171
outer loop
vertex 31.5162349796812 162.910672691869 4.56435152885317
vertex 54.5162349796812 162.609286354798 4.29468503597774
vertex 54.5162349796812 162.910672691869 4.56435152885255
endloop
endfacet
facet normal 3.16745429294593e-014 -0.48899414282072 0.8722870675913
outer loop
vertex 54.5162349796812 162.432431250946 4.19554208966484
vertex 31.5162349796812 162.609286354798 4.29468503597836
vertex 31.5162349796812 162.432431250946 4.19554208966546
endloop
endfacet
facet normal 3.16745429294593e-014 -0.48899414282072 0.8722870675913
outer loop
vertex 31.5162349796812 162.609286354798 4.29468503597836
vertex 54.5162349796812 162.432431250946 4.19554208966484
vertex 54.5162349796812 162.609286354798 4.29468503597774
endloop
endfacet
facet normal 3.10498679762684e-014 -0.356906760386978 0.934140013268927
outer loop
vertex 31.5162349796812 162.243035540294 4.12317969370783
vertex 54.5162349796812 162.432431250946 4.19554208966484
vertex 31.5162349796812 162.432431250946 4.19554208966546
endloop
endfacet
facet normal 3.10498679762684e-014 -0.356906760386978 0.934140013268927
outer loop
vertex 54.5162349796812 162.432431250946 4.19554208966484
vertex 31.5162349796812 162.243035540294 4.12317969370783
vertex 54.5162349796812 162.243035540294 4.12317969370721
endloop
endfacet
facet normal 2.97646734203217e-014 -0.217226949161775 0.976121125966377
outer loop
vertex 54.5162349796812 162.045128211939 4.07913720347567
vertex 31.5162349796812 162.243035540294 4.12317969370783
vertex 31.5162349796812 162.045128211939 4.07913720347629
endloop
endfacet
facet normal 2.97646734203217e-014 -0.217226949161775 0.976121125966377
outer loop
vertex 31.5162349796812 162.243035540294 4.12317969370783
vertex 54.5162349796812 162.045128211939 4.07913720347567
vertex 54.5162349796812 162.243035540294 4.12317969370721
endloop
endfacet
facet normal 2.78462990299638e-014 -0.0729260987013781 0.997337347204143
outer loop
vertex 54.5162349796812 161.842919321462 4.06435152885255
vertex 31.5162349796812 162.045128211939 4.07913720347629
vertex 31.5162349796812 161.842919321462 4.06435152885316
endloop
endfacet
facet normal 2.78462990299638e-014 -0.0729260987013781 0.997337347204143
outer loop
vertex 31.5162349796812 162.045128211939 4.07913720347629
vertex 54.5162349796812 161.842919321462 4.06435152885255
vertex 54.5162349796812 162.045128211939 4.07913720347567
endloop
endfacet
facet normal 2.53355541217172e-014 0.07292609870137 0.997337347204143
outer loop
vertex 31.5162349796812 161.640710430984 4.07913720347629
vertex 54.5162349796812 161.842919321462 4.06435152885255
vertex 31.5162349796812 161.842919321462 4.06435152885316
endloop
endfacet
facet normal 2.53355541217172e-014 0.07292609870137 0.997337347204143
outer loop
vertex 54.5162349796812 161.842919321462 4.06435152885255
vertex 31.5162349796812 161.640710430984 4.07913720347629
vertex 54.5162349796812 161.640710430985 4.07913720347567
endloop
endfacet
facet normal 2.22858494292662e-014 0.217226949161799 0.976121125966372
outer loop
vertex 54.5162349796812 161.44280310263 4.12317969370721
vertex 31.5162349796812 161.640710430984 4.07913720347629
vertex 31.5162349796812 161.44280310263 4.12317969370783
endloop
endfacet
facet normal 2.22858494292662e-014 0.217226949161799 0.976121125966372
outer loop
vertex 31.5162349796812 161.640710430984 4.07913720347629
vertex 54.5162349796812 161.44280310263 4.12317969370721
vertex 54.5162349796812 161.640710430985 4.07913720347567
endloop
endfacet
facet normal 1.87620609042095e-014 0.356906760386978 0.934140013268927
outer loop
vertex 31.5162349796812 161.253407391978 4.19554208966546
vertex 54.5162349796812 161.44280310263 4.12317969370721
vertex 31.5162349796812 161.44280310263 4.12317969370783
endloop
endfacet
facet normal 1.87620609042095e-014 0.356906760386978 0.934140013268927
outer loop
vertex 54.5162349796812 161.44280310263 4.12317969370721
vertex 31.5162349796812 161.253407391978 4.19554208966546
vertex 54.5162349796812 161.253407391978 4.19554208966484
endloop
endfacet
facet normal 1.48391496188008e-014 0.488994142820717 0.872287067591302
outer loop
vertex 31.5162349796813 161.076552288126 4.29468503597836
vertex 54.5162349796812 161.253407391978 4.19554208966484
vertex 31.5162349796812 161.253407391978 4.19554208966546
endloop
endfacet
facet normal 1.48391496188008e-014 0.488994142820717 0.872287067591302
outer loop
vertex 54.5162349796812 161.253407391978 4.19554208966484
vertex 31.5162349796813 161.076552288126 4.29468503597836
vertex 54.5162349796812 161.076552288126 4.29468503597774
endloop
endfacet
facet normal 8.39086563765971e-015 0.666801771767294 0.745235128780171
outer loop
vertex 31.5162349796813 160.775165951055 4.56435152885316
vertex 54.5162349796812 161.076552288126 4.29468503597774
vertex 31.5162349796813 161.076552288126 4.29468503597836
endloop
endfacet
facet normal 8.39086563765971e-015 0.666801771767294 0.745235128780171
outer loop
vertex 54.5162349796812 161.076552288126 4.29468503597774
vertex 31.5162349796813 160.775165951055 4.56435152885316
vertex 54.5162349796812 160.775165951055 4.56435152885255
endloop
endfacet
facet normal 5.64170239959553e-015 0.787505001007591 0.616308261658104
outer loop
vertex 31.5162349796813 160.775165951055 4.56435152885316
vertex 54.5162349796812 160.042919321462 5.49999999999952
vertex 54.5162349796812 160.775165951055 4.56435152885255
endloop
endfacet
facet normal 5.64170239959553e-015 0.787505001007591 0.616308261658104
outer loop
vertex 54.5162349796812 160.042919321462 5.49999999999952
vertex 31.5162349796813 160.775165951055 4.56435152885316
vertex 31.5162349796813 160.042919321462 5.50000000000013
endloop
endfacet
facet normal 1.34254926016999e-014 -6.10522743471622e-013 1.0
outer loop
vertex 54.5162349796812 163.642919321462 5.49999999999952
vertex 31.5162349796812 164.142919321462 5.50000000000013
vertex 31.5162349796812 163.642919321462 5.50000000000013
endloop
endfacet
facet normal 1.34254926016999e-014 -6.10522743471622e-013 1.0
outer loop
vertex 31.5162349796812 164.142919321462 5.50000000000013
vertex 54.5162349796812 163.642919321462 5.49999999999952
vertex 54.5162349796812 164.142919321462 5.50000000000013
endloop
endfacet
facet normal 0.0 0.0 1.0
outer loop
vertex 34.0140545197654 23.6455080096358 2.00000000000013
vertex 33.1162349796813 28.8429193214618 2.00000000000013
vertex 33.1162349796813 25.8130361198708 2.00000000000013
endloop
endfacet
facet normal 0.0 0.0 1.0
outer loop
vertex 33.1162349796813 28.8429193214618 2.00000000000013
vertex 34.0140545197654 23.6455080096358 2.00000000000013
vertex 33.1162349796813 156.442919321462 2.00000000000013
endloop
endfacet
facet normal 0.0 0.0 1.0
outer loop
vertex 29.1162349796812 156.442919321462 2.00000000000013
vertex 31.5162349796812 159.542919321462 2.00000000000013
vertex 29.1162349796812 171.242919321462 2.00000000000013
endloop
endfacet
facet normal 0.0 0.0 1.0
outer loop
vertex 31.5162349796812 159.542919321462 2.00000000000013
vertex 29.1162349796812 156.442919321462 2.00000000000013
vertex 33.1162349796813 156.442919321462 2.00000000000013
endloop
endfacet
facet normal 0.0 0.0 1.0
outer loop
vertex 31.5162349796812 159.542919321462 2.00000000000013
vertex 33.1162349796813 156.442919321462 2.00000000000013
vertex 54.5162349796812 159.542919321462 2.00000000000013
endloop
endfacet
facet normal 0.0 0.0 1.0
outer loop
vertex 54.5162349796812 159.542919321462 2.00000000000013
vertex 33.1162349796813 156.442919321462 2.00000000000013
vertex 52.9162349796812 156.442919321462 2.00000000000013
endloop
endfacet
facet normal 0.0 0.0 1.0
outer loop
vertex 52.9162349796812 156.442919321462 2.00000000000013
vertex 33.1162349796813 156.442919321462 2.00000000000013
vertex 34.0140545197654 23.6455080096358 2.00000000000013
endloop
endfacet
facet normal 0.0 0.0 1.0
outer loop
vertex 52.9162349796812 156.442919321462 2.00000000000013
vertex 34.0140545197654 23.6455080096358 2.00000000000013
vertex 35.6659854132656 21.4926697550462 2.00000000000013
endloop
endfacet
facet normal 0.0 0.0 1.0
outer loop
vertex 52.9162349796812 156.442919321462 2.00000000000013
vertex 35.6659854132656 21.4926697550462 2.00000000000013
vertex 37.8188236678553 19.840738861546 2.00000000000013
endloop
endfacet
facet normal 0.0 0.0 1.0
outer loop
vertex 52.9162349796812 156.442919321462 2.00000000000013
vertex 37.8188236678553 19.840738861546 2.00000000000013
vertex 40.3258569142176 18.8022916895825 2.00000000000013
endloop
endfacet
facet normal 0.0 0.0 1.0
outer loop
vertex 52.9162349796812 156.442919321462 2.00000000000013
vertex 40.3258569142176 18.8022916895825 2.00000000000013
vertex 43.0162349796812 18.4480966978099 2.00000000000013
endloop
endfacet
facet normal 0.0 0.0 1.0
outer loop
vertex 52.9162349796812 156.442919321462 2.00000000000013
vertex 43.0162349796812 18.4480966978099 2.00000000000013
vertex 45.7066130451449 18.8022916895825 2.00000000000013
endloop
endfacet
facet normal 0.0 0.0 1.0
outer loop
vertex 52.9162349796812 156.442919321462 2.00000000000013
vertex 45.7066130451449 18.8022916895825 2.00000000000013
vertex 48.2136462915072 19.840738861546 2.00000000000013
endloop
endfacet
facet normal 0.0 0.0 1.0
outer loop
vertex 52.9162349796812 156.442919321462 2.00000000000013
vertex 48.2136462915072 19.840738861546 2.00000000000013
vertex 50.3664845460968 21.4926697550462 2.00000000000013
endloop
endfacet
facet normal 0.0 0.0 1.0
outer loop
vertex 52.9162349796812 156.442919321462 2.00000000000013
vertex 50.3664845460968 21.4926697550462 2.00000000000013
vertex 52.018415439597 23.6455080096358 2.00000000000013
endloop
endfacet
facet normal 0.0 0.0 1.0
outer loop
vertex 52.9162349796812 156.442919321462 2.00000000000013
vertex 52.018415439597 23.6455080096358 2.00000000000013
vertex 52.9162349796812 25.8130361198708 2.00000000000013
endloop
endfacet
facet normal 0.0 0.0 1.0
outer loop
vertex 52.9162349796812 156.442919321462 2.00000000000013
vertex 52.9162349796812 25.8130361198708 2.00000000000013
vertex 52.9162349796812 28.8429193214618 2.00000000000013
endloop
endfacet
facet normal 0.0 0.0 1.0
outer loop
vertex 54.5162349796812 159.542919321462 2.00000000000013
vertex 52.9162349796812 156.442919321462 2.00000000000013
vertex 56.9162349796812 156.442919321462 2.00000000000013
endloop
endfacet
facet normal 0.0 0.0 1.0
outer loop
vertex 54.5162349796812 159.542919321462 2.00000000000013
vertex 56.9162349796812 156.442919321462 2.00000000000013
vertex 54.5162349796812 164.142919321462 2.00000000000013
endloop
endfacet
facet normal 0.0 0.0 1.0
outer loop
vertex 29.1162349796812 171.242919321462 2.00000000000013
vertex 31.5162349796812 164.142919321462 2.00000000000013
vertex 56.9162349796812 171.242919321462 2.00000000000013
endloop
endfacet
facet normal 0.0 0.0 1.0
outer loop
vertex 31.5162349796812 164.142919321462 2.00000000000013
vertex 29.1162349796812 171.242919321462 2.00000000000013
vertex 31.5162349796812 159.542919321462 2.00000000000013
endloop
endfacet
facet normal 0.0 0.0 1.0
outer loop
vertex 56.9162349796812 171.242919321462 2.00000000000013
vertex 31.5162349796812 164.142919321462 2.00000000000013
vertex 54.5162349796812 164.142919321462 2.00000000000013
endloop
endfacet
facet normal 0.0 0.0 1.0
outer loop
vertex 56.9162349796812 171.242919321462 2.00000000000013
vertex 54.5162349796812 164.142919321462 2.00000000000013
vertex 56.9162349796812 156.442919321462 2.00000000000013
endloop
endfacet
facet normal 0.0 0.0 -1.0
outer loop
vertex 56.9162349796812 171.242919321462 0.300000000000135
vertex 29.1162349796812 156.442919321462 0.300000000000135
vertex 29.1162349796812 171.242919321462 0.300000000000135
endloop
endfacet
facet normal 0.0 0.0 -1.0
outer loop
vertex 29.1162349796812 156.442919321462 0.300000000000135
vertex 56.9162349796812 171.242919321462 0.300000000000135
vertex 33.1162349796813 156.442919321462 0.300000000000135
endloop
endfacet
facet normal 0.0 0.0 -1.0
outer loop
vertex 33.1162349796813 156.442919321462 0.300000000000135
vertex 56.9162349796812 171.242919321462 0.300000000000135
vertex 52.9162349796812 156.442919321462 0.300000000000135
endloop
endfacet
facet normal 0.0 0.0 -1.0
outer loop
vertex 33.1162349796813 156.442919321462 0.300000000000135
vertex 52.9162349796812 156.442919321462 0.300000000000135
vertex 33.1162349796813 28.8429193214618 0.300000000000135
endloop
endfacet
facet normal 0.0 0.0 -1.0
outer loop
vertex 33.1162349796813 28.8429193214618 0.300000000000135
vertex 52.9162349796812 156.442919321462 0.300000000000135
vertex 33.1162349796813 25.8130361198708 0.300000000000135
endloop
endfacet
facet normal 0.0 0.0 -1.0
outer loop
vertex 33.1162349796813 25.8130361198708 0.300000000000135
vertex 52.9162349796812 156.442919321462 0.300000000000135
vertex 34.0140545197654 23.6455080096358 0.300000000000135
endloop
endfacet
facet normal 0.0 0.0 -1.0
outer loop
vertex 34.0140545197654 23.6455080096358 0.300000000000135
vertex 52.9162349796812 156.442919321462 0.300000000000135
vertex 35.6659854132656 21.4926697550462 0.300000000000135
endloop
endfacet
facet normal 0.0 0.0 -1.0
outer loop
vertex 35.6659854132656 21.4926697550462 0.300000000000135
vertex 52.9162349796812 156.442919321462 0.300000000000135
vertex 37.8188236678553 19.840738861546 0.300000000000135
endloop
endfacet
facet normal 0.0 0.0 -1.0
outer loop
vertex 37.8188236678553 19.840738861546 0.300000000000135
vertex 52.9162349796812 156.442919321462 0.300000000000135
vertex 40.3258569142176 18.8022916895825 0.300000000000135
endloop
endfacet
facet normal 0.0 0.0 -1.0
outer loop
vertex 40.3258569142176 18.8022916895825 0.300000000000135
vertex 52.9162349796812 156.442919321462 0.300000000000135
vertex 43.0162349796812 18.4480966978099 0.300000000000135
endloop
endfacet
facet normal 0.0 0.0 -1.0
outer loop
vertex 43.0162349796812 18.4480966978099 0.300000000000135
vertex 52.9162349796812 156.442919321462 0.300000000000135
vertex 45.7066130451449 18.8022916895825 0.300000000000135
endloop
endfacet
facet normal 0.0 0.0 -1.0
outer loop
vertex 45.7066130451449 18.8022916895825 0.300000000000135
vertex 52.9162349796812 156.442919321462 0.300000000000135
vertex 48.2136462915072 19.840738861546 0.300000000000135
endloop
endfacet
facet normal 0.0 0.0 -1.0
outer loop
vertex 48.2136462915072 19.840738861546 0.300000000000135
vertex 52.9162349796812 156.442919321462 0.300000000000135
vertex 50.3664845460968 21.4926697550462 0.300000000000135
endloop
endfacet
facet normal 0.0 0.0 -1.0
outer loop
vertex 50.3664845460968 21.4926697550462 0.300000000000135
vertex 52.9162349796812 156.442919321462 0.300000000000135
vertex 52.018415439597 23.6455080096358 0.300000000000135
endloop
endfacet
facet normal 0.0 0.0 -1.0
outer loop
vertex 52.9162349796812 156.442919321462 0.300000000000135
vertex 56.9162349796812 171.242919321462 0.300000000000135
vertex 56.9162349796812 156.442919321462 0.300000000000135
endloop
endfacet
facet normal 0.0 0.0 -1.0
outer loop
vertex 52.9162349796812 156.442919321462 0.300000000000135
vertex 52.9162349796812 25.8130361198708 0.300000000000135
vertex 52.018415439597 23.6455080096358 0.300000000000135
endloop
endfacet
facet normal 0.0 0.0 -1.0
outer loop
vertex 52.9162349796812 25.8130361198708 0.300000000000135
vertex 52.9162349796812 156.442919321462 0.300000000000135
vertex 52.9162349796812 28.8429193214618 0.300000000000135
endloop
endfacet
facet normal 0.560985526796927 -0.430459334576881 0.707106781186549
outer loop
vertex 50.7944095727333 21.0647447284098 1.40000000000013
vertex 52.018415439597 23.6455080096358 2.00000000000013
vertex 50.3664845460968 21.4926697550462 2.00000000000013
endloop
endfacet
facet normal 0.560985526796927 -0.430459334576881 0.707106781186549
outer loop
vertex 52.018415439597 23.6455080096358 2.00000000000013
vertex 50.7944095727333 21.0647447284098 1.40000000000013
vertex 52.5425144213101 23.3429193214618 1.40000000000013
endloop
endfacet
facet normal -0.270598050073099 -0.653281482438189 -0.707106781186547
outer loop
vertex 37.8188236678553 19.840738861546 0.300000000000135
vertex 40.1692254835535 18.217735232282 0.900000000000135
vertex 37.5162349796812 19.316639879833 0.900000000000135
endloop
endfacet
facet normal -0.270598050073099 -0.653281482438189 -0.707106781186547
outer loop
vertex 40.1692254835535 18.217735232282 0.900000000000135
vertex 37.8188236678553 19.840738861546 0.300000000000135
vertex 40.3258569142176 18.8022916895825 0.300000000000135
endloop
endfacet
facet normal 0.707106781186548 2.00308663322626e-020 0.707106781186547
outer loop
vertex 53.5162349796812 155.842919321462 1.40000000000013
vertex 52.9162349796812 28.8429193214618 2.00000000000013
vertex 53.5162349796812 28.8429193214618 1.40000000000013
endloop
endfacet
facet normal 0.707106781186548 2.00308663322626e-020 0.707106781186547
outer loop
vertex 52.9162349796812 28.8429193214618 2.00000000000013
vertex 53.5162349796812 155.842919321462 1.40000000000013
vertex 52.9162349796812 156.442919321462 2.00000000000013
endloop
endfacet
facet normal -0.707106781186548 -3.9659876426407e-018 -0.707106781186547
outer loop
vertex 32.5162349796813 28.8429193214618 0.900000000000135
vertex 33.1162349796813 25.8130361198708 0.300000000000135
vertex 32.5162349796813 25.693688699443 0.900000000000135
endloop
endfacet
facet normal -0.707106781186548 -3.9659876426407e-018 -0.707106781186547
outer loop
vertex 33.1162349796813 25.8130361198708 0.300000000000135
vertex 32.5162349796813 28.8429193214618 0.900000000000135
vertex 33.1162349796813 28.8429193214618 0.300000000000135
endloop
endfacet
facet normal -0.653281482438193 -0.270598050073088 0.707106781186547
outer loop
vertex 33.4899555380524 23.3429193214618 1.40000000000013
vertex 33.1162349796813 25.8130361198708 2.00000000000013
vertex 32.5162349796813 25.693688699443 1.40000000000013
endloop
endfacet
facet normal -0.653281482438193 -0.270598050073088 0.707106781186547
outer loop
vertex 33.1162349796813 25.8130361198708 2.00000000000013
vertex 33.4899555380524 23.3429193214618 1.40000000000013
vertex 34.0140545197654 23.6455080096358 2.00000000000013
endloop
endfacet
facet normal -2.70506500536266e-018 -0.707106781186548 0.707106781186547
outer loop
vertex 56.9162349796812 156.442919321462 2.00000000000013
vertex 53.5162349796812 155.842919321462 1.40000000000013
vertex 57.5162349796812 155.842919321462 1.40000000000013
endloop
endfacet
facet normal -2.70506500536266e-018 -0.707106781186548 0.707106781186547
outer loop
vertex 53.5162349796812 155.842919321462 1.40000000000013
vertex 56.9162349796812 156.442919321462 2.00000000000013
vertex 52.9162349796812 156.442919321462 2.00000000000013
endloop
endfacet
facet normal 5.41013001072533e-018 -0.707106781186548 -0.707106781186547
outer loop
vertex 32.5162349796813 155.842919321462 0.900000000000135
vertex 29.1162349796812 156.442919321462 0.300000000000135
vertex 33.1162349796813 156.442919321462 0.300000000000135
endloop
endfacet
facet normal 5.41013001072533e-018 -0.707106781186548 -0.707106781186547
outer loop
vertex 29.1162349796812 156.442919321462 0.300000000000135
vertex 32.5162349796813 155.842919321462 0.900000000000135
vertex 28.5162349796812 155.842919321462 0.900000000000135
endloop
endfacet
facet normal 0.430459334576873 -0.560985526796934 0.707106781186549
outer loop
vertex 48.5162349796812 19.316639879833 1.40000000000013
vertex 50.3664845460968 21.4926697550462 2.00000000000013
vertex 48.2136462915072 19.840738861546 2.00000000000013
endloop
endfacet
facet normal 0.430459334576873 -0.560985526796934 0.707106781186549
outer loop
vertex 50.3664845460968 21.4926697550462 2.00000000000013
vertex 48.5162349796812 19.316639879833 1.40000000000013
vertex 50.7944095727333 21.0647447284098 1.40000000000013
endloop
endfacet
facet normal -0.430459334576878 -0.56098552679693 0.707106781186549
outer loop
vertex 37.5162349796812 19.316639879833 1.40000000000013
vertex 35.6659854132656 21.4926697550462 2.00000000000013
vertex 35.2380603866292 21.0647447284098 1.40000000000013
endloop
endfacet
facet normal -0.430459334576878 -0.56098552679693 0.707106781186549
outer loop
vertex 35.6659854132656 21.4926697550462 2.00000000000013
vertex 37.5162349796812 19.316639879833 1.40000000000013
vertex 37.8188236678553 19.840738861546 2.00000000000013
endloop
endfacet
facet normal 8.11519501608799e-018 -0.707106781186548 0.707106781186547
outer loop
vertex 33.1162349796813 156.442919321462 2.00000000000013
vertex 28.5162349796812 155.842919321462 1.40000000000013
vertex 32.5162349796813 155.842919321462 1.40000000000013
endloop
endfacet
facet normal 8.11519501608799e-018 -0.707106781186548 0.707106781186547
outer loop
vertex 28.5162349796812 155.842919321462 1.40000000000013
vertex 33.1162349796813 156.442919321462 2.00000000000013
vertex 29.1162349796812 156.442919321462 2.00000000000013
endloop
endfacet
facet normal -0.707106781186548 -8.3295687159603e-019 0.707106781186547
outer loop
vertex 29.1162349796812 156.442919321462 2.00000000000013
vertex 28.5162349796812 171.842919321462 1.40000000000013
vertex 28.5162349796812 155.842919321462 1.40000000000013
endloop
endfacet
facet normal -0.707106781186548 -8.3295687159603e-019 0.707106781186547
outer loop
vertex 28.5162349796812 171.842919321462 1.40000000000013
vertex 29.1162349796812 156.442919321462 2.00000000000013
vertex 29.1162349796812 171.242919321462 2.00000000000013
endloop
endfacet
facet normal 0.0922959556412571 -0.701057384649978 0.707106781186547
outer loop
vertex 45.863244475809 18.217735232282 1.40000000000013
vertex 43.0162349796812 18.4480966978099 2.00000000000013
vertex 43.0162349796812 17.8429193214618 1.40000000000013
endloop
endfacet
facet normal 0.0922959556412571 -0.701057384649978 0.707106781186547
outer loop
vertex 43.0162349796812 18.4480966978099 2.00000000000013
vertex 45.863244475809 18.217735232282 1.40000000000013
vertex 45.7066130451449 18.8022916895825 2.00000000000013
endloop
endfacet
facet normal 0.707106781186548 1.17514415815941e-019 -0.707106781186547
outer loop
vertex 52.9162349796812 156.442919321462 0.300000000000135
vertex 53.5162349796812 28.8429193214618 0.900000000000135
vertex 52.9162349796812 28.8429193214618 0.300000000000135
endloop
endfacet
facet normal 0.707106781186548 1.17514415815941e-019 -0.707106781186547
outer loop
vertex 53.5162349796812 28.8429193214618 0.900000000000135
vertex 52.9162349796812 156.442919321462 0.300000000000135
vertex 53.5162349796812 155.842919321462 0.900000000000135
endloop
endfacet
facet normal 0.270598050073101 -0.653281482438186 -0.707106781186549
outer loop
vertex 48.2136462915072 19.840738861546 0.300000000000135
vertex 45.863244475809 18.217735232282 0.900000000000135
vertex 45.7066130451449 18.8022916895825 0.300000000000135
endloop
endfacet
facet normal 0.270598050073101 -0.653281482438186 -0.707106781186549
outer loop
vertex 45.863244475809 18.217735232282 0.900000000000135
vertex 48.2136462915072 19.840738861546 0.300000000000135
vertex 48.5162349796812 19.316639879833 0.900000000000135
endloop
endfacet
facet normal 0.707106781186548 -8.3295687159603e-019 0.707106781186547
outer loop
vertex 57.5162349796812 171.842919321462 1.40000000000013
vertex 56.9162349796812 156.442919321462 2.00000000000013
vertex 57.5162349796812 155.842919321462 1.40000000000013
endloop
endfacet
facet normal 0.707106781186548 -8.3295687159603e-019 0.707106781186547
outer loop
vertex 56.9162349796812 156.442919321462 2.00000000000013
vertex 57.5162349796812 171.842919321462 1.40000000000013
vertex 56.9162349796812 171.242919321462 2.00000000000013
endloop
endfacet
facet normal -0.0922959556412571 -0.701057384649978 0.707106781186548
outer loop
vertex 43.0162349796812 17.8429193214618 1.40000000000013
vertex 40.3258569142176 18.8022916895825 2.00000000000013
vertex 40.1692254835535 18.217735232282 1.40000000000013
endloop
endfacet
facet normal -0.0922959556412571 -0.701057384649978 0.707106781186548
outer loop
vertex 40.3258569142176 18.8022916895825 2.00000000000013
vertex 43.0162349796812 17.8429193214618 1.40000000000013
vertex 43.0162349796812 18.4480966978099 2.00000000000013
endloop
endfacet
facet normal -0.430459334576878 -0.56098552679693 -0.707106781186549
outer loop
vertex 35.6659854132656 21.4926697550462 0.300000000000135
vertex 37.5162349796812 19.316639879833 0.900000000000135
vertex 35.2380603866292 21.0647447284098 0.900000000000135
endloop
endfacet
facet normal -0.430459334576878 -0.56098552679693 -0.707106781186549
outer loop
vertex 37.5162349796812 19.316639879833 0.900000000000135
vertex 35.6659854132656 21.4926697550462 0.300000000000135
vertex 37.8188236678553 19.840738861546 0.300000000000135
endloop
endfacet
facet normal -0.56098552679693 -0.430459334576883 0.707106781186546
outer loop
vertex 35.2380603866292 21.0647447284098 1.40000000000013
vertex 34.0140545197654 23.6455080096358 2.00000000000013
vertex 33.4899555380524 23.3429193214618 1.40000000000013
endloop
endfacet
facet normal -0.56098552679693 -0.430459334576883 0.707106781186546
outer loop
vertex 34.0140545197654 23.6455080096358 2.00000000000013
vertex 35.2380603866292 21.0647447284098 1.40000000000013
vertex 35.6659854132656 21.4926697550462 2.00000000000013
endloop
endfacet
facet normal -0.707106781186548 1.69970898970316e-018 0.707106781186547
outer loop
vertex 33.1162349796813 25.8130361198708 2.00000000000013
vertex 32.5162349796813 28.8429193214618 1.40000000000013
vertex 32.5162349796813 25.693688699443 1.40000000000013
endloop
endfacet
facet normal -0.707106781186548 1.69970898970316e-018 0.707106781186547
outer loop
vertex 32.5162349796813 28.8429193214618 1.40000000000013
vertex 33.1162349796813 25.8130361198708 2.00000000000013
vertex 33.1162349796813 28.8429193214618 2.00000000000013
endloop
endfacet
facet normal -0.0922959556412571 -0.701057384649978 -0.707106781186548
outer loop
vertex 40.3258569142176 18.8022916895825 0.300000000000135
vertex 43.0162349796812 17.8429193214618 0.900000000000135
vertex 40.1692254835535 18.217735232282 0.900000000000135
endloop
endfacet
facet normal -0.0922959556412571 -0.701057384649978 -0.707106781186548
outer loop
vertex 43.0162349796812 17.8429193214618 0.900000000000135
vertex 40.3258569142176 18.8022916895825 0.300000000000135
vertex 43.0162349796812 18.4480966978099 0.300000000000135
endloop
endfacet
facet normal -0.653281482438193 -0.270598050073088 -0.707106781186547
outer loop
vertex 33.1162349796813 25.8130361198708 0.300000000000135
vertex 33.4899555380524 23.3429193214618 0.900000000000135
vertex 32.5162349796813 25.693688699443 0.900000000000135
endloop
endfacet
facet normal -0.653281482438193 -0.270598050073088 -0.707106781186547
outer loop
vertex 33.4899555380524 23.3429193214618 0.900000000000135
vertex 33.1162349796813 25.8130361198708 0.300000000000135
vertex 34.0140545197654 23.6455080096358 0.300000000000135
endloop
endfacet
facet normal -0.270598050073099 -0.653281482438189 0.707106781186547
outer loop
vertex 40.1692254835535 18.217735232282 1.40000000000013
vertex 37.8188236678553 19.840738861546 2.00000000000013
vertex 37.5162349796812 19.316639879833 1.40000000000013
endloop
endfacet
facet normal -0.270598050073099 -0.653281482438189 0.707106781186547
outer loop
vertex 37.8188236678553 19.840738861546 2.00000000000013
vertex 40.1692254835535 18.217735232282 1.40000000000013
vertex 40.3258569142176 18.8022916895825 2.00000000000013
endloop
endfacet
facet normal 0.560985526796928 -0.430459334576882 -0.707106781186549
outer loop
vertex 52.018415439597 23.6455080096358 0.300000000000135
vertex 50.7944095727333 21.0647447284098 0.900000000000135
vertex 50.3664845460968 21.4926697550462 0.300000000000135
endloop
endfacet
facet normal 0.560985526796928 -0.430459334576882 -0.707106781186549
outer loop
vertex 50.7944095727333 21.0647447284098 0.900000000000135
vertex 52.018415439597 23.6455080096358 0.300000000000135
vertex 52.5425144213101 23.3429193214618 0.900000000000135
endloop
endfacet
facet normal -0.707106781186548 1.17514415815941e-019 -0.707106781186547
outer loop
vertex 32.5162349796813 155.842919321462 0.900000000000135
vertex 33.1162349796813 28.8429193214618 0.300000000000135
vertex 32.5162349796813 28.8429193214618 0.900000000000135
endloop
endfacet
facet normal -0.707106781186548 1.17514415815941e-019 -0.707106781186547
outer loop
vertex 33.1162349796813 28.8429193214618 0.300000000000135
vertex 32.5162349796813 155.842919321462 0.900000000000135
vertex 33.1162349796813 156.442919321462 0.300000000000135
endloop
endfacet
facet normal 0.707106781186548 1.69970898970316e-018 0.707106781186547
outer loop
vertex 53.5162349796812 28.8429193214618 1.40000000000013
vertex 52.9162349796812 25.8130361198708 2.00000000000013
vertex 53.5162349796812 25.693688699443 1.40000000000013
endloop
endfacet
facet normal 0.707106781186548 1.69970898970316e-018 0.707106781186547
outer loop
vertex 52.9162349796812 25.8130361198708 2.00000000000013
vertex 53.5162349796812 28.8429193214618 1.40000000000013
vertex 52.9162349796812 28.8429193214618 2.00000000000013
endloop
endfacet
facet normal -0.707106781186548 -5.91851454314018e-033 -0.707106781186547
outer loop
vertex 28.5162349796812 171.842919321462 0.900000000000135
vertex 29.1162349796812 156.442919321462 0.300000000000135
vertex 28.5162349796812 155.842919321462 0.900000000000135
endloop
endfacet
facet normal -0.707106781186548 -5.91851454314018e-033 -0.707106781186547
outer loop
vertex 29.1162349796812 156.442919321462 0.300000000000135
vertex 28.5162349796812 171.842919321462 0.900000000000135
vertex 29.1162349796812 171.242919321462 0.300000000000135
endloop
endfacet
facet normal 0.092295955641257 -0.701057384649978 -0.707106781186548
outer loop
vertex 45.7066130451449 18.8022916895825 0.300000000000135
vertex 43.0162349796812 17.8429193214618 0.900000000000135
vertex 43.0162349796812 18.4480966978099 0.300000000000135
endloop
endfacet
facet normal 0.092295955641257 -0.701057384649978 -0.707106781186548
outer loop
vertex 43.0162349796812 17.8429193214618 0.900000000000135
vertex 45.7066130451449 18.8022916895825 0.300000000000135
vertex 45.863244475809 18.217735232282 0.900000000000135
endloop
endfacet
facet normal -0.707106781186548 2.00308663322626e-020 0.707106781186547
outer loop
vertex 33.1162349796813 156.442919321462 2.00000000000013
vertex 32.5162349796813 28.8429193214618 1.40000000000013
vertex 33.1162349796813 28.8429193214618 2.00000000000013
endloop
endfacet
facet normal -0.707106781186548 2.00308663322626e-020 0.707106781186547
outer loop
vertex 32.5162349796813 28.8429193214618 1.40000000000013
vertex 33.1162349796813 156.442919321462 2.00000000000013
vertex 32.5162349796813 155.842919321462 1.40000000000013
endloop
endfacet
facet normal 0.0 0.707106781186548 -0.707106781186547
outer loop
vertex 28.5162349796812 171.842919321462 0.900000000000135
vertex 56.9162349796812 171.242919321462 0.300000000000135
vertex 29.1162349796812 171.242919321462 0.300000000000135
endloop
endfacet
facet normal 0.0 0.707106781186548 -0.707106781186547
outer loop
vertex 56.9162349796812 171.242919321462 0.300000000000135
vertex 28.5162349796812 171.842919321462 0.900000000000135
vertex 57.5162349796812 171.842919321462 0.900000000000135
endloop
endfacet
facet normal -0.56098552679693 -0.430459334576883 -0.707106781186546
outer loop
vertex 34.0140545197654 23.6455080096358 0.300000000000135
vertex 35.2380603866292 21.0647447284098 0.900000000000135
vertex 33.4899555380524 23.3429193214618 0.900000000000135
endloop
endfacet
facet normal -0.56098552679693 -0.430459334576883 -0.707106781186546
outer loop
vertex 35.2380603866292 21.0647447284098 0.900000000000135
vertex 34.0140545197654 23.6455080096358 0.300000000000135
vertex 35.6659854132656 21.4926697550462 0.300000000000135
endloop
endfacet
facet normal 0.270598050073101 -0.653281482438186 0.707106781186549
outer loop
vertex 45.863244475809 18.217735232282 1.40000000000013
vertex 48.2136462915072 19.840738861546 2.00000000000013
vertex 45.7066130451449 18.8022916895825 2.00000000000013
endloop
endfacet
facet normal 0.270598050073101 -0.653281482438186 0.707106781186549
outer loop
vertex 48.2136462915072 19.840738861546 2.00000000000013
vertex 45.863244475809 18.217735232282 1.40000000000013
vertex 48.5162349796812 19.316639879833 1.40000000000013
endloop
endfacet
facet normal 0.0 0.707106781186548 0.707106781186547
outer loop
vertex 29.1162349796812 171.242919321462 2.00000000000013
vertex 57.5162349796812 171.842919321462 1.40000000000013
vertex 28.5162349796812 171.842919321462 1.40000000000013
endloop
endfacet
facet normal 0.0 0.707106781186548 0.707106781186547
outer loop
vertex 57.5162349796812 171.842919321462 1.40000000000013
vertex 29.1162349796812 171.242919321462 2.00000000000013
vertex 56.9162349796812 171.242919321462 2.00000000000013
endloop
endfacet
facet normal 0.707106781186548 -3.9659876426407e-018 -0.707106781186547
outer loop
vertex 52.9162349796812 25.8130361198708 0.300000000000135
vertex 53.5162349796812 28.8429193214618 0.900000000000135
vertex 53.5162349796812 25.693688699443 0.900000000000135
endloop
endfacet
facet normal 0.707106781186548 -3.9659876426407e-018 -0.707106781186547
outer loop
vertex 53.5162349796812 28.8429193214618 0.900000000000135
vertex 52.9162349796812 25.8130361198708 0.300000000000135
vertex 52.9162349796812 28.8429193214618 0.300000000000135
endloop
endfacet
facet normal 0.653281482438193 -0.270598050073088 -0.707106781186547
outer loop
vertex 52.9162349796812 25.8130361198708 0.300000000000135
vertex 52.5425144213101 23.3429193214618 0.900000000000135
vertex 52.018415439597 23.6455080096358 0.300000000000135
endloop
endfacet
facet normal 0.653281482438193 -0.270598050073088 -0.707106781186547
outer loop
vertex 52.5425144213101 23.3429193214618 0.900000000000135
vertex 52.9162349796812 25.8130361198708 0.300000000000135
vertex 53.5162349796812 25.693688699443 0.900000000000135
endloop
endfacet
facet normal 0.653281482438193 -0.270598050073088 0.707106781186547
outer loop
vertex 52.5425144213101 23.3429193214618 1.40000000000013
vertex 52.9162349796812 25.8130361198708 2.00000000000013
vertex 52.018415439597 23.6455080096358 2.00000000000013
endloop
endfacet
facet normal 0.653281482438193 -0.270598050073088 0.707106781186547
outer loop
vertex 52.9162349796812 25.8130361198708 2.00000000000013
vertex 52.5425144213101 23.3429193214618 1.40000000000013
vertex 53.5162349796812 25.693688699443 1.40000000000013
endloop
endfacet
facet normal 0.707106781186548 -5.91851454314018e-033 -0.707106781186547
outer loop
vertex 56.9162349796812 156.442919321462 0.300000000000135
vertex 57.5162349796812 171.842919321462 0.900000000000135
vertex 57.5162349796812 155.842919321462 0.900000000000135
endloop
endfacet
facet normal 0.707106781186548 -5.91851454314018e-033 -0.707106781186547
outer loop
vertex 57.5162349796812 171.842919321462 0.900000000000135
vertex 56.9162349796812 156.442919321462 0.300000000000135
vertex 56.9162349796812 171.242919321462 0.300000000000135
endloop
endfacet
facet normal -1.08202600214507e-017 -0.707106781186548 -0.707106781186547
outer loop
vertex 57.5162349796812 155.842919321462 0.900000000000135
vertex 52.9162349796812 156.442919321462 0.300000000000135
vertex 56.9162349796812 156.442919321462 0.300000000000135
endloop
endfacet
facet normal -1.08202600214507e-017 -0.707106781186548 -0.707106781186547
outer loop
vertex 52.9162349796812 156.442919321462 0.300000000000135
vertex 57.5162349796812 155.842919321462 0.900000000000135
vertex 53.5162349796812 155.842919321462 0.900000000000135
endloop
endfacet
facet normal 0.430459334576873 -0.560985526796935 -0.707106781186549
outer loop
vertex 50.3664845460968 21.4926697550462 0.300000000000135
vertex 48.5162349796812 19.316639879833 0.900000000000135
vertex 48.2136462915072 19.840738861546 0.300000000000135
endloop
endfacet
facet normal 0.430459334576873 -0.560985526796935 -0.707106781186549
outer loop
vertex 48.5162349796812 19.316639879833 0.900000000000135
vertex 50.3664845460968 21.4926697550462 0.300000000000135
vertex 50.7944095727333 21.0647447284098 0.900000000000135
endloop
endfacet
facet normal 1.0 0.0 0.0
outer loop
vertex 57.5162349796812 171.842919321462 0.900000000000135
vertex 57.5162349796812 155.842919321462 1.40000000000013
vertex 57.5162349796812 155.842919321462 0.900000000000135
endloop
endfacet
facet normal 1.0 0.0 0.0
outer loop
vertex 57.5162349796812 155.842919321462 1.40000000000013
vertex 57.5162349796812 171.842919321462 0.900000000000135
vertex 57.5162349796812 171.842919321462 1.40000000000013
endloop
endfacet
facet normal -0.793353340291232 -0.608761429008725 0.0
outer loop
vertex 33.4899555380524 23.3429193214618 1.40000000000013
vertex 35.2380603866292 21.0647447284098 0.900000000000135
vertex 35.2380603866292 21.0647447284098 1.40000000000013
endloop
endfacet
facet normal -0.793353340291232 -0.608761429008725 0.0
outer loop
vertex 35.2380603866292 21.0647447284098 0.900000000000135
vertex 33.4899555380524 23.3429193214618 1.40000000000013
vertex 33.4899555380524 23.3429193214618 0.900000000000135
endloop
endfacet
facet normal -1.0 0.0 0.0
outer loop
vertex 32.5162349796813 28.8429193214618 1.40000000000013
vertex 32.5162349796813 25.693688699443 0.900000000000135
vertex 32.5162349796813 25.693688699443 1.40000000000013
endloop
endfacet
facet normal -1.0 0.0 0.0
outer loop
vertex 32.5162349796813 25.693688699443 0.900000000000135
vertex 32.5162349796813 28.8429193214618 1.40000000000013
vertex 32.5162349796813 28.8429193214618 0.900000000000135
endloop
endfacet
facet normal 0.793353340291232 -0.608761429008725 0.0
outer loop
vertex 52.5425144213101 23.3429193214618 0.900000000000135
vertex 50.7944095727333 21.0647447284098 1.40000000000013
vertex 50.7944095727333 21.0647447284098 0.900000000000135
endloop
endfacet
facet normal 0.793353340291232 -0.608761429008725 0.0
outer loop
vertex 50.7944095727333 21.0647447284098 1.40000000000013
vertex 52.5425144213101 23.3429193214618 0.900000000000135
vertex 52.5425144213101 23.3429193214618 1.40000000000013
endloop
endfacet
facet normal -0.38268343236509 -0.923879532511287 -1.07072355853433e-016
outer loop
vertex 40.1692254835535 18.217735232282 1.40000000000013
vertex 37.5162349796812 19.316639879833 0.900000000000135
vertex 40.1692254835535 18.217735232282 0.900000000000135
endloop
endfacet
facet normal -0.38268343236509 -0.923879532511287 -1.07072355853433e-016
outer loop
vertex 37.5162349796812 19.316639879833 0.900000000000135
vertex 40.1692254835535 18.217735232282 1.40000000000013
vertex 37.5162349796812 19.316639879833 1.40000000000013
endloop
endfacet
facet normal -1.0 0.0 0.0
outer loop
vertex 28.5162349796812 171.842919321462 1.40000000000013
vertex 28.5162349796812 155.842919321462 0.900000000000135
vertex 28.5162349796812 155.842919321462 1.40000000000013
endloop
endfacet
facet normal -1.0 0.0 0.0
outer loop
vertex 28.5162349796812 155.842919321462 0.900000000000135
vertex 28.5162349796812 171.842919321462 1.40000000000013
vertex 28.5162349796812 171.842919321462 0.900000000000135
endloop
endfacet
facet normal -1.0 0.0 0.0
outer loop
vertex 32.5162349796813 155.842919321462 1.40000000000013
vertex 32.5162349796813 28.8429193214618 0.900000000000135
vertex 32.5162349796813 28.8429193214618 1.40000000000013
endloop
endfacet
facet normal -1.0 0.0 0.0
outer loop
vertex 32.5162349796813 28.8429193214618 0.900000000000135
vertex 32.5162349796813 155.842919321462 1.40000000000013
vertex 32.5162349796813 155.842919321462 0.900000000000135
endloop
endfacet
facet normal 0.0 1.0 0.0
outer loop
vertex 28.5162349796812 171.842919321462 1.40000000000013
vertex 57.5162349796812 171.842919321462 0.900000000000135
vertex 28.5162349796812 171.842919321462 0.900000000000135
endloop
endfacet
facet normal 0.0 1.0 0.0
outer loop
vertex 57.5162349796812 171.842919321462 0.900000000000135
vertex 28.5162349796812 171.842919321462 1.40000000000013
vertex 57.5162349796812 171.842919321462 1.40000000000013
endloop
endfacet
facet normal 1.0 0.0 0.0
outer loop
vertex 53.5162349796812 155.842919321462 0.900000000000135
vertex 53.5162349796812 28.8429193214618 1.40000000000013
vertex 53.5162349796812 28.8429193214618 0.900000000000135
endloop
endfacet
facet normal 1.0 0.0 0.0
outer loop
vertex 53.5162349796812 28.8429193214618 1.40000000000013
vertex 53.5162349796812 155.842919321462 0.900000000000135
vertex 53.5162349796812 155.842919321462 1.40000000000013
endloop
endfacet
facet normal 0.0 -1.0 0.0
outer loop
vertex 32.5162349796813 155.842919321462 1.40000000000013
vertex 28.5162349796812 155.842919321462 0.900000000000135
vertex 32.5162349796813 155.842919321462 0.900000000000135
endloop
endfacet
facet normal 0.0 -1.0 0.0
outer loop
vertex 28.5162349796812 155.842919321462 0.900000000000135
vertex 32.5162349796813 155.842919321462 1.40000000000013
vertex 28.5162349796812 155.842919321462 1.40000000000013
endloop
endfacet
facet normal -0.923879532511293 -0.382683432365075 0.0
outer loop
vertex 32.5162349796813 25.693688699443 1.40000000000013
vertex 33.4899555380524 23.3429193214618 0.900000000000135
vertex 33.4899555380524 23.3429193214618 1.40000000000013
endloop
endfacet
facet normal -0.923879532511293 -0.382683432365075 0.0
outer loop
vertex 33.4899555380524 23.3429193214618 0.900000000000135
vertex 32.5162349796813 25.693688699443 1.40000000000013
vertex 32.5162349796813 25.693688699443 0.900000000000135
endloop
endfacet
facet normal 0.608761429008713 -0.793353340291241 -8.51637604923448e-017
outer loop
vertex 50.7944095727333 21.0647447284098 1.40000000000013
vertex 48.5162349796812 19.316639879833 0.900000000000135
vertex 50.7944095727333 21.0647447284098 0.900000000000135
endloop
endfacet
facet normal 0.608761429008713 -0.793353340291241 -8.51637604923448e-017
outer loop
vertex 48.5162349796812 19.316639879833 0.900000000000135
vertex 50.7944095727333 21.0647447284098 1.40000000000013
vertex 48.5162349796812 19.316639879833 1.40000000000013
endloop
endfacet
facet normal -0.60876142900872 -0.793353340291236 0.0
outer loop
vertex 37.5162349796812 19.316639879833 1.40000000000013
vertex 35.2380603866292 21.0647447284098 0.900000000000135
vertex 37.5162349796812 19.316639879833 0.900000000000135
endloop
endfacet
facet normal -0.60876142900872 -0.793353340291236 0.0
outer loop
vertex 35.2380603866292 21.0647447284098 0.900000000000135
vertex 37.5162349796812 19.316639879833 1.40000000000013
vertex 35.2380603866292 21.0647447284098 1.40000000000013
endloop
endfacet
facet normal 0.130526192220051 -0.99144486137381 0.0
outer loop
vertex 45.863244475809 18.217735232282 1.40000000000013
vertex 43.0162349796812 17.8429193214618 0.900000000000135
vertex 45.863244475809 18.217735232282 0.900000000000135
endloop
endfacet
facet normal 0.130526192220051 -0.99144486137381 0.0
outer loop
vertex 43.0162349796812 17.8429193214618 0.900000000000135
vertex 45.863244475809 18.217735232282 1.40000000000013
vertex 43.0162349796812 17.8429193214618 1.40000000000013
endloop
endfacet
facet normal 1.0 0.0 0.0
outer loop
vertex 53.5162349796812 28.8429193214618 0.900000000000135
vertex 53.5162349796812 25.693688699443 1.40000000000013
vertex 53.5162349796812 25.693688699443 0.900000000000135
endloop
endfacet
facet normal 1.0 0.0 0.0
outer loop
vertex 53.5162349796812 25.693688699443 1.40000000000013
vertex 53.5162349796812 28.8429193214618 0.900000000000135
vertex 53.5162349796812 28.8429193214618 1.40000000000013
endloop
endfacet
facet normal 0.923879532511293 -0.382683432365074 0.0
outer loop
vertex 53.5162349796812 25.693688699443 0.900000000000135
vertex 52.5425144213101 23.3429193214618 1.40000000000013
vertex 52.5425144213101 23.3429193214618 0.900000000000135
endloop
endfacet
facet normal 0.923879532511293 -0.382683432365074 0.0
outer loop
vertex 52.5425144213101 23.3429193214618 1.40000000000013
vertex 53.5162349796812 25.693688699443 0.900000000000135
vertex 53.5162349796812 25.693688699443 1.40000000000013
endloop
endfacet
facet normal -0.130526192220051 -0.99144486137381 3.46749846047582e-017
outer loop
vertex 43.0162349796812 17.8429193214618 1.40000000000013
vertex 40.1692254835535 18.217735232282 0.900000000000135
vertex 43.0162349796812 17.8429193214618 0.900000000000135
endloop
endfacet
facet normal -0.130526192220051 -0.99144486137381 3.46749846047582e-017
outer loop
vertex 40.1692254835535 18.217735232282 0.900000000000135
vertex 43.0162349796812 17.8429193214618 1.40000000000013
vertex 40.1692254835535 18.217735232282 1.40000000000013
endloop
endfacet
facet normal 0.0 -1.0 0.0
outer loop
vertex 57.5162349796812 155.842919321462 1.40000000000013
vertex 53.5162349796812 155.842919321462 0.900000000000135
vertex 57.5162349796812 155.842919321462 0.900000000000135
endloop
endfacet
facet normal 0.0 -1.0 0.0
outer loop
vertex 53.5162349796812 155.842919321462 0.900000000000135
vertex 57.5162349796812 155.842919321462 1.40000000000013
vertex 53.5162349796812 155.842919321462 1.40000000000013
endloop
endfacet
facet normal 0.382683432365094 -0.923879532511285 -7.34688494664456e-030
outer loop
vertex 48.5162349796812 19.316639879833 1.40000000000013
vertex 45.863244475809 18.217735232282 0.900000000000135
vertex 48.5162349796812 19.316639879833 0.900000000000135
endloop
endfacet
facet normal 0.382683432365094 -0.923879532511285 -7.34688494664456e-030
outer loop
vertex 45.863244475809 18.217735232282 0.900000000000135
vertex 48.5162349796812 19.316639879833 1.40000000000013
vertex 45.863244475809 18.217735232282 1.40000000000013
endloop
endfacet
endsolid slot_guide
