<?xml version="1.0" standalone="no"?>
<!DOCTYPE svg PUBLIC "-//W3C//DTD SVG 1.1//EN" "http://www.w3.org/Graphics/SVG/1.1/DTD/svg11.dtd">
<svg width="182.000000000006mm" height="72.800000000015mm"
 viewBox="0 0 182.000000000006 72.800000000015"
 xmlns="http://www.w3.org/2000/svg" version="1.1"
 xmlns:xlink="http://www.w3.org/1999/xlink">
<desc>Output from Flights of Ideas SVG Sketchup Plugin</desc>

  <path id="face0-cut"
 style="fill:none;stroke:#0000ff;stroke-width:0.5;stroke-miterlimit:4;stroke-dasharray:none;stroke-linejoin:round;stroke-linecap:round"
        d="M 167.652630961106,10.0427756931309 L 167.000000000006,10.0 L 13.3499940708726,10.0427756931309 L 12.8582422558777,10.0427756931309 L 12.3999999999999,10.2545517328085 L 12.0064971157455,10.5564971157483 L 11.7045517328095,10.9499999999997 L 11.5147409300507,11.4082438143038 L 11.4499999999999,11.8999999999986 L 11.5147409300507,12.3917561856937 L 11.7045517328095,12.8500000000002 L 12.0064971157455,13.243502884254 L 12.3999999999999,13.54544826719 L 12.8582438143051,13.7352590699492 L 13.3499999999999,13.7999999999999 L 14.1264571353077,13.9022225211337 L 14.8500000000002,14.2019237886464 L 15.4713203435596,14.6786796564392 L 15.9480762113534,15.2999999999998 L 16.2477774788671,16.0235428646921 L 16.3499999999998,16.7999999999998 L 16.3499999999998,20.8000000000004 L 16.2477774788671,21.5764571353075 L 15.9480762113534,22.3000000000001 L 15.4713203435597,22.9213203435594 L 14.8500000000002,23.3980762113532 L 14.1264571353077,23.6977774788672 L 13.3499999999999,23.7999999999999 L 12.5375687569531,23.8993825821197 L 12.1464036019749,24.0222323935328 L 11.7730494029778,24.1916693928119 L 11.4230310977356,24.4051862320279 L 11.1015282968202,24.6596232647825 L 10.8132986351365,24.9512153030126 L 10.5626073679023,25.2756473346706 L 10.3531642529175,25.6281183777636 L 10.1880686531479,26.0034125258259 L 10.069763672,26.3959761334989 L 10.0,26.7999999999999 L 10.0000000000002,57.8000000000155 L 10.0427756931311,58.4526309611158 L 10.1703708685548,59.094095225528 L 10.3806023374437,59.7134171618409 L 10.669872981078,60.3000000000155 L 11.033233298544,60.8438071450589 L 11.4644660940674,61.3355339059481 L 11.9561928549566,61.7667667014715 L 12.5000000000002,62.1301270189374 L 13.0865828381748,62.4193976625717 L 13.7059047744876,62.6296291314606 L 14.3473690389,62.7572243068842 L 15.0000000000002,62.800000000015 L 167.000000000006,62.8 L 167.652630961106,62.7572243068667 L 168.294095225518,62.629629131441 L 168.913417161831,62.4193976625503 L 169.500000000005,62.1301270189144 L 170.043807145048,61.7667667014471 L 170.535533905936,61.3355339059226 L 170.966766701459,60.8438071450326 L 171.330127018924,60.2999999999884 L 171.619397662558,59.7134171618134 L 171.829629131446,59.0940952255003 L 171.95722430687,58.4526309610877 L 172.000000000001,57.7999999999873 L 172.000000000006,14.9999999999999 L 171.957224306875,14.3473690388997 L 171.829629131451,13.7059047744874 L 171.619397662563,13.0865828381745 L 171.330127018928,12.5 L 170.966766701462,11.9561928549563 L 170.535533905939,11.4644660940672 L 170.04380714505,11.0332332985438 L 169.500000000006,10.6698729810777 L 168.913417161831,10.3806023374435 L 168.294095225519,10.1703708685547 L 167.652630961106,10.0427756931309 M 24.299999999998,47.9712634674204 L 24.838477631083,48.3844518861749 L 25.2516660498375,48.9229295172599 L 25.5114071483496,49.5499999999933 L 25.599999999998,50.2229295172599 L 25.5114071483496,50.8958590345263 L 25.2516660498376,51.5229295172598 L 24.838477631083,52.0614071483449 L 24.299999999998,52.4745955670994 L 23.6729295172645,52.7343366656115 L 22.999999999998,52.8229295172599 L 22.3270704827314,52.7343366656114 L 21.699999999998,52.4745955670995 L 21.161522368913,52.0614071483449 L 20.7483339501585,51.5229295172599 L 20.4885928516464,50.8958590345263 L 20.399999999998,50.2229295172599 L 20.4885928516464,49.5499999999933 L 20.7483339501585,48.9229295172598 L 21.161522368913,48.3844518861748 L 21.699999999998,47.9712634674205 L 22.3270704827314,47.7115223689081 L 22.999999999998,47.6229295172598 L 23.6729295172645,47.7115223689081 L 24.299999999998,47.9712634674204 M 161.251666049838,51.5229295172596 L 160.838477631084,52.0614071483447 L 160.299999999999,52.4745955670993 L 159.672929517265,52.7343366656113 L 158.999999999999,52.8229295172597 L 158.327070482732,52.7343366656113 L 157.699999999999,52.4745955670993 L 157.161522368914,52.0614071483447 L 156.748333950159,51.5229295172596 L 156.488592851647,50.8958590345262 L 156.399999999999,50.2229295172598 L 156.488592851647,49.5499999999932 L 156.748333950159,48.9229295172597 L 157.161522368914,48.3844518861747 L 157.699999999999,47.9712634674202 L 158.327070482732,47.7115223689081 L 158.999999999999,47.6229295172596 L 159.672929517265,47.7115223689081 L 160.299999999999,47.9712634674202 L 160.838477631084,48.3844518861746 L 161.251666049838,48.9229295172597 L 161.51140714835,49.5499999999932 L 161.599999999999,50.2229295172598 L 161.51140714835,50.8958590345262 L 161.251666049838,51.5229295172596 M 139.827070482732,53.4908643094527 L 139.199999999999,53.2311232109407 L 138.661522368914,52.8179347921863 L 138.248333950159,52.2794571611012 L 137.988592851647,51.6523866783677 L 137.899999999999,50.9794571611012 L 137.988592851647,50.3065276438346 L 138.248333950159,49.6794571611011 L 138.661522368914,49.1409795300162 L 139.199999999999,48.7277911112616 L 139.827070482732,48.4680500127496 L 140.499999999999,48.3794571611012 L 141.172929517265,48.4680500127496 L 141.799999999999,48.7277911112616 L 142.338477631084,49.1409795300162 L 142.751666049838,49.6794571611011 L 143.01140714835,50.3065276438346 L 143.099999999999,50.9794571611012 L 143.01140714835,51.6523866783678 L 142.751666049838,52.2794571611012 L 142.338477631084,52.8179347921863 L 141.799999999999,53.2311232109407 L 141.172929517265,53.4908643094527 L 140.499999999999,53.5794571611011 L 139.827070482732,53.4908643094527 M 144.101923788647,15.3000000000001 L 144.578679656441,14.6786796564405 L 145.2,14.2019237886467 L 145.923542864693,13.9022225211329 L 146.7,13.8 L 147.476457135308,13.9022225211329 L 148.2,14.2019237886467 L 148.82132034356,14.6786796564403 L 149.298076211353,15.2999999999999 L 149.597777478867,16.0235428646925 L 149.7,16.7999999999999 L 149.7,20.8000000000001 L 149.597777478867,21.5764571353075 L 149.298076211353,22.3000000000001 L 148.82132034356,22.9213203435597 L 148.2,23.3980762113532 L 147.476457135308,23.6977774788671 L 146.7,23.7999999999999 L 145.923542864693,23.6977774788671 L 145.2,23.3980762113532 L 144.578679656441,22.9213203435595 L 144.101923788647,22.2999999999999 L 143.802222521133,21.5764571353075 L 143.7,20.7999999999999 L 143.7,16.8000000000001 L 143.802222521133,16.0235428646925 L 144.101923788647,15.3000000000001 M 60.6977774788669,16.0235428646924 L 60.8,16.7999999999998 L 60.8,20.7999999999999 L 60.6977774788671,21.5764571353075 L 60.3980762113533,22.3000000000001 L 59.9213203435596,22.9213203435597 L 59.2999999999998,23.3980762113532 L 58.5764571353074,23.6977774788669 L 57.7999999999999,23.8 L 57.0235428646924,23.6977774788669 L 56.2999999999999,23.3980762113533 L 55.6786796564403,22.9213203435596 L 55.2019237886466,22.3000000000001 L 54.9022225211327,21.5764571353075 L 54.8,20.8000000000001 L 54.8,16.7999999999999 L 54.9022225211326,16.0235428646922 L 55.2019237886466,15.2999999999999 L 55.6786796564403,14.6786796564404 L 56.2999999999999,14.2019237886465 L 57.0235428646924,13.9022225211326 L 57.7999999999999,13.7999999999999 L 58.5764571353074,13.902222521133 L 59.2999999999998,14.2019237886467 L 59.9213203435596,14.6786796564406 L 60.3980762113533,15.3 L 60.6977774788669,16.0235428646924 M 136.897777478868,21.5764571353075 L 136.598076211354,22.2999999999997 L 136.12132034356,22.9213203435597 L 135.5,23.3980762113532 L 134.776457135308,23.6977774788671 L 134.0,23.7999999999998 L 133.223542864693,23.6977774788671 L 132.5,23.3980762113532 L 131.878679656441,22.9213203435595 L 131.401923788647,22.2999999999997 L 131.102222521133,21.5764571353075 L 131.0,20.8000000000001 L 131.0,16.7999999999999 L 131.102222521133,16.0235428646925 L 131.401923788647,15.2999999999999 L 131.878679656441,14.6786796564403 L 132.5,14.2019237886467 L 133.223542864693,13.9022225211329 L 134.0,13.7999999999999 L 134.776457135308,13.9022225211329 L 135.5,14.2019237886467 L 136.12132034356,14.6786796564403 L 136.598076211354,15.2999999999999 L 136.897777478868,16.0235428646925 L 137.0,16.7999999999999 L 137.0,20.8000000000001 L 136.897777478868,21.5764571353075 M 41.7999999999981,48.7277911112633 L 42.3384776310831,49.1409795300177 L 42.7516660498377,49.6794571611027 L 43.0114071483497,50.3065276438362 L 43.0999999999982,50.9794571611028 L 43.0114071483498,51.6523866783694 L 42.7516660498377,52.2794571611026 L 42.3384776310832,52.8179347921877 L 41.7999999999982,53.2311232109423 L 41.1729295172647,53.4908643094543 L 40.4999999999982,53.5794571611028 L 39.8270704827317,53.4908643094545 L 39.1999999999983,53.2311232109423 L 38.6615223689132,52.8179347921879 L 38.2483339501586,52.2794571611028 L 37.9885928516466,51.6523866783694 L 37.8999999999981,50.9794571611027 L 37.9885928516466,50.3065276438364 L 38.2483339501586,49.6794571611029 L 38.6615223689131,49.1409795300179 L 39.1999999999981,48.7277911112632 L 39.8270704827316,48.4680500127512 L 40.4999999999981,48.3794571611029 L 41.1729295172646,48.4680500127512 L 41.7999999999981,48.7277911112633 M 89.5500000000001,23.8000000000001 L 88.7735428646927,23.6977774788671 L 88.0500000000003,23.3980762113532 L 87.4286796564402,22.9213203435594 L 86.9519237886468,22.3 L 86.6522225211329,21.5764571353074 L 86.5500000000003,20.7999999999999 L 86.5500000000003,16.7999999999999 L 86.6522225211329,16.0235428646924 L 86.9519237886468,15.3 L 87.4286796564402,14.6786796564404 L 88.0500000000003,14.2019237886466 L 88.7735428646927,13.9022225211326 L 89.5500000000001,13.8000000000002 L 90.3264571353077,13.9022225211326 L 91.0500000000002,14.2019237886466 L 91.6713203435599,14.6786796564405 L 92.1480762113535,15.3 L 92.4477774788674,16.0235428646923 L 92.5500000000002,16.7999999999999 L 92.5500000000002,20.8000000000001 L 92.4477774788674,21.5764571353075 L 92.1480762113535,22.3000000000001 L 91.6713203435599,22.9213203435597 L 91.0500000000002,23.3980762113533 L 90.3264571353077,23.6977774788671 L 89.5500000000001,23.8000000000001 M 42.5019237886465,22.3000000000001 L 42.2022225211328,21.5764571353075 L 42.1000000000001,20.7999999999999 L 42.1000000000001,16.7999999999996 L 42.2022225211329,16.0235428646925 L 42.5019237886465,15.3000000000001 L 42.9786796564401,14.6786796564398 L 43.5999999999999,14.2019237886465 L 44.3235428646925,13.9022225211333 L 45.0999999999998,13.7999999999998 L 45.8764571353075,13.9022225211326 L 46.6000000000001,14.2019237886464 L 47.2213203435597,14.67867965644 L 47.6980762113533,15.3000000000001 L 47.9977774788671,16.0235428646922 L 48.0999999999999,16.8 L 48.0999999999999,20.8000000000001 L 47.9977774788671,21.5764571353075 L 47.6980762113533,22.3000000000002 L 47.2213203435597,22.9213203435597 L 46.6,23.3980762113531 L 45.8764571353076,23.6977774788671 L 45.0999999999999,23.8000000000002 L 44.3235428646925,23.697777478867 L 43.6,23.3980762113532 L 42.9786796564402,22.9213203435595 L 42.5019237886465,22.3000000000001 M 104.848076211354,15.2999999999999 L 105.147777478867,16.0235428646926 L 105.25,16.7999999999999 L 105.25,20.7999999999999 L 105.147777478867,21.5764571353075 L 104.848076211354,22.3000000000001 L 104.37132034356,22.9213203435595 L 103.75,23.3980762113532 L 103.026457135308,23.6977774788673 L 102.25,23.8000000000001 L 101.473542864693,23.6977774788672 L 100.75,23.3980762113533 L 100.128679656441,22.9213203435597 L 99.651923788647,22.3000000000001 L 99.3522225211329,21.5764571353075 L 99.2500000000003,20.8 L 99.2500000000003,16.7999999999999 L 99.3522225211329,16.0235428646923 L 99.651923788647,15.2999999999999 L 100.128679656441,14.6786796564404 L 100.75,14.2019237886465 L 101.473542864693,13.9022225211329 L 102.25,13.8 L 103.026457135308,13.9022225211329 L 103.75,14.2019237886468 L 104.37132034356,14.6786796564404 L 104.848076211354,15.2999999999999 "
  />
</svg>
