<?xml version="1.0" standalone="no"?>
<!DOCTYPE svg PUBLIC "-//W3C//DTD SVG 1.1//EN" "http://www.w3.org/Graphics/SVG/1.1/DTD/svg11.dtd">
<svg width="176.0mm" height="281.0mm"
 viewBox="0 0 176.0 281.0"
 xmlns="http://www.w3.org/2000/svg" version="1.1"
 xmlns:xlink="http://www.w3.org/1999/xlink">
<desc>Output from Flights of Ideas SVG Sketchup Plugin</desc>

  <path id="face0-cut"
 style="fill:none;stroke:#0000ff;stroke-width:0.5;stroke-miterlimit:4;stroke-dasharray:none;stroke-linejoin:round;stroke-linecap:round"
        d="M 166.0,266.0 L 166.0,15.0 L 165.957224306869,14.3473690388998 L 165.829629131445,13.7059047744875 L 165.619397662557,13.0865828381746 L 165.330127018922,12.5000000000001 L 164.966766701456,11.9561928549565 L 164.535533905933,11.4644660940673 L 164.043807145044,11.0332332985439 L 163.5,10.6698729810778 L 162.913417161825,10.3806023374436 L 162.294095225513,10.1703708685548 L 161.6526309611,10.042775693131 L 161.0,10.0000000000001 L 15.0000000000002,10.0 L 14.3473690389,10.042775693131 L 13.7059047744877,10.1703708685546 L 13.0865828381748,10.3806023374436 L 12.5000000000001,10.6698729810778 L 11.9561928549566,11.0332332985438 L 11.4644660940674,11.4644660940673 L 11.033233298544,11.9561928549564 L 10.6698729810778,12.5000000000001 L 10.3806023374437,13.0865828381746 L 10.1703708685549,13.7059047744875 L 10.042775693131,14.3473690388998 L 10.0000000000002,15.0 L 10.0,266.0 L 10.042775693131,266.652630961101 L 10.1703708685547,267.294095225513 L 10.3806023374437,267.913417161827 L 10.6698729810778,268.500000000001 L 11.033233298544,269.043807145044 L 11.4644660940673,269.535533905933 L 11.9561928549566,269.966766701456 L 12.4999999999999,270.330127018922 L 13.0865828381746,270.619397662556 L 13.7059047744876,270.829629131445 L 14.3473690388999,270.95722430687 L 15.0000000000001,271.0 L 161.0,271.0 L 161.6526309611,270.957224306869 L 162.294095225513,270.829629131446 L 162.913417161826,270.619397662556 L 163.5,270.330127018922 L 164.043807145044,269.966766701456 L 164.535533905933,269.535533905933 L 164.966766701456,269.043807145044 L 165.330127018922,268.5 L 165.619397662557,267.913417161826 L 165.829629131446,267.294095225513 L 165.957224306869,266.6526309611 L 166.0,266.0 M 113.0,67.5999999999999 L 112.456480005285,67.528444235207 L 111.95,67.3186533479474 L 111.515075759509,66.9849242404918 L 111.181346652053,66.55 L 110.971555764793,66.0435199947152 L 110.9,65.5 L 110.971555764793,64.9564800052848 L 111.181346652053,64.45 L 111.515075759509,64.0150757595082 L 111.95,63.6813466520528 L 112.456480005285,63.471555764793 L 113.0,63.4 L 113.543519994715,63.4715557647929 L 114.05,63.6813466520528 L 114.484924240492,64.0150757595082 L 114.818653347948,64.45 L 115.028444235207,64.9564800052846 L 115.1,65.5 L 115.028444235207,66.0435199947152 L 114.818653347948,66.5500000000002 L 114.484924240492,66.9849242404918 L 114.05,67.3186533479474 L 113.543519994715,67.528444235207 L 113.0,67.5999999999999 M 110.9,215.5 L 110.971555764793,214.956480005285 L 111.181346652053,214.45 L 111.515075759509,214.015075759508 L 111.95,213.681346652053 L 112.456480005285,213.471555764793 L 113.0,213.4 L 113.543519994715,213.471555764793 L 114.05,213.681346652053 L 114.484924240492,214.015075759508 L 114.818653347948,214.45 L 115.028444235207,214.956480005285 L 115.1,215.5 L 115.028444235207,216.043519994715 L 114.818653347948,216.55 L 114.484924240492,216.984924240492 L 114.05,217.318653347947 L 113.543519994715,217.528444235207 L 113.0,217.6 L 112.456480005285,217.528444235207 L 111.95,217.318653347947 L 111.515075759509,216.984924240492 L 111.181346652053,216.55 L 110.971555764793,216.043519994715 L 110.9,215.5 M 63.0000000000001,67.6000000000001 L 62.4564800052849,67.528444235207 L 61.9500000000002,67.3186533479474 L 61.5150757595083,66.9849242404918 L 61.1813466520527,66.55 L 60.9715557647931,66.0435199947152 L 60.9000000000002,65.5 L 60.9715557647931,64.9564800052848 L 61.1813466520527,64.45 L 61.5150757595084,64.0150757595082 L 61.9500000000003,63.6813466520528 L 62.4564800052849,63.4715557647929 L 63.0,63.4000000000001 L 63.5435199947155,63.471555764793 L 64.0500000000001,63.6813466520528 L 64.4849242404918,64.0150757595082 L 64.8186533479473,64.45 L 65.0284442352072,64.9564800052848 L 65.1000000000002,65.5 L 65.0284442352072,66.0435199947152 L 64.8186533479474,66.5500000000002 L 64.4849242404918,66.9849242404918 L 64.0500000000001,67.3186533479474 L 63.5435199947155,67.528444235207 L 63.0000000000001,67.6000000000001 M 65.1000000000001,215.5 L 65.0284442352072,216.043519994715 L 64.8186533479474,216.55 L 64.4849242404918,216.984924240492 L 64.0500000000002,217.318653347947 L 63.5435199947155,217.528444235207 L 63.0000000000001,217.6 L 62.4564800052849,217.528444235207 L 61.9500000000002,217.318653347947 L 61.5150757595083,216.984924240492 L 61.1813466520527,216.55 L 60.9715557647931,216.043519994715 L 60.9000000000002,215.5 L 60.9715557647931,214.956480005285 L 61.1813466520527,214.45 L 61.5150757595083,214.015075759508 L 61.9500000000003,213.681346652053 L 62.4564800052848,213.471555764793 L 63.0,213.4 L 63.5435199947155,213.471555764793 L 64.0500000000001,213.681346652053 L 64.4849242404918,214.015075759508 L 64.8186533479474,214.45 L 65.0284442352072,214.956480005285 L 65.1000000000001,215.5 M 156.672929517267,253.488592851649 L 157.3,253.748333950161 L 157.838477631085,254.161522368915 L 158.25166604984,254.7 L 158.511407148352,255.327070482734 L 158.6,256.0 L 158.511407148352,256.672929517267 L 158.25166604984,257.3 L 157.838477631085,257.838477631085 L 157.3,258.25166604984 L 156.672929517267,258.511407148352 L 156.0,258.6 L 155.327070482734,258.511407148352 L 154.7,258.25166604984 L 154.161522368915,257.838477631085 L 153.74833395016,257.3 L 153.488592851649,256.672929517267 L 153.4,256.0 L 153.488592851649,255.327070482734 L 153.74833395016,254.7 L 154.161522368915,254.161522368915 L 154.7,253.748333950161 L 155.327070482734,253.488592851649 L 156.0,253.4 L 156.672929517267,253.488592851649 M 17.4885928516485,255.327070482734 L 17.7483339501604,254.7 L 18.161522368915,254.161522368915 L 18.7,253.74833395016 L 19.3270704827335,253.488592851649 L 20.0000000000001,253.4 L 20.6729295172667,253.488592851649 L 21.3000000000002,253.74833395016 L 21.8384776310852,254.161522368915 L 22.2516660498398,254.7 L 22.5114071483516,255.327070482734 L 22.6000000000002,256.0 L 22.5114071483516,256.672929517266 L 22.2516660498398,257.3 L 21.8384776310852,257.838477631085 L 21.3000000000001,258.25166604984 L 20.6729295172667,258.511407148352 L 20.0000000000001,258.6 L 19.3270704827335,258.511407148352 L 18.7,258.25166604984 L 18.161522368915,257.838477631085 L 17.7483339501604,257.3 L 17.4885928516485,256.672929517266 L 17.3999999999999,256.0 L 17.4885928516485,255.327070482734 M 21.3000000000001,26.2516660498396 L 20.6729295172667,26.5114071483517 L 20.0000000000001,26.6000000000001 L 19.3270704827335,26.5114071483516 L 18.7,26.2516660498396 L 18.161522368915,25.8384776310851 L 17.7483339501606,25.3000000000001 L 17.4885928516485,24.6729295172667 L 17.4,24.0000000000001 L 17.4885928516485,23.3270704827335 L 17.7483339501605,22.7 L 18.161522368915,22.1615223689149 L 18.7,21.7483339501606 L 19.3270704827335,21.4885928516486 L 20.0000000000001,21.4000000000001 L 20.6729295172667,21.4885928516486 L 21.3000000000001,21.7483339501606 L 21.8384776310853,22.1615223689149 L 22.2516660498396,22.7000000000002 L 22.5114071483516,23.3270704827335 L 22.6000000000002,24.0000000000001 L 22.5114071483516,24.6729295172667 L 22.2516660498396,25.3000000000001 L 21.8384776310851,25.8384776310851 L 21.3000000000001,26.2516660498396 M 157.838477631085,22.161522368915 L 158.25166604984,22.7 L 158.511407148352,23.3270704827335 L 158.6,24.0000000000001 L 158.511407148352,24.6729295172667 L 158.25166604984,25.3000000000001 L 157.838477631085,25.8384776310851 L 157.3,26.2516660498396 L 156.672929517267,26.5114071483516 L 156.0,26.6000000000001 L 155.327070482734,26.5114071483516 L 154.7,26.2516660498396 L 154.161522368915,25.8384776310851 L 153.748333950161,25.3000000000001 L 153.488592851649,24.6729295172667 L 153.4,24.0000000000001 L 153.488592851649,23.3270704827335 L 153.748333950161,22.7 L 154.161522368915,22.161522368915 L 154.7,21.7483339501606 L 155.327070482734,21.4885928516486 L 156.0,21.4000000000001 L 156.672929517267,21.4885928516486 L 157.3,21.7483339501606 L 157.838477631085,22.161522368915 "
  />
</svg>
