<?xml version="1.0" standalone="no"?>
<!DOCTYPE svg PUBLIC "-//W3C//DTD SVG 1.1//EN" "http://www.w3.org/Graphics/SVG/1.1/DTD/svg11.dtd">
<svg width="182.000000000001mm" height="179.000000000019mm"
 viewBox="0 0 182.000000000001 179.000000000019"
 xmlns="http://www.w3.org/2000/svg" version="1.1"
 xmlns:xlink="http://www.w3.org/1999/xlink">
<desc>Output from Flights of Ideas SVG Sketchup Plugin</desc>

  <path id="face0-cut"
 style="fill:none;stroke:#0000ff;stroke-width:0.5;stroke-miterlimit:4;stroke-dasharray:none;stroke-linejoin:round;stroke-linecap:round"
        d="M 172.000000000001,164.000000000019 L 172.000000000001,15.0 L 171.95722430687,14.3473690388997 L 171.829629131446,13.7059047744874 L 171.619397662557,13.0865828381745 L 171.330127018923,12.5 L 170.966766701457,11.9561928549564 L 170.535533905933,11.4644660940672 L 170.043807145044,11.0332332985438 L 169.500000000001,10.6698729810778 L 168.913417161826,10.3806023374435 L 168.294095225513,10.1703708685547 L 167.652630961101,10.0427756931309 L 167.000000000001,10.0 L 15.0,10.0 L 14.3473690388997,10.0427756931309 L 13.7059047744874,10.1703708685547 L 13.0865828381745,10.3806023374435 L 12.5,10.6698729810778 L 11.9561928549564,11.0332332985438 L 11.4644660940673,11.4644660940672 L 11.0332332985438,11.9561928549564 L 10.6698729810778,12.5 L 10.3806023374436,13.0865828381745 L 10.1703708685547,13.7059047744874 L 10.042775693131,14.3473690388997 L 10.0,15.0 L 10.0000000000016,164.000000000019 L 10.0427756931328,164.652630961197 L 10.170370868557,165.294095225608 L 10.3806023374467,165.913417161916 L 10.6698729810819,166.500000000084 L 11.033233298549,167.043807145122 L 11.4644660940734,167.535533906004 L 11.9561928549633,167.966766701521 L 12.5000000000072,168.330127018979 L 13.0865828381814,168.619397662606 L 13.705904774493,168.829629131485 L 14.3473690389032,168.957224306898 L 15.0,169.000000000018 L 167.000000000001,169.000000000019 L 167.652630961101,168.957224306888 L 168.294095225513,168.829629131464 L 168.913417161826,168.619397662575 L 169.500000000001,168.330127018941 L 170.043807145044,167.966766701475 L 170.535533905933,167.535533905951 L 170.966766701457,167.043807145062 L 171.330127018923,166.500000000019 L 171.619397662557,165.913417161844 L 171.829629131446,165.294095225531 L 171.95722430687,164.652630961119 L 172.000000000001,164.000000000019 M 160.838477631086,160.838477631104 L 160.300000000001,161.251666049858 L 159.672929517267,161.51140714837 L 159.000000000001,161.600000000019 L 158.327070482734,161.51140714837 L 157.700000000001,161.251666049858 L 157.161522368916,160.838477631104 L 156.748333950161,160.300000000019 L 156.488592851649,159.672929517285 L 156.400000000001,159.000000000019 L 156.488592851649,158.327070482752 L 156.748333950161,157.700000000019 L 157.161522368916,157.161522368934 L 157.700000000001,156.748333950179 L 158.327070482734,156.488592851667 L 159.000000000001,156.400000000019 L 159.672929517267,156.488592851667 L 160.300000000001,156.748333950179 L 160.838477631086,157.161522368934 L 161.25166604984,157.700000000019 L 161.511407148352,158.327070482752 L 161.600000000001,159.000000000019 L 161.511407148352,159.672929517285 L 161.25166604984,160.300000000019 L 160.838477631086,160.838477631104 M 22.3270704827339,156.488592851667 L 23.0000000000004,156.400000000018 L 23.672929517267,156.488592851667 L 24.3000000000004,156.748333950179 L 24.8384776310854,157.161522368934 L 25.25166604984,157.700000000019 L 25.5114071483519,158.327070482753 L 25.6000000000004,159.000000000019 L 25.511407148352,159.672929517285 L 25.25166604984,160.300000000019 L 24.8384776310854,160.838477631104 L 24.3000000000004,161.251666049859 L 23.6729295172669,161.51140714837 L 23.0000000000004,161.600000000019 L 22.3270704827338,161.511407148371 L 21.7000000000004,161.251666049858 L 21.1615223689154,160.838477631103 L 20.7483339501609,160.300000000019 L 20.4885928516488,159.672929517285 L 20.4000000000004,159.000000000019 L 20.4885928516489,158.327070482752 L 20.7483339501608,157.700000000019 L 21.1615223689154,157.161522368934 L 21.7000000000004,156.74833395018 L 22.3270704827339,156.488592851667 M 23.0000000000004,20.4000000000187 L 23.6729295172669,20.4885928516672 L 24.3000000000003,20.7483339501791 L 24.8384776310854,21.1615223689337 L 25.2516660498399,21.7000000000187 L 25.511407148352,22.3270704827521 L 25.6000000000004,23.0000000000186 L 25.511407148352,23.6729295172852 L 25.2516660498399,24.3000000000187 L 24.8384776310854,24.8384776311037 L 24.3000000000004,25.2516660498582 L 23.6729295172669,25.5114071483702 L 23.0000000000004,25.6000000000186 L 22.3270704827338,25.5114071483703 L 21.7000000000004,25.2516660498582 L 21.1615223689154,24.8384776311037 L 20.7483339501609,24.3000000000187 L 20.4885928516488,23.6729295172852 L 20.4000000000004,23.0000000000187 L 20.4885928516488,22.3270704827521 L 20.7483339501609,21.7000000000187 L 21.1615223689154,21.1615223689336 L 21.7000000000004,20.7483339501791 L 22.3270704827339,20.4885928516671 L 23.0000000000004,20.4000000000187 M 57.6500000000004,55.2500000000186 L 57.5682219830941,55.8711657082647 L 57.328460969083,56.4500000000186 L 56.9470562748481,56.9470562748664 L 56.4500000000004,57.3284609691013 L 55.8711657082464,57.5682219831125 L 55.2500000000004,57.6500000000186 L 54.6288342917543,57.5682219831124 L 54.0500000000004,57.3284609691013 L 53.5529437251526,56.9470562748664 L 53.1715390309177,56.4500000000186 L 52.9317780169066,55.8711657082647 L 52.8500000000004,55.2500000000186 L 52.9317780169066,54.6288342917726 L 53.1715390309177,54.0500000000187 L 53.5529437251527,53.5529437251709 L 54.0500000000004,53.171539030936 L 54.6288342917543,52.9317780169249 L 55.2500000000004,52.8500000000187 L 55.8711657082464,52.9317780169249 L 56.4500000000004,53.171539030936 L 56.9470562748481,53.552943725171 L 57.328460969083,54.0500000000187 L 57.5682219830941,54.6288342917726 L 57.6500000000004,55.2500000000186 M 125.55,128.828460969101 L 125.052943725153,128.447056274866 L 124.671539030918,127.950000000019 L 124.431778016907,127.371165708265 L 124.35,126.750000000019 L 124.431778016907,126.128834291773 L 124.671539030918,125.550000000019 L 125.052943725153,125.052943725171 L 125.55,124.671539030936 L 126.128834291754,124.431778016925 L 126.75,124.350000000019 L 127.371165708246,124.431778016925 L 127.95,124.671539030936 L 128.447056274848,125.052943725171 L 128.828460969083,125.550000000019 L 129.068221983094,126.128834291773 L 129.15,126.750000000019 L 129.068221983094,127.371165708265 L 128.828460969083,127.950000000019 L 128.447056274848,128.447056274866 L 127.95,128.828460969101 L 127.371165708246,129.068221983112 L 126.75,129.150000000019 L 126.128834291754,129.068221983112 L 125.55,128.828460969101 M 160.300000000001,25.2516660498582 L 159.672929517267,25.5114071483702 L 159.000000000001,25.6000000000187 L 158.327070482734,25.5114071483702 L 157.700000000001,25.2516660498582 L 157.161522368916,24.8384776311037 L 156.748333950161,24.3000000000187 L 156.488592851649,23.6729295172852 L 156.400000000001,23.0000000000186 L 156.488592851649,22.3270704827521 L 156.748333950161,21.7000000000187 L 157.161522368916,21.1615223689336 L 157.700000000001,20.7483339501791 L 158.327070482734,20.4885928516671 L 159.000000000001,20.4000000000187 L 159.672929517267,20.4885928516671 L 160.300000000001,20.7483339501791 L 160.838477631086,21.1615223689336 L 161.25166604984,21.7000000000187 L 161.511407148352,22.3270704827521 L 161.600000000001,23.0000000000187 L 161.511407148352,23.6729295172852 L 161.25166604984,24.3000000000187 L 160.838477631086,24.8384776311037 L 160.300000000001,25.2516660498582 M 56.4500000000003,124.671539030936 L 56.9470562748481,125.052943725171 L 57.328460969083,125.550000000019 L 57.5682219830941,126.128834291773 L 57.6500000000003,126.750000000019 L 57.5682219830941,127.371165708265 L 57.328460969083,127.950000000019 L 56.9470562748481,128.447056274866 L 56.4500000000003,128.828460969101 L 55.8711657082464,129.068221983112 L 55.2500000000003,129.150000000019 L 54.6288342917543,129.068221983112 L 54.0500000000003,128.828460969101 L 53.5529437251526,128.447056274866 L 53.1715390309177,127.950000000019 L 52.9317780169066,127.371165708265 L 52.8500000000003,126.750000000019 L 52.9317780169066,126.128834291773 L 53.1715390309177,125.550000000019 L 53.5529437251526,125.052943725171 L 54.0500000000003,124.671539030936 L 54.6288342917543,124.431778016925 L 55.2500000000003,124.350000000019 L 55.8711657082464,124.431778016925 L 56.4500000000003,124.671539030936 M 124.35,55.2500000000186 L 124.431778016907,54.6288342917726 L 124.671539030918,54.0500000000187 L 125.052943725153,53.5529437251709 L 125.55,53.171539030936 L 126.128834291754,52.9317780169249 L 126.75,52.8500000000187 L 127.371165708246,52.9317780169249 L 127.95,53.171539030936 L 128.447056274848,53.5529437251709 L 128.828460969083,54.0500000000187 L 129.068221983094,54.6288342917726 L 129.15,55.2500000000186 L 129.068221983094,55.8711657082647 L 128.828460969083,56.4500000000186 L 128.447056274848,56.9470562748664 L 127.95,57.3284609691013 L 127.371165708246,57.5682219831124 L 126.75,57.6500000000187 L 126.128834291754,57.5682219831124 L 125.55,57.3284609691013 L 125.052943725153,56.9470562748664 L 124.671539030918,56.4500000000186 L 124.431778016907,55.8711657082647 L 124.35,55.2500000000186 M 106.307337294604,54.0448186995672 L 108.69154760876,55.1250903387112 L 111.0,56.3589838486411 L 113.222809320784,57.7412155079168 L 115.350457160349,59.2658663883692 L 117.373832604003,60.9264077008596 L 119.284271247462,62.7157287525567 L 121.07359229916,64.6261673960159 L 122.73413361165,66.6495428396698 L 124.258784492102,68.7771906792346 L 125.641016151378,71.0000000000187 L 126.874909661308,73.3084523912586 L 127.955181300452,75.6926627054151 L 128.877205179805,78.1424213878923 L 129.637033051563,80.6472381959179 L 130.23141121613,83.1963871193736 L 130.657794454953,85.7789523112167 L 130.914356929545,88.3838748308131 L 131.0,91.0000000000188 L 130.914356929545,93.6161251692245 L 130.657794454953,96.2210476888209 L 130.23141121613,98.803612880664 L 129.637033051563,101.35276180412 L 128.877205179805,103.857578612145 L 127.955181300452,106.307337294622 L 126.874909661308,108.691547608779 L 125.641016151378,111.000000000019 L 124.258784492102,113.222809320803 L 122.73413361165,115.350457160368 L 121.073592299159,117.373832604022 L 119.284271247462,119.284271247481 L 117.373832604003,121.073592299178 L 115.350457160349,122.734133611668 L 113.222809320784,124.258784492121 L 111.0,125.641016151396 L 108.69154760876,126.874909661326 L 106.307337294604,127.95518130047 L 103.857578612126,128.877205179823 L 101.352761804101,129.637033051581 L 98.8036128806451,130.231411216148 L 96.2210476888021,130.657794454971 L 93.6161251692057,130.914356929563 L 91.0000000000003,131.000000000019 L 88.3838748307945,130.914356929563 L 85.7789523111983,130.657794454971 L 83.1963871193552,130.231411216148 L 80.6472381958995,129.637033051581 L 78.1424213878739,128.877205179823 L 75.6926627053967,127.95518130047 L 73.3084523912403,126.874909661326 L 71.0000000000003,125.641016151396 L 68.7771906792162,124.25878449212 L 66.6495428396515,122.734133611668 L 64.6261673959976,121.073592299178 L 62.7157287525384,119.284271247481 L 60.9264077008413,117.373832604021 L 59.2658663883509,115.350457160367 L 57.7412155078985,113.222809320803 L 56.3589838486229,111.000000000019 L 55.1250903386929,108.691547608779 L 54.0448186995489,106.307337294622 L 53.1227948201962,103.857578612145 L 52.3629669484377,101.352761804119 L 51.7685887838712,98.8036128806637 L 51.342205545048,96.2210476888207 L 51.0856430704563,93.6161251692243 L 51.0000000000004,91.0000000000186 L 51.0856430704563,88.3838748308129 L 51.342205545048,85.7789523112166 L 51.7685887838712,83.1963871193735 L 52.3629669484377,80.6472381959178 L 53.1227948201962,78.1424213878922 L 54.044818699549,75.6926627054151 L 55.1250903386929,73.3084523912586 L 56.3589838486228,71.0000000000187 L 57.7412155078987,68.7771906792345 L 59.2658663883511,66.6495428396698 L 60.9264077008414,64.6261673960159 L 62.7157287525386,62.7157287525568 L 64.6261673959977,60.9264077008596 L 66.6495428396516,59.2658663883693 L 68.7771906792164,57.7412155079169 L 71.0000000000005,56.3589838486411 L 73.3084523912404,55.1250903387111 L 75.6926627053969,54.0448186995672 L 78.142421387874,53.1227948202145 L 80.6472381958996,52.3629669484559 L 83.1963871193553,51.7685887838895 L 85.7789523111984,51.3422055450662 L 88.3838748307947,51.0856430704745 L 91.0000000000004,51.0000000000186 L 93.6161251692061,51.0856430704745 L 96.2210476888024,51.3422055450663 L 98.8036128806456,51.7685887838895 L 101.352761804101,52.3629669484559 L 103.857578612127,53.1227948202144 L 106.307337294604,54.0448186995672 "
  />
</svg>
