<?xml version="1.0" standalone="no"?>
<!DOCTYPE svg PUBLIC "-//W3C//DTD SVG 1.1//EN" "http://www.w3.org/Graphics/SVG/1.1/DTD/svg11.dtd">
<svg width="176.000000000003mm" height="46.4999999999891mm"
 viewBox="0 0 176.000000000003 46.4999999999891"
 xmlns="http://www.w3.org/2000/svg" version="1.1"
 xmlns:xlink="http://www.w3.org/1999/xlink">
<desc>Output from Flights of Ideas SVG Sketchup Plugin</desc>

  <path id="face0-cut"
 style="fill:none;stroke:#0000ff;stroke-width:0.5;stroke-miterlimit:4;stroke-dasharray:none;stroke-linejoin:round;stroke-linecap:round"
        d="M 165.330127018925,33.9999999999872 L 165.61939766256,33.4134171618125 L 165.829629131449,32.7940952254998 L 165.957224306872,32.1526309610874 L 166.000000000003,31.4999999999871 L 166.000000000003,14.9999999999999 L 165.957224306872,14.3473690388997 L 165.829629131449,13.7059047744874 L 165.61939766256,13.0865828381745 L 165.330127018926,12.5 L 164.96676670146,11.9561928549564 L 164.535533905936,11.4644660940672 L 164.043807145047,11.0332332985438 L 163.500000000003,10.6698729810778 L 162.913417161829,10.3806023374435 L 162.294095225516,10.1703708685547 L 161.652630961104,10.0427756931308 L 161.000000000003,10.0 L 14.9999999999203,10.0000000000002 L 14.3473690388273,10.0427756931406 L 13.7059047744232,10.1703708685718 L 13.0865828381193,10.3806023374664 L 12.499999999954,10.6698729811044 L 11.9561928549195,11.0332332985721 L 11.4644660940391,11.4644660940957 L 11.0332332985236,11.9561928549829 L 10.6698729810646,12.500000000023 L 10.380602337436,13.0865828381929 L 10.1703708685512,13.7059047745003 L 10.0427756931301,14.3473690389065 L 10.0,14.9999999999999 L 10.0,31.4999999999881 L 10.0438088592145,32.1529476991286 L 10.1723835709591,32.7946084018849 L 10.3835286896028,33.4140255899218 L 10.6736388577388,33.9999999999872 L 11.0377603748148,34.544383016513 L 11.4696757703538,35.0360221169291 L 11.9620099812963,35.4671449981314 L 12.5063562768186,35.8303901281893 L 13.0934198066346,36.1195550048941 L 13.713176312909,36.3297020650437 L 14.355043296988,36.4572429945886 L 15.0080607182328,36.4999999999891 L 161.000000000003,36.4999999999872 L 161.652630961103,36.4572243068562 L 162.294095225516,36.3296291314325 L 162.913417161829,36.1193976625436 L 163.500000000003,35.8301270189094 L 164.043807145047,35.4667667014434 L 164.535533905936,35.0355339059199 L 164.966766701459,34.5438071450307 L 165.330127018925,33.9999999999872 M 20.0000000000034,20.6499999999935 L 20.6729295172701,20.7385928516424 L 21.3000000000034,20.9983339501539 L 21.8384776310885,21.4115223689089 L 22.2516660498431,21.9499999999937 L 22.511407148355,22.5770704827274 L 22.6000000000035,23.2499999999933 L 22.511407148355,23.9229295172605 L 22.2516660498428,24.5499999999936 L 21.8384776310884,25.0884776310789 L 21.3000000000033,25.5016660498334 L 20.6729295172698,25.7614071483457 L 20.0000000000033,25.8499999999934 L 19.3270704827367,25.7614071483454 L 18.7000000000033,25.5016660498332 L 18.1615223689183,25.0884776310787 L 17.7483339501637,24.5499999999932 L 17.4885928516519,23.9229295172608 L 17.4000000000035,23.2499999999936 L 17.4885928516519,22.5770704827276 L 17.748333950164,21.9499999999931 L 18.1615223689185,21.411522368909 L 18.7000000000034,20.9983339501541 L 19.327070482737,20.7385928516424 L 20.0000000000034,20.6499999999935 M 157.838477631088,25.0884776310791 L 157.300000000003,25.5016660498331 L 156.67292951727,25.7614071483456 L 156.000000000003,25.849999999994 L 155.327070482737,25.7614071483457 L 154.700000000003,25.5016660498335 L 154.161522368918,25.0884776310785 L 153.748333950164,24.5499999999935 L 153.488592851652,23.9229295172606 L 153.400000000003,23.2499999999941 L 153.488592851652,22.5770704827275 L 153.748333950164,21.9499999999935 L 154.161522368918,21.4115223689085 L 154.700000000003,20.9983339501544 L 155.327070482737,20.7385928516425 L 156.000000000003,20.6499999999941 L 156.67292951727,20.7385928516424 L 157.300000000003,20.998333950154 L 157.838477631088,21.4115223689091 L 158.251666049843,21.949999999994 L 158.511407148355,22.577070482727 L 158.600000000003,23.2499999999935 L 158.511407148355,23.9229295172601 L 158.251666049843,24.549999999994 L 157.838477631088,25.0884776310791 "
  />
</svg>
